<?xml version="1.0" encoding="utf-8"?>
<!-- Generator: Adobe Illustrator 22.1.0, SVG Export Plug-In . SVG Version: 6.00 Build 0)  -->
<svg version="1.1" id="Layer_1" xmlns="http://www.w3.org/2000/svg" xmlns:xlink="http://www.w3.org/1999/xlink" x="0px" y="0px"
	 viewBox="0 0 1091.8 569.8" style="enable-background:new 0 0 1091.8 569.8;" xml:space="preserve">
<style type="text/css">
	.st0{fill:#FFFFFF;}
</style>
<g>
	<g>
		<path class="st0" d="M1064.7,526.1h-27.6c-3.7,0-6.7,3-6.7,6.7c0,3.7,3,6.7,6.7,6.7h27.6c3.7,0,6.7-3,6.7-6.7
			C1071.4,529.1,1068.4,526.1,1064.7,526.1z M1000.7,526.1h-56.9c-3.7,0-6.7,3-6.7,6.7c0,3.7,3,6.7,6.7,6.7h56.9
			c3.7,0,6.7-3,6.7-6.7C1007.4,529.1,1004.4,526.1,1000.7,526.1z M899.3,526.1H552.6V267.6h30.9c7.5,0,14.5-2.9,19.8-8.2l53.2-53.1
			c5.3-5.3,8.2-12.3,8.2-19.7v-75.1c0-7.5-2.9-14.5-8.2-19.7l-53.2-53.1c-5.3-5.3-12.3-8.2-19.8-8.2h-75.2c-7.5,0-14.5,2.9-19.8,8.2
			l-53.2,53.1c-5.3,5.3-8.2,12.3-8.2,19.7v75.1c0,7.5,2.9,14.5,8.2,19.7l53.2,53.1v0c5.3,5.3,12.3,8.2,19.8,8.2h30.9v258.5H180.9
			c-3.7,0-6.7,3-6.7,6.7c0,3.7,3,6.7,6.7,6.7h718.5c3.7,0,6.7-3,6.7-6.7C906,529.1,903,526.1,899.3,526.1z M508.3,254.2
			c-3.9,0-7.6-1.5-10.3-4.3v0l-53.2-53.1c-2.8-2.8-4.3-6.4-4.3-10.3v-75.1c0-3.9,1.5-7.6,4.3-10.3L498,48c2.8-2.8,6.4-4.3,10.3-4.3
			h75.2c3.9,0,7.6,1.5,10.3,4.3l53.2,53.1c2.8,2.8,4.3,6.4,4.3,10.3v75.1c0,3.9-1.5,7.6-4.3,10.3L593.8,250
			c-2.8,2.8-6.4,4.3-10.3,4.3H508.3z M131.1,526.1H94.6c-3.7,0-6.7,3-6.7,6.7c0,3.7,3,6.7,6.7,6.7h36.5c3.7,0,6.7-3,6.7-6.7
			C137.8,529.1,134.8,526.1,131.1,526.1z M57.3,526.1H27.1c-3.7,0-6.7,3-6.7,6.7c0,3.7,3,6.7,6.7,6.7h30.2c3.7,0,6.7-3,6.7-6.7
			C64,529.1,61,526.1,57.3,526.1z M625.2,179.9v-61.8c0-1.2-0.5-2.4-1.4-3.3l-43.8-43.7c-0.9-0.9-2.1-1.4-3.3-1.4h-61.9
			c-1.2,0-2.4,0.5-3.3,1.4l-43.8,43.7c-0.9,0.9-1.4,2.1-1.4,3.3v61.8c0,1.2,0.5,2.4,1.4,3.3l43.8,43.7c0.9,0.9,2.1,1.4,3.3,1.4h61.9
			c1.2,0,2.4-0.5,3.3-1.4l43.8-43.7C624.7,182.3,625.2,181.1,625.2,179.9z M615.9,178l-41,41h-58l-41-41v-58l41-41h58l41,41V178z"/>
	</g>
</g>
<g>
	<path class="st0" d="M366.3,213.4v52.5H318l-0.4-52.5h-99.8v-33.6l67.9-155.1l42,15.8l-58.5,135.1h49l5.3-57.8h42.7v57.8h27.7v37.8
		H366.3z"/>
</g>
<g>
	<path class="st0" d="M867.3,213.4v52.5H819l-0.3-52.5h-99.8v-33.6l67.9-155.1l42,15.8l-58.5,135.1h49l5.3-57.8h42.7v57.8h27.7v37.8
		H867.3z"/>
</g>
<g>
	<path class="st0" d="M519.8,137.7l-2.8,3.3c-1.9-1.6-3.8-2.4-6.1-2.4c-2.4,0-4,1-4,3c0,1.9,1,2.7,5.6,4.1c5,1.6,8.2,3.7,8.2,8.8
		c0,5.1-4,8.6-10.7,8.6c-4.6,0-8-1.6-10.2-3.9l3.1-3.4c1.9,1.8,4.2,2.8,7,2.8s4.8-1.4,4.8-3.8c0-2.2-1.1-3.2-5.3-4.4
		c-6-1.9-8.4-4.3-8.4-8.5c0-4.7,4.1-7.8,9.7-7.8C514.6,134.2,517.4,135.4,519.8,137.7z"/>
	<path class="st0" d="M534.9,139.4v23.1H529v-23.1h-7.4v-4.6h20.9l-0.6,4.6H534.9z"/>
	<path class="st0" d="M567.4,148.7c0,9.1-4.7,14.5-12.3,14.5c-7.6,0-12.3-5.2-12.3-14.5c0-9,4.7-14.5,12.3-14.5
		C562.7,134.2,567.4,139.4,567.4,148.7z M549,148.7c0,7.2,2.3,10.1,6.1,10.1c4,0,6.1-2.8,6.1-10.1c0-7.2-2.1-10.1-6.1-10.1
		C551.2,138.6,549,141.4,549,148.7z"/>
	<path class="st0" d="M591.7,143.8c0,6.4-4.6,9.3-10.9,9.3h-3.2v9.4h-5.9v-27.7h8.6C587.4,134.8,591.7,137.7,591.7,143.8z
		 M585.6,143.8c0-3.2-1.9-4.7-5.4-4.7h-2.6v9.7h2.7C583.6,148.8,585.6,147.5,585.6,143.8z"/>
</g>
</svg>
