<svg xmlns="http://www.w3.org/2000/svg" width="22" height="22" viewBox="0 0 22 22">
  <defs>
    <style>
      .cls-1 {
        fill-rule: evenodd;
      }
    </style>
  </defs>
  <path class="cls-1" d="M865.94,734.138a3.067,3.067,0,0,0-2.2-2.822v-8.557a0.77,0.77,0,0,0-1.54,0v8.557a2.909,2.909,0,0,0,0,5.644v6.282a0.77,0.77,0,0,0,1.54,0V736.96A3.067,3.067,0,0,0,865.94,734.138Zm-2.971,1.408a1.408,1.408,0,1,1,1.431-1.408A1.422,1.422,0,0,1,862.969,735.546Zm11.058-8.235a3.07,3.07,0,0,0-2.2-2.824v-1.728a0.771,0.771,0,0,0-1.541,0v1.728a2.911,2.911,0,0,0,0,5.646v13.109a0.771,0.771,0,0,0,1.541,0V730.133A3.067,3.067,0,0,0,874.027,727.311Zm-2.97,1.409a1.41,1.41,0,1,1,1.429-1.409A1.422,1.422,0,0,1,871.057,728.72ZM882,738.69a2.878,2.878,0,0,0-2.085-2.706V722.759a0.77,0.77,0,0,0-1.54,0v13.225a2.8,2.8,0,0,0,0,5.411v1.847a0.77,0.77,0,0,0,1.54,0V741.4A2.876,2.876,0,0,0,882,738.69Zm-2.855,1.295a1.3,1.3,0,1,1,1.315-1.295A1.307,1.307,0,0,1,879.144,739.985Z" transform="translate(-860 -722)"/>
</svg>