<?xml version="1.0" encoding="utf-8"?>
<!-- Generator: Adobe Illustrator 21.1.0, SVG Export Plug-In . SVG Version: 6.00 Build 0)  -->
<svg version="1.1" id="Layer_1" xmlns="http://www.w3.org/2000/svg" xmlns:xlink="http://www.w3.org/1999/xlink" x="0px" y="0px"
	 viewBox="0 0 500 500" style="enable-background:new 0 0 500 500;" xml:space="preserve">
<g>
	<g>
		<path d="M207.5,301.2c35-18.2,69.7-36.2,104.8-54.4c-35.1-18.4-69.9-36.5-104.8-54.7V301.2z M250,16.4
			C121.1,16.4,16.6,121,16.6,250c0,129,104.5,233.6,233.4,233.6c128.9,0,233.4-104.6,233.4-233.6C483.4,121,378.9,16.4,250,16.4z
			 M409,328c-4,17.5-18.4,30.5-35.6,32.4C332.5,365,291.2,365,250,365c-41.2,0-82.6,0-123.4-4.6C109.3,358.5,95,345.5,91,328
			c-5.7-25-5.7-52.3-5.7-78s0.1-53,5.8-78c4-17.5,18.4-30.5,35.6-32.4c40.9-4.6,82.2-4.6,123.4-4.6c41.2,0,82.5,0,123.4,4.6
			c17.3,1.9,31.6,14.9,35.6,32.4c5.7,25,5.7,52.3,5.7,78S414.8,303,409,328z"/>
	</g>
</g>
</svg>
