<?xml version="1.0" encoding="utf-8"?>
<!-- Generator: Adobe Illustrator 22.1.0, SVG Export Plug-In . SVG Version: 6.00 Build 0)  -->
<svg version="1.1" id="Layer_1" xmlns="http://www.w3.org/2000/svg" xmlns:xlink="http://www.w3.org/1999/xlink" x="0px" y="0px"
	 viewBox="0 0 512 512" style="enable-background:new 0 0 512 512;" xml:space="preserve">
<g>
	<g>
		<g>
			<path fill="#0650cb" d="M328.7,159.3c3.5,0,6.3-2.8,6.3-6.3c0-3.5-2.8-6.3-6.3-6.3s-6.3,2.8-6.3,6.3C322.4,156.5,325.2,159.3,328.7,159.3z
				 M328.7,149c2.2,0,4.1,1.8,4.1,4c0,2.2-1.8,4-4.1,4c-2.2,0-4.1-1.8-4.1-4C324.7,150.8,326.5,149,328.7,149z M121.9,168.6
				c-0.3-0.3-0.9-0.3-1.3,0c-0.3,0.3-0.3,0.9,0,1.2l1.5,1.4c0.2,0.2,0.4,0.3,0.6,0.3c0.2,0,0.5-0.1,0.6-0.3c0.3-0.3,0.3-0.9,0-1.2
				L121.9,168.6z M119.7,173.9h2.1c0.5,0,0.9-0.4,0.9-0.9c0-0.5-0.4-0.9-0.9-0.9h-2.1c-0.5,0-0.9,0.4-0.9,0.9
				C118.8,173.5,119.2,173.9,119.7,173.9z M122.1,174.7l-1.5,1.4c-0.3,0.3-0.3,0.9,0,1.2c0.2,0.2,0.4,0.3,0.6,0.3
				c0.2,0,0.5-0.1,0.6-0.3l1.5-1.4c0.3-0.3,0.3-0.9,0-1.2C123,174.3,122.4,174.3,122.1,174.7z M125,175.4c-0.5,0-0.9,0.4-0.9,0.9v2
				c0,0.5,0.4,0.9,0.9,0.9s0.9-0.4,0.9-0.9v-2C125.9,175.8,125.5,175.4,125,175.4z M128,174.7c-0.3-0.3-0.9-0.3-1.3,0
				c-0.3,0.3-0.3,0.9,0,1.2l1.5,1.4c0.2,0.2,0.4,0.3,0.6,0.3c0.2,0,0.5-0.1,0.6-0.3c0.3-0.3,0.3-0.9,0-1.2L128,174.7z M130.4,172.1
				h-2.1c-0.5,0-0.9,0.4-0.9,0.9c0,0.5,0.4,0.9,0.9,0.9h2.1c0.5,0,0.9-0.4,0.9-0.9C131.3,172.5,130.9,172.1,130.4,172.1z
				 M128.2,168.6l-1.5,1.4c-0.3,0.3-0.3,0.9,0,1.2c0.2,0.2,0.4,0.3,0.6,0.3c0.2,0,0.5-0.1,0.6-0.3l1.5-1.4c0.3-0.3,0.3-0.9,0-1.2
				C129.1,168.3,128.5,168.3,128.2,168.6z M125.1,166.8c-0.5,0-0.9,0.4-0.9,0.9v2c0,0.5,0.4,0.9,0.9,0.9c0.5,0,0.9-0.4,0.9-0.9v-2
				C125.9,167.2,125.5,166.8,125.1,166.8z M46.5,136.9c2.1-1.2,2.9-3.9,1.6-6c-0.2-0.4-0.7-0.5-1.1-0.3c-0.4,0.2-0.5,0.7-0.3,1.1
				c0.8,1.4,0.3,3.1-1,3.9c-1.4,0.8-3.1,0.3-3.9-1c-0.8-1.4-0.3-3.1,1-3.9c0.4-0.3,1-0.4,1.5-0.4c0.4,0,0.8-0.3,0.8-0.8
				c0-0.4-0.3-0.8-0.8-0.8c-0.8,0-1.6,0.2-2.3,0.6c-2.1,1.2-2.9,3.9-1.6,6C41.6,137.4,44.4,138.1,46.5,136.9z M29.1,281
				c-0.3,0.2-0.4,0.5-0.2,0.8c0.6,1.1,0.2,2.4-0.8,3c-1.1,0.6-2.4,0.2-3.1-0.8c-0.6-1.1-0.2-2.4,0.8-3c0.4-0.2,0.8-0.3,1.2-0.3
				c0.3,0,0.6-0.3,0.6-0.6c0-0.3-0.3-0.6-0.6-0.6c-0.6,0-1.2,0.1-1.8,0.5c-1.7,1-2.2,3.1-1.3,4.7c1,1.7,3.1,2.2,4.7,1.3
				c1.7-1,2.2-3.1,1.3-4.7C29.8,280.9,29.4,280.8,29.1,281z M246,127.1h4.7v4.7c0,0.7,0.6,1.3,1.3,1.3c0.7,0,1.3-0.6,1.3-1.3v-4.7
				h4.7c0.7,0,1.3-0.6,1.3-1.3s-0.6-1.3-1.3-1.3h-4.7v-4.7c0-0.7-0.6-1.3-1.3-1.3c-0.7,0-1.3,0.6-1.3,1.3v4.7H246
				c-0.7,0-1.3,0.6-1.3,1.3S245.3,127.1,246,127.1z M58.6,181.4H53v-5.5c0-0.8-0.7-1.5-1.5-1.5c-0.8,0-1.5,0.7-1.5,1.5v5.5h-5.5
				c-0.8,0-1.5,0.7-1.5,1.5c0,0.8,0.7,1.5,1.5,1.5H50v5.5c0,0.8,0.7,1.5,1.5,1.5s1.5-0.7,1.5-1.5v-5.5h5.5c0.8,0,1.5-0.7,1.5-1.5
				C60.1,182.1,59.4,181.4,58.6,181.4z M368.3,210c0.6,0.6,1.6,0.6,2.2,0l4-4l4,4c0.6,0.6,1.6,0.6,2.2,0c0.6-0.6,0.6-1.6,0-2.2l-4-4
				l4-4c0.6-0.6,0.6-1.6,0-2.2c-0.6-0.6-1.6-0.6-2.2,0l-4,4l-4-4c-0.6-0.6-1.6-0.6-2.2,0c-0.6,0.6-0.6,1.6,0,2.2l4,4l-4,4
				C367.7,208.4,367.7,209.4,368.3,210z M86,255.9c1.5,0,2.8-1.2,2.8-2.8c0-1.5-1.2-2.8-2.8-2.8c-1.5,0-2.8,1.2-2.8,2.8
				C83.2,254.7,84.5,255.9,86,255.9z M73.5,302.6h-4.9c-2.2,0-4,1.8-4,4c0,2.2,1.8,4,4,4h4.9c2.2,0,4-1.8,4-4
				C77.5,304.4,75.7,302.6,73.5,302.6z M117.3,302.6H87c-2.2,0-4,1.8-4,4c0,2.2,1.8,4,4,4h30.3c2.2,0,4-1.8,4-4
				C121.2,304.4,119.5,302.6,117.3,302.6z M136.3,227.3c1.1,0,2.1-0.4,2.8-1.2c0.7-0.7,1.2-1.8,1.2-2.8c0-1-0.4-2.1-1.2-2.8
				c-0.7-0.7-1.8-1.2-2.8-1.2c-1,0-2.1,0.4-2.8,1.2c-0.7,0.7-1.2,1.8-1.2,2.8c0,1,0.4,2.1,1.2,2.8
				C134.2,226.9,135.3,227.3,136.3,227.3z M97.8,136.7h8.3c2.2,0,4-1.8,4-4c0-2.2-1.8-4-4-4h-8.3c-2.2,0-4,1.8-4,4
				C93.8,135,95.6,136.7,97.8,136.7z M120.9,136.7h41.3c2.2,0,4-1.8,4-4c0-2.2-1.8-4-4-4h-41.3c-2.2,0-4,1.8-4,4
				C116.9,135,118.7,136.7,120.9,136.7z M219.3,340.3c-14.7,0-26.7,11.9-26.7,26.6c0,14.7,12,26.6,26.7,26.6
				c14.7,0,26.7-11.9,26.7-26.6C246,352.3,234,340.3,219.3,340.3z M219.3,385.6c-10.3,0-18.7-8.4-18.7-18.7
				c0-10.3,8.4-18.7,18.7-18.7c10.3,0,18.7,8.4,18.7,18.7C238.1,377.2,229.6,385.6,219.3,385.6z M423.5,340.3
				c-14.7,0-26.7,11.9-26.7,26.6c0,14.6,12,26.6,26.7,26.6c14.7,0,26.7-11.9,26.7-26.6C450.2,352.3,438.2,340.3,423.5,340.3z
				 M423.5,385.6c-10.3,0-18.7-8.4-18.7-18.6c0-10.3,8.4-18.7,18.7-18.7c10.3,0,18.7,8.4,18.7,18.7
				C442.3,377.2,433.8,385.6,423.5,385.6z M378.5,267c-4.3-5.6-11.1-8.9-18.2-8.9h-30.9c-2.2,0-4,1.8-4,4v31.5c0,2.2,1.8,4,4,4h64.4
				c1.5,0,2.9-0.9,3.6-2.2c0.7-1.3,0.5-3-0.4-4.2L378.5,267z M333.4,289.6V266h26.9c4.6,0,9,2.2,11.8,5.8l13.6,17.7H333.4z
				 M342.5,315.8h-8.9c-1.6,0-2.8,1.3-2.8,2.8s1.3,2.8,2.8,2.8h8.9c1.6,0,2.8-1.3,2.8-2.8S344,315.8,342.5,315.8z M423.5,361.3
				c-3.1,0-5.7,2.5-5.7,5.7c0,3.1,2.5,5.7,5.7,5.7c3.1,0,5.7-2.5,5.7-5.7C429.2,363.8,426.6,361.3,423.5,361.3z M219.3,361.3
				c-3.1,0-5.7,2.5-5.7,5.7c0,3.1,2.5,5.7,5.7,5.7c3.1,0,5.7-2.5,5.7-5.7C225,363.8,222.4,361.3,219.3,361.3z M484.5,326h-3.8
				c-2.2-10.8-9.6-22.2-19.4-24.8l-40.9-10.8c-3.3-0.9-6.2-2.8-8.2-5.5l-19.3-25.1c-8.4-11-21.8-17.6-35.7-17.6h-32.6
				c-4.5,0-8.6,2-11.4,5.2l14.2-53.6c3.1-11.8-4-23.9-15.8-27l-105.1-27.5c-11.8-3.1-24,4-27.1,15.7l-17.3,65.3
				c-0.7-0.6-1.6-1-2.6-1h-11.2c-2.2,0-4,1.8-4,4c0,2.2,1.8,4,4,4h11.2c0.3,0,0.6,0,0.8-0.1l-10.1,38.3c-3.1,11.8,4,23.9,15.8,27
				l84.7,22.2H143.9c-2.2,0-4,1.8-4,4v7.4h-3.1c-2.2,0-4,1.8-4,4c0,2.2,1.8,4,4,4h3.1v15.7c0,11.7,9.6,21.2,21.3,21.2h23.8
				c2.2,0,4-1.8,4-4c0-16.6,13.6-30.1,30.2-30.1c16.7,0,30.2,13.5,30.2,30.1c0,2.2,1.8,4,4,4h135.8c2.2,0,4-1.8,4-4
				c0-16.6,13.6-30.1,30.2-30.1c16.7,0,30.2,13.5,30.2,30.1c0,2.2,1.8,4,4,4h8.2c8.6,0,15.5-6.9,15.5-15.5v-21.5h3.1
				c2.2,0,4-1.8,4-4C488.5,327.8,486.7,326,484.5,326z M168.5,283.1c-6.7-1.7-10.7-8.6-8.9-15.2l29.2-110.5c0.8-3.2,2.9-5.9,5.8-7.6
				c1.9-1.1,4.1-1.7,6.3-1.7c1.1,0,2.1,0.1,3.2,0.4l105.1,27.5c3.2,0.8,5.9,2.9,7.6,5.8c1.7,2.9,2.1,6.2,1.3,9.4l-29.2,110.5
				c-1.8,6.6-8.6,10.6-15.3,8.9L168.5,283.1z M309.5,261.7v45.2c0,4.3-3.5,7.7-7.8,7.7H292c2.9-2.7,5.1-6.3,6.2-10.4L309.5,261.7z
				 M473.5,355.4c0,4.2-3.4,7.5-7.6,7.5h-4.5c-2-19.1-18.3-34-38-34c-19.7,0-36,14.9-38,34H257.3c-2-19.1-18.3-34-38-34
				c-19.7,0-36,14.9-38,34h-20.1c-7.4,0-13.4-6-13.4-13.3v-15.7h3c2.2,0,4-1.8,4-4c0-2.2-1.8-4-4-4h-3v-3.5h153.8
				c8.7,0,15.7-7,15.7-15.6v-49.6c0-3.9,3.2-7.2,7.2-7.2h32.6c11.4,0,22.4,5.4,29.4,14.5l19.3,25.1c3.1,4.1,7.6,7,12.5,8.3
				l40.9,10.8c6.1,1.6,11.2,9.5,13.3,17.2h-2.1c-2.2,0-4,1.8-4,4c0,2.2,1.8,4,4,4h3.1V355.4z M195.8,208c-2,1-3.2,2.7-3.7,5
				c-0.4,1.9-0.2,3.6,0.6,5.1s2.3,3.1,4.7,4.7c2.3,1.5,3.8,2.7,4.4,3.6c0.6,0.9,0.9,1.9,0.6,2.9c-0.2,1.2-0.9,2-1.9,2.5
				c-1,0.5-2.4,0.6-4.3,0.2c-1.3-0.3-2.6-0.7-3.9-1.4c-1.4-0.7-2.6-1.4-3.8-2.3l-0.9,4.4c1.8,1.4,4.3,2.5,7.5,3.1
				c3.2,0.7,5.9,0.5,8-0.5c2.1-1,3.5-2.8,4-5.3c0.3-1.3,0.3-2.4,0-3.5c-0.3-1-0.8-2-1.6-3c-0.8-0.9-2.2-2.1-4.1-3.4
				c-1.7-1.1-2.8-2-3.4-2.6c-0.6-0.6-1-1.2-1.2-1.8c-0.2-0.6-0.2-1.2-0.1-2c0.2-1.1,0.8-1.8,1.7-2.3c0.9-0.5,2.1-0.6,3.6-0.3
				c2,0.4,4.1,1.4,6.4,3l2.3-3.4c-2.4-1.7-5-2.9-7.7-3.5C200.2,206.8,197.8,207,195.8,208z M228.9,212.9c-4.3-0.9-7.8-0.4-10.7,1.6
				c-2.8,2-4.7,5.3-5.7,10c-1,4.6-0.6,8.5,1.1,11.5s4.8,5,9,5.9c4.2,0.9,7.7,0.3,10.6-1.7c2.8-2.1,4.8-5.4,5.7-10
				c1-4.6,0.6-8.4-1.2-11.4C236.1,215.7,233.1,213.8,228.9,212.9z M234.1,229.1c-0.7,3.5-2,6-3.8,7.5c-1.8,1.5-4,1.9-6.8,1.3
				c-2.8-0.6-4.7-1.9-5.7-4c-1-2.1-1.2-4.9-0.4-8.3c0.7-3.5,2-5.9,3.8-7.4c1.8-1.5,4.1-1.9,6.8-1.3c2.7,0.6,4.6,1.9,5.6,4
				C234.7,222.9,234.9,225.7,234.1,229.1z M252.7,218.4l-4.6-1l-6,28.1l16.6,3.5l0.8-3.9l-12-2.5L252.7,218.4z M283.5,250.5
				c3.1-1.9,5.2-5.2,6.2-9.8c0.9-4.4,0.4-8-1.6-11c-2-2.9-5.2-4.9-9.7-5.8l-8.7-1.9l-6,28.1l7.9,1.7
				C276.4,252.8,280.4,252.4,283.5,250.5z M272.3,247.9l-3.3-0.7l4.4-20.4l4,0.8c6.3,1.3,8.8,5.4,7.3,12.1
				C283.3,246.6,279.1,249.3,272.3,247.9z"/>
		</g>
	</g>
</g>
</svg>
