<svg xmlns="http://www.w3.org/2000/svg" width="20" height="20" viewBox="0 0 20 20">
  <metadata><?xpacket begin="﻿" id="W5M0MpCehiHzreSzNTczkc9d"?>
<x:xmpmeta xmlns:x="adobe:ns:meta/" x:xmptk="Adobe XMP Core 5.6-c140 79.160451, 2017/05/06-01:08:21        ">
   <rdf:RDF xmlns:rdf="http://www.w3.org/1999/02/22-rdf-syntax-ns#">
      <rdf:Description rdf:about=""/>
   </rdf:RDF>
</x:xmpmeta>
                                                                                                    
                                                                                                    
                                                                                                    
                                                                                                    
                                                                                                    
                                                                                                    
                                                                                                    
                                                                                                    
                                                                                                    
                                                                                                    
                                                                                                    
                                                                                                    
                                                                                                    
                                                                                                    
                                                                                                    
                                                                                                    
                                                                                                    
                                                                                                    
                                                                                                    
                                                                                                    
                           
<?xpacket end="w"?></metadata>
<defs>
    <style>
      .cls-1 {
        fill-rule: evenodd;
      }
    </style>
  </defs>
  <path class="cls-1" d="M2257.49,222.335a5.829,5.829,0,0,0-2.66-1.1v2.552a3.146,3.146,0,0,1,.85.354Zm-6.35,2.983-1.81-1.805a5.791,5.791,0,0,0-1.1,2.654h2.55A3.178,3.178,0,0,1,2251.14,225.318Zm2.03-1.533v-2.552a5.84,5.84,0,0,0-2.66,1.1l1.81,1.8A3.178,3.178,0,0,1,2253.17,223.785Zm-2.39,4.049h-2.55a5.791,5.791,0,0,0,1.1,2.653l1.81-1.8A3.206,3.206,0,0,1,2250.78,227.834Zm6.08,0.849,1.81,1.8a5.9,5.9,0,0,0,1.1-2.653h-2.56A2.885,2.885,0,0,1,2256.86,228.683ZM2255.67,227a1.67,1.67,0,1,0-1.67,1.667A1.671,1.671,0,0,0,2255.67,227Zm-5.16,4.665a5.829,5.829,0,0,0,2.66,1.1v-2.552a3.114,3.114,0,0,1-.85-0.354ZM2254,217a10,10,0,1,0,10,10A10.015,10.015,0,0,0,2254,217Zm5.32,15.283c-0.01.007-.01,0.014-0.02,0.02a0.03,0.03,0,0,1-.02.013,7.476,7.476,0,0,1-10.56,0,0.034,0.034,0,0,1-.02-0.014c-0.01-.006-0.01-0.013-0.02-0.02a7.491,7.491,0,0,1,0-10.566c0.01-.006.01-0.015,0.02-0.02a0.039,0.039,0,0,1,.02-0.013,7.474,7.474,0,0,1,10.56,0,0.039,0.039,0,0,1,.02.013c0.01,0,.01.014,0.02,0.02A7.491,7.491,0,0,1,2259.32,232.283Zm-2.1-6.116h2.55a5.9,5.9,0,0,0-1.1-2.654l-1.81,1.805A3.192,3.192,0,0,1,2257.22,226.167Zm-2.39,4.048v2.552a5.829,5.829,0,0,0,2.66-1.1l-1.81-1.8A3.178,3.178,0,0,1,2254.83,230.215Z" transform="translate(-2244 -217)"/>
</svg>
