<?xml version="1.0" encoding="utf-8"?>
<!-- Generator: Adobe Illustrator 21.1.0, SVG Export Plug-In . SVG Version: 6.00 Build 0)  -->
<svg version="1.1" id="Layer_1" xmlns="http://www.w3.org/2000/svg" xmlns:xlink="http://www.w3.org/1999/xlink" x="0px" y="0px"
	 viewBox="0 0 500 500" style="enable-background:new 0 0 500 500;" xml:space="preserve">
<g>
	<g>
		<path d="M424.3,302.5V55.3c0-13.2-10.1-23.4-23.2-23.4H300.3c0-8.6-7-15.6-15.5-15.6H176.4c-8.5,0-15.5,7-15.5,15.6H60.2
			C47.1,32,37,42.1,37,55.3v404.9c0,13.2,10.1,23.4,23.2,23.4h302.1c55.8,0,100.7-45.2,100.7-101.2C463,349.8,447.9,321,424.3,302.5
			z M300.3,47.5H401c4.6,0,7.7,3.1,7.7,7.8v237.2c-4.9-2.6-10.1-4.8-15.5-6.5V78.7c0-8.6-7-15.6-15.5-15.6h-77.5V47.5z M176.4,32
			h108.4v46.7H176.4V32z M176.4,94.3h108.4c8.5,0,15.5-7,15.5-15.6h77.5v203.7c-1.1-0.2-2.2-0.3-3.3-0.4c-0.1,0-0.2,0-0.2,0
			c-0.9-0.1-1.7-0.2-2.6-0.3c-0.2,0-0.4,0-0.7-0.1c-0.7-0.1-1.5-0.1-2.2-0.2c-0.3,0-0.5,0-0.8-0.1c-0.7,0-1.4-0.1-2.1-0.1
			c-0.3,0-0.5,0-0.8,0c-1,0-1.9,0-2.9,0c-55.8,0-100.7,45.2-100.7,101.2c0,1.1,0,2.1,0.1,3.2c0,0.2,0,0.3,0,0.5
			c0.7,18.7,6.3,36.1,15.7,50.9H83.5V78.7h77.5C160.9,87.2,167.9,94.3,176.4,94.3z M60.2,468c-4.6,0-7.7-3.1-7.7-7.8V55.3
			c0-4.7,3.1-7.8,7.7-7.8h100.7v15.6H83.5c-8.5,0-15.5,7-15.5,15.6v358.2c0,8.6,7,15.6,15.5,15.6h206.1c5.7,5.9,12,11.2,19,15.6
			H60.2z M362.3,468c-24.6,0-46.7-10.4-62.2-27c-0.3-0.6-0.7-1.3-1.3-1.8c-13.1-14.6-20.7-33.3-21.6-52.9c0,0,0-0.1,0-0.1
			c-0.1-1.3-0.1-2.6-0.1-3.8c0-47.5,38-85.7,85.2-85.7c1,0,2,0,3,0.1c0.1,0,0.2,0,0.3,0c0.2,0,0.4,0,0.7,0c0.7,0,1.3,0.1,2,0.1
			c0.6,0,1.2,0.1,1.8,0.1c0.1,0,0.2,0,0.2,0c4.3,0.4,8.6,1.3,13,2.7c0.9,0.3,1.8,0.4,2.7,0.2c8.1,2.4,16,6,23.5,10.9
			c23,15.3,38,41.5,38,71.4C447.5,429.9,409.6,468,362.3,468z M413.4,338c-3.9-3.1-8.5-2.3-10.8,1.6l-43.4,62.3L329,376.9
			c-3.1-3.1-8.5-2.3-10.8,0.8c-3.1,3.1-2.3,8.6,0.8,10.9l37.2,30.4c0.8,0.8,3.1,1.6,4.6,1.6c0,0,0.8,0,0.8,0.8
			c2.3,0,3.9-1.6,5.4-3.1l48-69.3C418.1,345,417.3,340.3,413.4,338z M126.8,179.1c-11.6,0-20.1,9.3-20.1,20.2v30.4
			c0,11.7,8.5,20.2,20.1,20.2h11.8c3.5,13.4,15.6,23.4,30,23.4c14.4,0,26.5-10,30-23.4h63.9c3.5,13.4,15.6,23.4,30,23.4
			c14.4,0,26.5-10,30-23.4h11.8c11.6,0,20.1-8.6,20.9-20.2v-30.4c0-11.7-9.3-20.2-20.1-20.2h-16.5l-30-42.1
			c-4.6-7-12.4-10.9-20.9-10.9h-33.5c-1.1-0.5-2.3-0.8-3.7-0.8c-1.4,0-2.6,0.3-3.7,0.8h-33.5c-8.5,0-16.3,3.9-20.9,10.9l-30,42.1
			H126.8z M168.7,257.8c-8.5,0-15.5-7-15.5-15.6c0-8.6,7-15.6,15.5-15.6c8.5,0,15.5,7,15.5,15.6
			C184.2,250.8,177.2,257.8,168.7,257.8z M292.6,257.8c-8.5,0-15.5-7-15.5-15.6c0-8.6,7-15.6,15.5-15.6c8.5,0,15.5,7,15.5,15.6
			C308.1,250.8,301.1,257.8,292.6,257.8z M238.4,141H267c3.9,0,7,1.6,8.5,3.9l24.2,34.3h-61.4V141z M184.2,144.9
			c2.3-2.3,5.4-3.9,8.5-3.9h30.2v38.2h-62.2L184.2,144.9z M315.8,195.5c1.3,0,2.5-0.3,3.5-0.8h15.9c2.3,0,4.6,2.3,4.6,4.7v30.4
			c0,2.3-2.3,4.7-4.6,4.7h-12.4c-3.9-13.2-13.9-23.4-28.7-23.4c-0.3,0-0.6,0-0.8,0c-0.2,0-0.5,0-0.7,0c-14.4,0-26.5,10-30,23.4h-63
			c-3.9-13.2-15.5-23.4-30.2-23.4c-0.1,0-0.3,0-0.4,0c-0.1,0-0.2,0-0.4,0c-14.4,0-26.5,10-30,23.4h-11.8c-2.3,0-4.6-2.3-4.6-4.7
			v-30.4c0-2.3,2.3-4.7,4.6-4.7H142c1,0.5,2.2,0.8,3.5,0.8H315.8z M230.6,312.3H114.5c-4.6,0-7.7,3.1-7.7,7.8c0,4.7,3.1,7.8,7.7,7.8
			h116.2c4.6,0,7.7-3.1,7.7-7.8C238.4,315.4,235.3,312.3,230.6,312.3z M230.6,351.2H114.5c-4.6,0-7.7,3.1-7.7,7.8
			c0,4.7,3.1,7.8,7.7,7.8h116.2c4.6,0,7.7-3.1,7.7-7.8C238.4,354.3,235.3,351.2,230.6,351.2z M230.6,390.2H114.5
			c-4.6,0-7.7,3.1-7.7,7.8c0,4.7,3.1,7.8,7.7,7.8h116.2c4.6,0,7.7-3.1,7.7-7.8C238.4,393.3,235.3,390.2,230.6,390.2z"/>
	</g>
</g>
</svg>
