<?xml version="1.0" encoding="utf-8"?>
<!-- Generator: Adobe Illustrator 22.0.1, SVG Export Plug-In . SVG Version: 6.00 Build 0)  -->
<svg version="1.1" id="Layer_1" xmlns="http://www.w3.org/2000/svg" xmlns:xlink="http://www.w3.org/1999/xlink" x="0px" y="0px"
	 viewBox="0 0 500 500" style="enable-background:new 0 0 500 500;" xml:space="preserve">
<path d="M384.5,427.7c-9.2,9.3-18.8,17.9-27.5,27.6c-12.6,14.1-28.5,18.6-46.4,17.6c-26.2-1.4-50.6-10.2-73.9-21.6
	c-52-25.2-96.3-60.2-133.5-104.4c-27.5-32.6-50.1-68.2-65.1-108.4c-7.3-19.5-12.4-39.3-10.9-60.4c1-12.9,5.9-24,15.4-33.1
	c10.4-9.8,20-20,30.2-30c13.3-13.1,29.9-12.9,43.2,0c8.3,8.1,16.2,16.2,24.3,24.3c7.9,7.9,15.9,15.7,23.7,23.6
	c13.8,14,13.8,30.2,0,44.2c-9.8,10-19.7,20-29.9,29.7c-2.6,2.6-2.9,4.7-1.6,7.9c6.6,15.9,16.2,30,26.9,43.1
	c21.6,26.6,46.1,50.2,75.5,68.5c6.2,4,13.1,6.7,19.7,10.4c3.3,1.9,5.7,1.2,8.3-1.6c9.8-10.2,20-20.2,30-30.2
	c13.3-13.1,29.9-13.1,43,0c16.2,16,32.3,32.1,48.3,48.3C398.1,397.5,398.1,414,384.5,427.7z M231.3,159.5l5.2-36.9
	c35.7,5,68.2,21.2,93.8,46.8c24.3,24.3,40.2,54.9,45.9,88.5l-36.8,6.4c-4.5-26.1-16.7-49.7-35.6-68.5
	C284,175.9,258.9,163.3,231.3,159.5z M436.3,257.9c-8.3-48.3-31.1-92.1-65.8-127c-36.6-36.6-83.1-59.7-134.3-66.9l5.2-36.9
	c59.2,8.3,113.1,35,155.4,77.5c40.2,40.2,66.6,91.1,76.3,147L436.3,257.9z"/>
</svg>
