<svg xmlns="http://www.w3.org/2000/svg" width="15" height="15" viewBox="0 0 15 15">
  <metadata><?xpacket begin="﻿" id="W5M0MpCehiHzreSzNTczkc9d"?>
<x:xmpmeta xmlns:x="adobe:ns:meta/" x:xmptk="Adobe XMP Core 5.6-c140 79.160451, 2017/05/06-01:08:21        ">
   <rdf:RDF xmlns:rdf="http://www.w3.org/1999/02/22-rdf-syntax-ns#">
      <rdf:Description rdf:about=""/>
   </rdf:RDF>
</x:xmpmeta>
                                                                                                    
                                                                                                    
                                                                                                    
                                                                                                    
                                                                                                    
                                                                                                    
                                                                                                    
                                                                                                    
                                                                                                    
                                                                                                    
                                                                                                    
                                                                                                    
                                                                                                    
                                                                                                    
                                                                                                    
                                                                                                    
                                                                                                    
                                                                                                    
                                                                                                    
                                                                                                    
                           
<?xpacket end="w"?></metadata>
<defs>
    <style>
      .cls-1 {
        fill-rule: evenodd;
      }
    </style>
  </defs>
  <path class="cls-1" d="M2427.5,217a7.5,7.5,0,1,0,7.5,7.5A7.478,7.478,0,0,0,2427.5,217Zm4.33,5.148h0l-5.45,5.659a0.319,0.319,0,0,1-.24.1,0.255,0.255,0,0,1-.24-0.1l-2.66-2.864-0.07-.068a0.334,0.334,0,0,1,0-.477l0.48-.478a0.333,0.333,0,0,1,.48,0l0.03,0.035,1.87,2.011a0.167,0.167,0,0,0,.24,0l4.57-4.739h0.04a0.322,0.322,0,0,1,.47,0l0.48,0.478A0.286,0.286,0,0,1,2431.83,222.148Z" transform="translate(-2420 -217)"/>
</svg>
