<svg xmlns="http://www.w3.org/2000/svg" width="25" height="25" viewBox="0 0 25 25">
  <metadata><?xpacket begin="﻿" id="W5M0MpCehiHzreSzNTczkc9d"?>
<x:xmpmeta xmlns:x="adobe:ns:meta/" x:xmptk="Adobe XMP Core 5.6-c140 79.160451, 2017/05/06-01:08:21        ">
   <rdf:RDF xmlns:rdf="http://www.w3.org/1999/02/22-rdf-syntax-ns#">
      <rdf:Description rdf:about=""/>
   </rdf:RDF>
</x:xmpmeta>
                                                                                                    
                                                                                                    
                                                                                                    
                                                                                                    
                                                                                                    
                                                                                                    
                                                                                                    
                                                                                                    
                                                                                                    
                                                                                                    
                                                                                                    
                                                                                                    
                                                                                                    
                                                                                                    
                                                                                                    
                                                                                                    
                                                                                                    
                                                                                                    
                                                                                                    
                                                                                                    
                           
<?xpacket end="w"?></metadata>
<defs>
    <style>
      .cls-1 {
        fill-rule: evenodd;
      }
    </style>
  </defs>
  <path class="cls-1" d="M1946.81,118.75h7.81v1.563h-7.81V118.75Zm-1.56-17.187h12.5v3.125h1.56v-3.125a1.563,1.563,0,0,0-1.56-1.563h-12.5a1.563,1.563,0,0,0-1.56,1.563v3.125h1.56v-3.125Zm1.56,14.062h9.38v1.563h-9.38v-1.563Zm15.63-9.375h-21.88a1.562,1.562,0,0,0-1.56,1.562v9.376a1.562,1.562,0,0,0,1.56,1.562h3.13v4.688a1.562,1.562,0,0,0,1.56,1.562h12.5a1.562,1.562,0,0,0,1.56-1.562V118.75h3.13a1.562,1.562,0,0,0,1.56-1.562v-9.376A1.562,1.562,0,0,0,1962.44,106.25Zm-4.69,17.188h-12.5v-9.376h12.5v9.376h0Zm3.12-12.5a1.563,1.563,0,1,1,1.57-1.563A1.562,1.562,0,0,1,1960.87,110.938Z" transform="translate(-1939 -100)"/>
</svg>
