<?xml version="1.0" encoding="utf-8"?>
<!-- Generator: Adobe Illustrator 22.1.0, SVG Export Plug-In . SVG Version: 6.00 Build 0)  -->
<svg version="1.1" id="Layer_1" xmlns="http://www.w3.org/2000/svg" xmlns:xlink="http://www.w3.org/1999/xlink" x="0px" y="0px"
	 viewBox="0 0 512 512" style="enable-background:new 0 0 512 512;" xml:space="preserve">
<path d="M302.9,120.5c-12.2-12.3-32.1-12.3-44.3,0l-11.1,11.1L92.4,286.7l0,0l-4.9,4.9c0,0-15.6,15.7-50.8,129.2
	c-0.2,0.8-0.5,1.6-0.7,2.4c-0.6,2-1.3,4.1-1.9,6.2c-0.6,1.9-1.1,3.7-1.7,5.6c-0.5,1.6-1,3.2-1.5,4.8c-1.1,3.7-2.2,7.5-3.4,11.4
	c-2.5,8.6-8.7,27.9-1.7,34.9c6.7,6.7,26.3,0.8,34.8-1.7c3.9-1.2,7.6-2.3,11.3-3.4c1.7-0.5,3.4-1,5-1.5c1.8-0.5,3.6-1.1,5.3-1.6
	c2.2-0.7,4.4-1.3,6.5-2c0.6-0.2,1.3-0.4,1.9-0.6c108.1-33.6,127.5-49.4,129.1-50.9c0,0,0,0,0,0c0.1-0.1,0.1-0.1,0.1-0.1l5-5l0.3,0.3
	l155.1-155.2h0l11.1-11.1c12.2-12.2,12.2-32.1,0-44.3L302.9,120.5z M202.2,404.4c-0.1,0.1-0.3,0.2-0.5,0.3c-0.1,0.1-0.2,0.2-0.4,0.2
	c-0.1,0.1-0.3,0.2-0.4,0.3c-0.1,0.1-0.3,0.2-0.4,0.3c-5.2,3.1-20.3,11.1-57.1,24.3c-4.3,1.6-9,3.2-13.9,4.9l-52.3-52.3
	c1.7-4.9,3.3-9.6,4.9-14c13.3-36.9,21.2-52.1,24.3-57.2c0.1-0.1,0.1-0.2,0.2-0.3c0.1-0.2,0.2-0.3,0.3-0.5c0.1-0.1,0.2-0.3,0.2-0.4
	c0.1-0.2,0.2-0.4,0.3-0.5l3.8-3.8l94.7,94.8L202.2,404.4z M480.2,120.5l-88.7-88.7c-12.2-12.2-32.1-12.2-44.3,0l-22.2,22.2
	c-12.2,12.2-12.2,32.1,0,44.3l88.7,88.7c12.2,12.2,32.1,12.2,44.3,0l22.2-22.2C492.5,152.5,492.5,132.7,480.2,120.5z"/>
</svg>
