<svg xmlns="http://www.w3.org/2000/svg" width="21" height="19" viewBox="0 0 21 19">
  <metadata><?xpacket begin="﻿" id="W5M0MpCehiHzreSzNTczkc9d"?>
<x:xmpmeta xmlns:x="adobe:ns:meta/" x:xmptk="Adobe XMP Core 5.6-c140 79.160451, 2017/05/06-01:08:21        ">
   <rdf:RDF xmlns:rdf="http://www.w3.org/1999/02/22-rdf-syntax-ns#">
      <rdf:Description rdf:about=""/>
   </rdf:RDF>
</x:xmpmeta>
                                                                                                    
                                                                                                    
                                                                                                    
                                                                                                    
                                                                                                    
                                                                                                    
                                                                                                    
                                                                                                    
                                                                                                    
                                                                                                    
                                                                                                    
                                                                                                    
                                                                                                    
                                                                                                    
                                                                                                    
                                                                                                    
                                                                                                    
                                                                                                    
                                                                                                    
                                                                                                    
                           
<?xpacket end="w"?></metadata>
<defs>
    <style>
      .cls-1 {
        fill-rule: evenodd;
      }
    </style>
  </defs>
  <path class="cls-1" d="M614.605,230.61h-7.737a0.42,0.42,0,0,0,0,.839h7.737A0.42,0.42,0,0,0,614.605,230.61Zm0,2.515h-7.737a0.419,0.419,0,0,0,0,.838h7.737A0.419,0.419,0,0,0,614.605,233.125Zm5.8-2.515h-2.763a0.42,0.42,0,0,0,0,.839h2.763A0.42,0.42,0,0,0,620.408,230.61Zm0,2.515h-2.763a0.419,0.419,0,0,0,0,.838h2.763A0.419,0.419,0,0,0,620.408,233.125Zm-0.151,6.562a2.572,2.572,0,0,0-.847-0.381l-0.013,0v-1.425a1.008,1.008,0,0,1,.38.169,0.533,0.533,0,0,1,.162.2,0.582,0.582,0,0,1,.054.258,0.415,0.415,0,1,0,.829,0,1.4,1.4,0,0,0-.821-1.3,2.167,2.167,0,0,0-.6-0.184V236.9a0.415,0.415,0,1,0-.829,0V237a1.99,1.99,0,0,0-.45.111,1.5,1.5,0,0,0-.751.609,1.475,1.475,0,0,0-.223.78,1.336,1.336,0,0,0,.183.7,1.287,1.287,0,0,0,.4.408,2.8,2.8,0,0,0,.836.339l0.006,0v1.561a0.907,0.907,0,0,1-.386-0.177,0.592,0.592,0,0,1-.21-0.469,0.414,0.414,0,1,0-.828,0,1.439,1.439,0,0,0,.5,1.108,1.772,1.772,0,0,0,.922.391v0.119a0.415,0.415,0,1,0,.829,0v-0.134a1.993,1.993,0,0,0,.789-0.267,1.324,1.324,0,0,0,.467-0.5,1.646,1.646,0,0,0-.006-1.457A1.368,1.368,0,0,0,620.257,239.687Zm-1.688-.605a1.437,1.437,0,0,1-.421-0.194,0.413,0.413,0,0,1-.127-0.146,0.51,0.51,0,0,1-.047-0.239,0.631,0.631,0,0,1,.175-0.436,0.71,0.71,0,0,1,.265-0.17,1.065,1.065,0,0,1,.155-0.045v1.23h0Zm1.356,2.109a0.455,0.455,0,0,1-.12.144,0.915,0.915,0,0,1-.35.16l-0.057.01V240.18a1.541,1.541,0,0,1,.246.1,0.674,0.674,0,0,1,.259.218,0.642,0.642,0,0,1,.09.366A0.666,0.666,0,0,1,619.925,241.191Zm-5.872-3.456h-6.632a1.115,1.115,0,0,0-1.105,1.118v1.676a1.115,1.115,0,0,0,1.105,1.118h6.632a1.115,1.115,0,0,0,1.105-1.118v-1.676A1.115,1.115,0,0,0,614.053,237.735Zm0,3.074h-6.632a0.281,0.281,0,0,1-.276-0.28v-1.676a0.281,0.281,0,0,1,.276-0.28h6.632a0.282,0.282,0,0,1,.276.28v1.676h0A0.282,0.282,0,0,1,614.053,240.809ZM622.9,226h-2.211v0.559a0.553,0.553,0,1,1-1.105,0V226h-2.211v0.559a0.553,0.553,0,1,1-1.105,0V226h-2.21v0.559a0.553,0.553,0,1,1-1.106,0V226h-2.21v0.559a0.553,0.553,0,1,1-1.105,0V226h-2.211v0.559a0.553,0.553,0,1,1-1.105,0V226h-2.211A1.115,1.115,0,0,0,603,227.118v16.764A1.115,1.115,0,0,0,604.105,245H622.9A1.115,1.115,0,0,0,624,243.882V227.118A1.115,1.115,0,0,0,622.9,226Zm0,18.162h-18.79a0.282,0.282,0,0,1-.276-0.28V227.118a0.282,0.282,0,0,1,.276-0.28h1.41a1.378,1.378,0,0,0,2.707,0h0.608a1.379,1.379,0,0,0,2.708,0h0.608a1.378,1.378,0,0,0,2.707,0h0.608a1.379,1.379,0,0,0,2.708,0h0.608a1.378,1.378,0,0,0,2.707,0H622.9a0.281,0.281,0,0,1,.276.28v16.764h0A0.282,0.282,0,0,1,622.9,244.162Z" transform="translate(-603 -226)"/>
</svg>
