<svg xmlns="http://www.w3.org/2000/svg" width="9" height="20" viewBox="0 0 9 20">
  <metadata><?xpacket begin="﻿" id="W5M0MpCehiHzreSzNTczkc9d"?>
<x:xmpmeta xmlns:x="adobe:ns:meta/" x:xmptk="Adobe XMP Core 5.6-c140 79.160451, 2017/05/06-01:08:21        ">
   <rdf:RDF xmlns:rdf="http://www.w3.org/1999/02/22-rdf-syntax-ns#">
      <rdf:Description rdf:about=""/>
   </rdf:RDF>
</x:xmpmeta>
                                                                                                    
                                                                                                    
                                                                                                    
                                                                                                    
                                                                                                    
                                                                                                    
                                                                                                    
                                                                                                    
                                                                                                    
                                                                                                    
                                                                                                    
                                                                                                    
                                                                                                    
                                                                                                    
                                                                                                    
                                                                                                    
                                                                                                    
                                                                                                    
                                                                                                    
                                                                                                    
                           
<?xpacket end="w"?></metadata>
<defs>
    <style>
      .cls-1 {
        fill-rule: evenodd;
      }
    </style>
  </defs>
  <path class="cls-1" d="M618.5,582a4.424,4.424,0,0,1-4.5-4.333,0.656,0.656,0,1,1,1.312,0,3.194,3.194,0,1,0,3.188-2.992,4.337,4.337,0,1,1,0-8.667,4.562,4.562,0,0,1,3.445,1.545,0.681,0.681,0,0,1-.053.947,0.645,0.645,0,0,1-.926-0.054,3.262,3.262,0,0,0-2.466-1.1,3,3,0,1,0,0,5.984A4.337,4.337,0,1,1,618.5,582Zm-0.12,2a0.663,0.663,0,0,1-.656-0.671V564.671a0.656,0.656,0,1,1,1.312,0v18.658A0.664,0.664,0,0,1,618.38,584Z" transform="translate(-614 -564)"/>
</svg>
