<?xml version="1.0" encoding="utf-8"?>
<!-- Generator: Adobe Illustrator 22.1.0, SVG Export Plug-In . SVG Version: 6.00 Build 0)  -->
<svg version="1.1" id="Layer_1" xmlns="http://www.w3.org/2000/svg" xmlns:xlink="http://www.w3.org/1999/xlink" x="0px" y="0px"
	 viewBox="0 0 500 500" style="enable-background:new 0 0 500 500;" xml:space="preserve">
<g>
	<g>
		<path d="M124.3,109.7l188.1-51.3l-10-20.1c-6.5-13.1-22.4-18.5-35.5-12L98.6,109.7H124.3z"/>
		<path d="M370.8,59.9c-2.3,0-4.7,0.3-7,1l-44.2,12.1l-135,36.8h153.2h66.8l-8.3-30.3C393.2,67.6,382.5,59.9,370.8,59.9z"/>
		<path d="M432.3,128.3h-6H418h-8.2h-62.7H116.8H86.5H61.1h-4.7H40.6c-8.4,0-15.8,3.9-20.7,10c-2.2,2.8-3.9,6-4.9,9.6
			c-0.6,2.2-1,4.6-1,6.9v3.2v30.2V450c0,14.6,11.9,26.5,26.5,26.5h391.7c14.6,0,26.5-11.9,26.5-26.5v-73.9H301.5
			c-24.9,0-45-20.2-45-45v-24.3v-8.2v-8.2v-18.2c0-12.2,4.9-23.3,12.8-31.4c7-7.2,16.4-12.1,26.9-13.3c1.7-0.2,3.6-0.3,5.4-0.3
			h135.2h8.2h8.2h5.6v-72.3C458.8,140.2,446.9,128.3,432.3,128.3z"/>
		<path d="M477.3,252.4c-2.6-2.4-5.8-4.3-9.3-5.5c-2.7-0.9-5.6-1.4-8.6-1.4h-0.7h-0.5H450h-29.6H301.5c-14.6,0-26.5,11.9-26.5,26.5
			v13.2v8.2v8.2V331c0,14.6,11.9,26.5,26.5,26.5h157.3h0.7c3,0,5.9-0.5,8.6-1.4c3.5-1.2,6.6-3.1,9.3-5.5c5.3-4.8,8.6-11.8,8.6-19.6
			v-59C485.9,264.3,482.6,257.3,477.3,252.4z M356.8,306.8c0,7.3-5.9,13.2-13.2,13.2h-8.8c-7.3,0-13.2-5.9-13.2-13.2V298
			c0-4.2,2-8,5.1-10.4c2.3-1.7,5.1-2.9,8.2-2.9h2.2h6.6c7.3,0,13.2,5.9,13.2,13.2V306.8L356.8,306.8z"/>
	</g>
</g>
</svg>
