<?xml version="1.0" encoding="utf-8"?>
<!-- Generator: Adobe Illustrator 21.1.0, SVG Export Plug-In . SVG Version: 6.00 Build 0)  -->
<svg version="1.1" id="Layer_1" xmlns="http://www.w3.org/2000/svg" xmlns:xlink="http://www.w3.org/1999/xlink" x="0px" y="0px"
	 viewBox="0 0 500 500" style="enable-background:new 0 0 500 500;" xml:space="preserve">
<g>
	<g>
		<path d="M220.8,363.2V401h-151v15.1h362.3V401h-151v-37.7h181.2c12.5,0,22.6-10.2,22.6-22.6V38.6c0-12.5-10.2-22.6-22.6-22.6H39.6
			C27.2,16,17,26.2,17,38.6v301.9c0,12.5,10.2,22.6,22.6,22.6H220.8z M266.1,401h-30.2v-37.7h30.2V401z M32.1,340.6V38.6
			c0-4.2,3.4-7.5,7.5-7.5h422.7c4.2,0,7.5,3.4,7.5,7.5v301.9h0c0,4.2-3.4,7.5-7.5,7.5H39.6C35.5,348.1,32.1,344.7,32.1,340.6z
			 M454.8,76.4H47.2v226.5h407.6V76.4z M439.7,287.7H62.3V91.5h377.4V287.7z M228.4,333h45.3v-15.1h-45.3V333z M115.1,234.9H169
			c3.4,13,15.1,22.6,29.1,22.6c14,0,25.7-9.7,29.1-22.6h70.1c3.4,13,15.1,22.6,29.1,22.6c14,0,25.7-9.7,29.1-22.6H402v-59.4
			l-55.4-7.9l-23-45.9H216.8l-30.5,45.7l-71.1,7.9V234.9z M198.2,242.5c-8.3,0-15.1-6.8-15.1-15.1c0-8.3,6.8-15.1,15.1-15.1
			c8.3,0,15.1,6.8,15.1,15.1S206.5,242.5,198.2,242.5z M326.5,242.5c-8.3,0-15.1-6.8-15.1-15.1c0-8.3,6.8-15.1,15.1-15.1
			c8.3,0,15.1,6.8,15.1,15.1S334.8,242.5,326.5,242.5z M130.2,188.8l64.7-7.2l29.9-44.9h89.4l22.3,44.7l50.3,7.2v31.2h-31.3
			c-3.4-13-15.1-22.6-29.1-22.6c-14,0-25.7,9.7-29.1,22.6h-70.1c-3.4-13-15.1-22.6-29.1-22.6c-14,0-25.7,9.7-29.1,22.6h-38.8V188.8z
			 M301.7,144.3h-62.3l-25.2,37.7h100.1L301.7,144.3z M242.5,167l5-7.5h43.4l2.5,7.5H242.5z M130.2,106.6H84.9v15.1h45.3V106.6z
			 M130.2,136.8H84.9v15.1h45.3V136.8z M100,174.5H84.9v15.1H100V174.5z M152.9,257.5H84.9v15.1h67.9V257.5z M417.1,106.6h-52.8
			v15.1h52.8V106.6z M417.1,136.8h-52.8v15.1h52.8V136.8z M364.2,272.6h52.8v-15.1h-52.8V272.6z M228.4,272.6h15.1v-15.1h-15.1
			V272.6z M258.5,272.6h15.1v-15.1h-15.1V272.6z M100,204.7H84.9v15.1H100V204.7z M432.2,423.6c-29.1,0-52.8,23.7-52.8,52.8v7.5H485
			v-7.5C485,447.3,461.3,423.6,432.2,423.6z M395.2,468.9c3.5-17.2,18.8-30.2,37-30.2c18.2,0,33.5,13,37,30.2H395.2z M24.5,446.3
			h22.6v22.6H24.5V484h339.7v-52.8H24.5V446.3z M326.5,446.3h22.6v22.6h-22.6V446.3z M288.7,446.3h22.6v22.6h-22.6V446.3z
			 M251,446.3h22.6v22.6H251V446.3z M213.3,446.3h22.6v22.6h-22.6V446.3z M175.5,446.3h22.6v22.6h-22.6V446.3z M137.8,446.3h22.6
			v22.6h-22.6V446.3z M100,446.3h22.6v22.6H100V446.3z M62.3,446.3h22.6v22.6H62.3V446.3z M243.5,46.2h-15.1v15.1h15.1V46.2z
			 M273.6,46.2h-15.1v15.1h15.1V46.2z"/>
	</g>
</g>
</svg>
