<svg xmlns="http://www.w3.org/2000/svg" width="32" height="16" viewBox="0 0 32 16">
  <metadata><?xpacket begin="﻿" id="W5M0MpCehiHzreSzNTczkc9d"?>
<x:xmpmeta xmlns:x="adobe:ns:meta/" x:xmptk="Adobe XMP Core 5.6-c140 79.160451, 2017/05/06-01:08:21        ">
   <rdf:RDF xmlns:rdf="http://www.w3.org/1999/02/22-rdf-syntax-ns#">
      <rdf:Description rdf:about=""/>
   </rdf:RDF>
</x:xmpmeta>
                                                                                                    
                                                                                                    
                                                                                                    
                                                                                                    
                                                                                                    
                                                                                                    
                                                                                                    
                                                                                                    
                                                                                                    
                                                                                                    
                                                                                                    
                                                                                                    
                                                                                                    
                                                                                                    
                                                                                                    
                                                                                                    
                                                                                                    
                                                                                                    
                                                                                                    
                                                                                                    
                           
<?xpacket end="w"?></metadata>
<defs>
    <style>
      .cls-1 {
        fill-rule: evenodd;
      }
    </style>
  </defs>
  <path class="cls-1" d="M38,577.333a3.334,3.334,0,1,0,3.333,3.334A3.338,3.338,0,0,0,38,577.333Zm0,5.334a2,2,0,1,1,2-2A2,2,0,0,1,38,582.667Zm20-5.334a3.334,3.334,0,1,0,3.333,3.334A3.338,3.338,0,0,0,58,577.333Zm0,5.334a2,2,0,1,1,2-2A2,2,0,0,1,58,582.667Zm2-9.334H58.872a1.824,1.824,0,0,1-1.139-.4l-5.253-4.2A3.35,3.35,0,0,0,50.4,568H40.76a3.327,3.327,0,0,0-2.773,1.484l-1.135,1.7a1.825,1.825,0,0,1-1.519.812A3.338,3.338,0,0,0,32,575.333V578a3.338,3.338,0,0,0,3.333,3.333,0.667,0.667,0,1,0,0-1.333,2,2,0,0,1-2-2v-2.667a2,2,0,0,1,2-2,3.152,3.152,0,0,0,2.628-1.406l1.135-1.7a2,2,0,0,1,1.664-.891H50.4a2.01,2.01,0,0,1,1.251.439l5.253,4.2a3.16,3.16,0,0,0,1.972.694H60c1.956,0,2.667,1.993,2.667,3.333a1.936,1.936,0,0,1-2,2,0.667,0.667,0,1,0,0,1.333A3.26,3.26,0,0,0,64,578C64,575.737,62.6,573.333,60,573.333ZM55.333,580H40.667a0.667,0.667,0,1,0,0,1.333H55.333A0.667,0.667,0,1,0,55.333,580ZM54,573.333H48v-2a0.667,0.667,0,0,0-1.333,0V574a0.667,0.667,0,0,0,.667.667H54A0.667,0.667,0,0,0,54,573.333Zm-9.333,0H40.412l0.852-1.7a0.667,0.667,0,1,0-1.193-.6L38.737,573.7a0.666,0.666,0,0,0,.6.964h5.333A0.667,0.667,0,0,0,44.667,573.333ZM50,576H48.667a0.667,0.667,0,1,0,0,1.333H50A0.667,0.667,0,1,0,50,576Z" transform="translate(-32 -568)"/>
</svg>
