<?xml version="1.0" encoding="utf-8"?>
<!-- Generator: Adobe Illustrator 21.1.0, SVG Export Plug-In . SVG Version: 6.00 Build 0)  -->
<svg version="1.1" id="Layer_1" xmlns="http://www.w3.org/2000/svg" xmlns:xlink="http://www.w3.org/1999/xlink" x="0px" y="0px"
	 viewBox="0 0 500 500" style="enable-background:new 0 0 500 500;" xml:space="preserve">
<path d="M250,16.4C121.3,16.4,16.6,121.2,16.6,250c0,128.8,104.7,233.6,233.4,233.6c128.7,0,233.4-104.8,233.4-233.6
	C483.4,121.2,378.7,16.4,250,16.4z M354.1,196.5c0.1,2.3,0.2,4.6,0.2,7c0,71.1-54,153-152.9,153c-30.3,0-58.6-8.9-82.3-24.1
	c4.2,0.5,8.5,0.8,12.8,0.8c25.2,0,48.3-8.6,66.7-23c-23.5-0.4-43.3-16-50.2-37.3c3.3,0.6,6.6,1,10.1,1c4.9,0,9.7-0.6,14.2-1.9
	c-24.6-4.9-43.1-26.7-43.1-52.7c0-0.2,0-0.5,0-0.7c7.2,4,15.5,6.4,24.3,6.7c-14.4-9.6-23.9-26.1-23.9-44.7c0-9.9,2.6-19.1,7.3-27
	c26.5,32.5,66.1,53.9,110.7,56.2c-0.9-3.9-1.4-8-1.4-12.3c0-29.7,24.1-53.8,53.7-53.8c15.5,0,29.4,6.5,39.2,17
	c12.2-2.4,23.7-6.9,34.1-13.1c-4,12.6-12.5,23.1-23.7,29.8c10.9-1.3,21.3-4.2,30.9-8.5C373.7,179.5,364.6,189,354.1,196.5z"/>
</svg>
