<svg xmlns="http://www.w3.org/2000/svg" width="26" height="26" viewBox="0 0 26 26">
  <metadata><?xpacket begin="﻿" id="W5M0MpCehiHzreSzNTczkc9d"?>
<x:xmpmeta xmlns:x="adobe:ns:meta/" x:xmptk="Adobe XMP Core 5.6-c140 79.160451, 2017/05/06-01:08:21        ">
   <rdf:RDF xmlns:rdf="http://www.w3.org/1999/02/22-rdf-syntax-ns#">
      <rdf:Description rdf:about=""/>
   </rdf:RDF>
</x:xmpmeta>
                                                                                                    
                                                                                                    
                                                                                                    
                                                                                                    
                                                                                                    
                                                                                                    
                                                                                                    
                                                                                                    
                                                                                                    
                                                                                                    
                                                                                                    
                                                                                                    
                                                                                                    
                                                                                                    
                                                                                                    
                                                                                                    
                                                                                                    
                                                                                                    
                                                                                                    
                                                                                                    
                           
<?xpacket end="w"?></metadata>
<defs>
    <style>
      .cls-1 {
        fill-rule: evenodd;
      }
    </style>
  </defs>
  <path class="cls-1" d="M892.777,227.329s-4.47,1.37-5.327,2.229a2.193,2.193,0,0,0,3.1,3.1C891.405,231.8,892.777,227.329,892.777,227.329Zm5.955-4.756,2.3,2.3L903,222.9s-1.306-3.262-5.908-5.911l-1.969,1.971,2.3,2.3h0v0l-0.5.5a12.093,12.093,0,1,0,1.312,1.313Zm-0.555,8.556a0.147,0.147,0,0,0,0,.031h0.172a9.069,9.069,0,0,1-2.374,5.741l-0.109-.108c-0.022.025-.042,0.052-0.065,0.077l-1.646-1.647-0.516.517,1.748,1.75a9.073,9.073,0,0,1-5.738,2.378v-0.046c-0.058,0-.113.011-0.172,0.014V237.4h-0.658v2.473a9.644,9.644,0,0,1-.968-0.1,9.035,9.035,0,0,1-4.943-2.307l1.75-1.751-0.486-.486-1.679,1.68a1.42,1.42,0,0,0-.093-0.11l-0.078.08a9.1,9.1,0,0,1-2.375-5.744h2.471v-0.8h-2.3c0-.009,0-0.02,0-0.03h-0.174a9.089,9.089,0,0,1,2.376-5.743l0.107,0.108c0.024-.025.042-0.052,0.065-0.078l1.647,1.651,0.517-.519-1.749-1.75a9.048,9.048,0,0,1,5.738-2.376v0.045c0.056,0,.114-0.012.171-0.015v2.441h0.658v-2.471a8.84,8.84,0,0,1,.968.1A9.034,9.034,0,0,1,895.384,224l-1.747,1.748,0.487,0.489,1.675-1.68c0.034,0.036.061,0.075,0.092,0.111l0.081-.08a9.07,9.07,0,0,1,2.375,5.742h-2.473v0.8h2.3Z" transform="translate(-877 -217)"/>
</svg>
