<?xml version="1.0" encoding="utf-8"?>
<!-- Generator: Adobe Illustrator 22.1.0, SVG Export Plug-In . SVG Version: 6.00 Build 0)  -->
<svg version="1.1" id="Layer_1" xmlns="http://www.w3.org/2000/svg" xmlns:xlink="http://www.w3.org/1999/xlink" x="0px" y="0px"
	 viewBox="0 0 512 512" style="enable-background:new 0 0 512 512;" xml:space="preserve">
<g>
	<g>
		<g>
			<path d="M333,419.9h-22.3v-13c0-18.5-15-33.5-33.4-33.5H102.5c-18.4,0-33.4,15-33.4,33.5v13H46.8c-18.4,0-33.4,15-33.4,33.5v31.8
				c0,5.2,4.2,9.5,9.5,9.5h334.1c5.2,0,9.5-4.2,9.5-9.5v-31.8C366.4,435,351.4,419.9,333,419.9z M88,406.9c0-8,6.5-14.6,14.5-14.6
				h174.8c8,0,14.5,6.5,14.5,14.6v13H88V406.9z M347.5,475.8H32.3v-22.3c0-8,6.5-14.6,14.5-14.6H333c8,0,14.5,6.5,14.5,14.6V475.8z
				 M498.6,393.8c-0.3-11.8-5.3-22.6-14-30.4L304.4,201.2l5.8-5.9c6.2-6.2,9.5-14.4,9.5-23.2c0-3.3-0.5-6.5-1.4-9.6l15.8-15.8
				c3.3,1.2,6.9,1.9,10.4,1.9c7.6,0,15.2-2.9,21-8.7l2.1-2.2c5.6-5.6,8.6-13.1,8.6-21c0-8-3.1-15.4-8.7-21L298,26
				c-11.6-11.6-30.4-11.6-41.9,0l-2.1,2.2c-5.6,5.6-8.6,13.1-8.6,21c0,3.6,0.6,7.1,1.9,10.4l-15.8,15.8c-11.2-3.4-23.8-0.7-32.7,8.1
				l-53.1,53.2c-6.2,6.2-9.5,14.4-9.5,23.2c0,3.3,0.5,6.5,1.4,9.6l-15.9,15.9c-10.5-3.7-23.1-1.5-31.2,6.7l-2.1,2.1
				c-5.6,5.6-8.7,13.1-8.7,21c0,8,3.1,15.4,8.7,21L158,306c5.8,5.8,13.4,8.7,21,8.7c7.6,0,15.2-2.9,21-8.7l2.1-2.2
				c5.6-5.6,8.6-13.1,8.6-21c0-3.6-0.6-7.1-1.9-10.4l15.8-15.8c3.1,1,6.3,1.4,9.6,1.4c8.4,0,16.7-3.2,23.1-9.6l5.8-5.9l161.7,180.6
				c7.8,8.8,18.6,13.8,30.4,14.1c0.4,0,0.8,0,1.2,0c11.3,0,21.9-4.4,29.9-12.4C494.5,416.6,498.9,405.5,498.6,393.8z M267.3,41.5
				l2.1-2.2c2.1-2.1,4.8-3.1,7.6-3.1c2.7,0,5.5,1,7.6,3.1l69.6,69.8c2,2,3.1,4.7,3.1,7.6c0,2.9-1.1,5.6-3.1,7.6c0,0,0,0,0,0
				l-2.1,2.1c-4.2,4.2-11,4.2-15.2,0l-69.6-69.8c-2-2-3.1-4.7-3.1-7.6C264.2,46.2,265.3,43.5,267.3,41.5z M258.7,74.8l60.2,60.4
				l-11.2,11.2L247.5,86L258.7,74.8z M188.6,290.5C188.6,290.5,188.6,290.5,188.6,290.5l-2.1,2.2c-4.2,4.2-11,4.2-15.2,0l-69.6-69.8
				c-2-2-3.1-4.7-3.1-7.6c0-2.9,1.1-5.6,3.1-7.6l2.1-2.1c2-2,4.7-3.1,7.6-3.1c2.9,0,5.6,1.1,7.6,3.1l69.6,69.8c2,2,3.1,4.7,3.1,7.6
				C191.8,285.8,190.6,288.5,188.6,290.5z M197.3,257.2l-60.2-60.4l11.2-11.2l60.2,60.4L197.3,257.2z M256.7,222.2
				C256.7,222.2,256.7,222.2,256.7,222.2l-12.9,12.9c-5.2,5.2-14.3,5.2-19.4,0l-65.3-65.5c-2.6-2.6-4-6-4-9.7c0-3.7,1.4-7.2,4-9.8
				l53.1-53.2c2.6-2.6,6-4,9.7-4c3.7,0,7.1,1.4,9.7,4l65.3,65.5c2.6,2.6,4,6,4,9.7c0,3.7-1.4,7.2-4,9.8L284,194.8c0,0,0,0,0,0
				L256.7,222.2z M472.8,411.5c-4.6,4.6-10.5,7.1-17.2,6.9c-6.5-0.2-12.5-2.9-16.8-7.8L276.5,229.2l7.8-7.9l6.8-6.8l180.8,162.8
				c4.8,4.4,7.6,10.3,7.8,16.8C479.8,400.8,477.4,406.9,472.8,411.5z"/>
		</g>
	</g>
</g>
</svg>
