<svg xmlns="http://www.w3.org/2000/svg" width="23" height="17" viewBox="0 0 23 17">
  <metadata><?xpacket begin="﻿" id="W5M0MpCehiHzreSzNTczkc9d"?>
<x:xmpmeta xmlns:x="adobe:ns:meta/" x:xmptk="Adobe XMP Core 5.6-c140 79.160451, 2017/05/06-01:08:21        ">
   <rdf:RDF xmlns:rdf="http://www.w3.org/1999/02/22-rdf-syntax-ns#">
      <rdf:Description rdf:about=""/>
   </rdf:RDF>
</x:xmpmeta>
                                                                                                    
                                                                                                    
                                                                                                    
                                                                                                    
                                                                                                    
                                                                                                    
                                                                                                    
                                                                                                    
                                                                                                    
                                                                                                    
                                                                                                    
                                                                                                    
                                                                                                    
                                                                                                    
                                                                                                    
                                                                                                    
                                                                                                    
                                                                                                    
                                                                                                    
                                                                                                    
                           
<?xpacket end="w"?></metadata>
<defs>
    <style>
      .cls-1 {
        fill-rule: evenodd;
      }
    </style>
  </defs>
  <path class="cls-1" d="M1565.56,379.611a1.433,1.433,0,0,0-1.44,1.416v1.417h-0.95V380.67a1.917,1.917,0,0,0-.56-1.336l-1.08-1.059a1.948,1.948,0,0,0-1.35-.553h-2.76v-1.889h1.43a1.417,1.417,0,1,0,0-2.833h-5.75a1.417,1.417,0,1,0,0,2.833h1.44v1.889h-1.8a1.93,1.93,0,0,0-1.35.553l-1.36,1.336h-0.76a1.433,1.433,0,0,0-1.44,1.417v1.416h-0.96v-1.416a1.435,1.435,0,0,0-2.87,0v5.666a1.435,1.435,0,0,0,2.87,0v-1.416h0.96v1.416a1.432,1.432,0,0,0,1.44,1.417h0.76l1.36,1.336a1.93,1.93,0,0,0,1.35.553h6.48a1.93,1.93,0,0,0,1.35-.553l2.04-2a1.917,1.917,0,0,0,.56-1.336v-0.83h0.95v1.416a1.44,1.44,0,0,0,2.88,0v-5.666A1.427,1.427,0,0,0,1565.56,379.611Z" transform="translate(-1544 -373)"/>
</svg>
