<svg xmlns="http://www.w3.org/2000/svg" width="19" height="19" viewBox="0 0 19 19">
  <metadata><?xpacket begin="﻿" id="W5M0MpCehiHzreSzNTczkc9d"?>
<x:xmpmeta xmlns:x="adobe:ns:meta/" x:xmptk="Adobe XMP Core 5.6-c140 79.160451, 2017/05/06-01:08:21        ">
   <rdf:RDF xmlns:rdf="http://www.w3.org/1999/02/22-rdf-syntax-ns#">
      <rdf:Description rdf:about=""/>
   </rdf:RDF>
</x:xmpmeta>
                                                                                                    
                                                                                                    
                                                                                                    
                                                                                                    
                                                                                                    
                                                                                                    
                                                                                                    
                                                                                                    
                                                                                                    
                                                                                                    
                                                                                                    
                                                                                                    
                                                                                                    
                                                                                                    
                                                                                                    
                                                                                                    
                                                                                                    
                                                                                                    
                                                                                                    
                                                                                                    
                           
<?xpacket end="w"?></metadata>
<defs>
    <style>
      .cls-1 {
        fill-rule: evenodd;
      }
    </style>
  </defs>
  <path class="cls-1" d="M2269.73,512.731a9.518,9.518,0,0,0-3.46-3.457,9.567,9.567,0,0,0-9.54,0,9.511,9.511,0,0,0-3.46,3.457,9.587,9.587,0,0,0,0,9.537,9.513,9.513,0,0,0,3.46,3.458,9.567,9.567,0,0,0,9.54,0,9.506,9.506,0,0,0,3.46-3.458A9.587,9.587,0,0,0,2269.73,512.731Zm-2.69,5.561a0.794,0.794,0,0,1-.79.791h-3.17v3.167a0.785,0.785,0,0,1-.23.557,0.767,0.767,0,0,1-.56.235h-1.58a0.767,0.767,0,0,1-.56-0.235,0.745,0.745,0,0,1-.23-0.557v-3.167h-3.17a0.794,0.794,0,0,1-.79-0.791v-1.584a0.794,0.794,0,0,1,.79-0.791h3.17V512.75a0.783,0.783,0,0,1,.23-0.557,0.767,0.767,0,0,1,.56-0.235h1.58a0.767,0.767,0,0,1,.56.235,0.783,0.783,0,0,1,.23.557v3.167h3.17a0.794,0.794,0,0,1,.79.791v1.584Z" transform="translate(-2252 -508)"/>
</svg>
