<svg xmlns="http://www.w3.org/2000/svg" width="15" height="20" viewBox="0 0 15 20">
  <metadata><?xpacket begin="﻿" id="W5M0MpCehiHzreSzNTczkc9d"?>
<x:xmpmeta xmlns:x="adobe:ns:meta/" x:xmptk="Adobe XMP Core 5.6-c140 79.160451, 2017/05/06-01:08:21        ">
   <rdf:RDF xmlns:rdf="http://www.w3.org/1999/02/22-rdf-syntax-ns#">
      <rdf:Description rdf:about=""/>
   </rdf:RDF>
</x:xmpmeta>
                                                                                                    
                                                                                                    
                                                                                                    
                                                                                                    
                                                                                                    
                                                                                                    
                                                                                                    
                                                                                                    
                                                                                                    
                                                                                                    
                                                                                                    
                                                                                                    
                                                                                                    
                                                                                                    
                                                                                                    
                                                                                                    
                                                                                                    
                                                                                                    
                                                                                                    
                                                                                                    
                           
<?xpacket end="w"?></metadata>
<defs>
    <style>
      .cls-1 {
        fill-rule: evenodd;
      }
    </style>
  </defs>
  <path class="cls-1" d="M2288,632h-15v15.378h4.42V652H2288V632h0Zm-12.8,2.344h5.84v1.188h-5.84v-1.188Zm0,1.98h5.84v1.188h-5.84v-1.188Zm0,1.981h5.84v1.188h-5.84V638.3Zm10.6,7.488h-10.6v-1.188h10.6v1.188h0Zm0-1.98h-10.6v-1.188h10.6v1.188h0Zm-0.03-5.968v2.544h0l-1.46-.547-1.46.547v-2.544a2.514,2.514,0,0,1-.88-1.917,2.342,2.342,0,1,1,4.68,0A2.514,2.514,0,0,1,2285.77,637.845Zm-12.44,10.721,2.95,3.086v-3.086h-2.95Z" transform="translate(-2273 -632)"/>
</svg>
