<?xml version="1.0" encoding="utf-8"?>
<!-- Generator: Adobe Illustrator 22.1.0, SVG Export Plug-In . SVG Version: 6.00 Build 0)  -->
<svg version="1.1" id="Capa_1" xmlns="http://www.w3.org/2000/svg" xmlns:xlink="http://www.w3.org/1999/xlink" x="0px" y="0px"
	 viewBox="0 0 500 500" style="enable-background:new 0 0 500 500;" xml:space="preserve">
<g id="XMLID_9_">
	<polygon id="XMLID_821_" points="368.5,487 439.6,415.9 368.5,415.9 	"/>
	<path id="XMLID_822_" d="M439.6,380.4V13H60.4v474H333V380.4H439.6z M131.5,107.8h237v35.6h-237V107.8z M131.5,178.9h237v35.6h-237
		V178.9z M131.5,250h237v35.5h-237V250z M230.7,418.7l-4.2,20.9l-35-35l-35,35l-4.2-20.9l-20.9-4.2l28.9-28.9
		c-2.8-5.1-4.4-10.9-4.4-17.1c0-19.6,15.9-35.6,35.6-35.6s35.6,15.9,35.6,35.6c0,6.2-1.6,12-4.4,17.1l28.9,28.9L230.7,418.7z"/>
</g>
</svg>
