<svg version="1.1" id="Layer_1" xmlns="http://www.w3.org/2000/svg" xmlns:xlink="http://www.w3.org/1999/xlink" x="0px" y="0px"
	 viewBox="0 0 500 500" style="enable-background:new 0 0 500 500;" xml:space="preserve">
<path fill="#e1e1e1" d="M250,41.7C135.1,41.7,41.7,135.1,41.7,250c0,114.9,93.5,208.3,208.3,208.3c114.9,0,208.3-93.5,208.3-208.3
	C458.3,135.1,364.9,41.7,250,41.7z M358.1,255.7L205.3,359.9c-1.2,0.8-2.5,1.2-3.9,1.2c-1.1,0-2.2-0.3-3.2-0.8
	c-2.3-1.2-3.7-3.6-3.7-6.1V145.8c0-2.6,1.4-4.9,3.7-6.1c2.3-1.2,5-1,7.2,0.4l152.8,104.2c1.9,1.3,3,3.4,3,5.7
	C361.1,252.3,360,254.4,358.1,255.7z"/>
</svg>
