<svg xmlns="http://www.w3.org/2000/svg" width="20" height="20" viewBox="0 0 20 20">
  <metadata><?xpacket begin="﻿" id="W5M0MpCehiHzreSzNTczkc9d"?>
<x:xmpmeta xmlns:x="adobe:ns:meta/" x:xmptk="Adobe XMP Core 5.6-c140 79.160451, 2017/05/06-01:08:21        ">
   <rdf:RDF xmlns:rdf="http://www.w3.org/1999/02/22-rdf-syntax-ns#">
      <rdf:Description rdf:about=""/>
   </rdf:RDF>
</x:xmpmeta>
                                                                                                    
                                                                                                    
                                                                                                    
                                                                                                    
                                                                                                    
                                                                                                    
                                                                                                    
                                                                                                    
                                                                                                    
                                                                                                    
                                                                                                    
                                                                                                    
                                                                                                    
                                                                                                    
                                                                                                    
                                                                                                    
                                                                                                    
                                                                                                    
                                                                                                    
                                                                                                    
                           
<?xpacket end="w"?></metadata>
<defs>
    <style>
      .cls-1 {
        fill-rule: evenodd;
      }
    </style>
  </defs>
  <path class="cls-1" d="M1287.72,383.1l-10.18,5.878v0.359A2.817,2.817,0,0,1,1277,391h10.34a1.667,1.667,0,0,0,1.66-1.662v-4.619A1.668,1.668,0,0,0,1287.72,383.1Zm-0.31-3.113-1.71-2.974a1.674,1.674,0,0,0-1.44-.831,1.6,1.6,0,0,0-.48.071l-6.24,10.81v0.544l9.34-5.392a1.685,1.685,0,0,0,.7-0.967A1.638,1.638,0,0,0,1287.41,379.988Zm-4.68-5.271a1.645,1.645,0,0,0-.77-1.009l-2.97-1.715a1.667,1.667,0,0,0-1.55-.061,2.931,2.931,0,0,1,.1.731v12.024l5.03-8.708A1.638,1.638,0,0,0,1282.73,374.717ZM1274.69,371h-4.03a1.667,1.667,0,0,0-1.66,1.663v16.675a1.667,1.667,0,0,0,1.66,1.662h4.03a1.667,1.667,0,0,0,1.66-1.662V372.663A1.667,1.667,0,0,0,1274.69,371Zm-2.01,17.44a1.115,1.115,0,1,1,1.11-1.115A1.117,1.117,0,0,1,1272.68,388.44Z" transform="translate(-1269 -371)"/>
</svg>
