<svg xmlns="http://www.w3.org/2000/svg" width="37" height="41" viewBox="0 0 37 41">
  <metadata><?xpacket begin="﻿" id="W5M0MpCehiHzreSzNTczkc9d"?>
<x:xmpmeta xmlns:x="adobe:ns:meta/" x:xmptk="Adobe XMP Core 5.6-c138 79.159824, 2016/09/14-01:09:01        ">
   <rdf:RDF xmlns:rdf="http://www.w3.org/1999/02/22-rdf-syntax-ns#">
      <rdf:Description rdf:about=""/>
   </rdf:RDF>
</x:xmpmeta>
                                                                                                    
                                                                                                    
                                                                                                    
                                                                                                    
                                                                                                    
                                                                                                    
                                                                                                    
                                                                                                    
                                                                                                    
                                                                                                    
                                                                                                    
                                                                                                    
                                                                                                    
                                                                                                    
                                                                                                    
                                                                                                    
                                                                                                    
                                                                                                    
                                                                                                    
                                                                                                    
                           
<?xpacket end="w"?></metadata>
<defs>
    <style>
      .cls-1 {
        fill-rule: evenodd;
      }
    </style>
  </defs>
  <path id="Shape_33_copy_2" data-name="Shape 33 copy 2" class="cls-1" d="M926.088,873.064H929v-7.688h-2.912a16.747,16.747,0,0,0-1.947-4.89l2.057-2.138-5.232-5.436-2.06,2.136a15.476,15.476,0,0,0-4.706-2.023V850h-7.4v3.025a15.466,15.466,0,0,0-4.706,2.023l-2.059-2.137-5.232,5.436,2.058,2.138a16.761,16.761,0,0,0-1.948,4.89H892v7.688h2.912a16.742,16.742,0,0,0,1.947,4.889l-2.057,2.139,5.232,5.435,1.889-1.963a3.576,3.576,0,0,0-.038.39,3.228,3.228,0,0,0,1.444,2.7,3.32,3.32,0,0,0-.211,1.141A3.148,3.148,0,0,0,906.2,891h8.633a3.148,3.148,0,0,0,3.084-3.2,3.307,3.307,0,0,0-.211-1.141,3.037,3.037,0,0,0,1.411-3.048l1.846,1.918,5.232-5.435-2.058-2.139A16.729,16.729,0,0,0,926.088,873.064ZM914.836,888.44H906.2a0.641,0.641,0,0,1,0-1.282h8.633A0.641,0.641,0,0,1,914.836,888.44Zm1.234-3.844h-11.1a0.641,0.641,0,0,1,0-1.281h11.1A0.641,0.641,0,0,1,916.07,884.6Zm-4.317-11.768a3.831,3.831,0,0,0,2.467-3.608,3.7,3.7,0,1,0-7.4,0,3.832,3.832,0,0,0,2.466,3.608v7.924H906.82v-3.4l-0.616-.37a9.074,9.074,0,0,1-4.318-7.76,8.64,8.64,0,1,1,17.267,0,9.073,9.073,0,0,1-4.318,7.76l-0.615.37v3.4h-2.467v-7.924ZM910.52,870.5a1.282,1.282,0,1,1,1.233-1.281A1.259,1.259,0,0,1,910.52,870.5Zm13.342,1.069a14.2,14.2,0,0,1-2.311,5.806l-0.605.881,1.764,1.835-1.744,1.812-1.766-1.835-0.85.629q-0.339.25-.736,0.5a2.959,2.959,0,0,0-.928-0.382V878.8a11.7,11.7,0,0,0,4.934-9.58,11.108,11.108,0,1,0-22.2,0,11.7,11.7,0,0,0,4.933,9.578v2.02a2.982,2.982,0,0,0-.947.393c-0.269-.169-0.523-0.338-0.755-0.51l-0.85-.629-1.766,1.835-1.744-1.812,1.764-1.835-0.6-.881a14.19,14.19,0,0,1-2.312-5.806l-0.175-1.069h-2.5v-2.562h2.5l0.174-1.069a14.2,14.2,0,0,1,2.311-5.806l0.605-.881-1.764-1.835,1.744-1.812,1.766,1.832,0.849-.628a13.108,13.108,0,0,1,5.588-2.4l1.03-.182v-2.594h2.466v2.594l1.029,0.181a13.1,13.1,0,0,1,5.588,2.4l0.849,0.628,1.766-1.832,1.744,1.812-1.764,1.834,0.6,0.882a14.185,14.185,0,0,1,2.312,5.806l0.175,1.07h2.5V870.5h-2.5Z" transform="translate(-892 -850)"/>
</svg>
