<svg xmlns="http://www.w3.org/2000/svg" width="12.406" height="18.031" viewBox="0 0 12.406 18.031">
  <metadata><?xpacket begin="﻿" id="W5M0MpCehiHzreSzNTczkc9d"?>
<x:xmpmeta xmlns:x="adobe:ns:meta/" x:xmptk="Adobe XMP Core 5.6-c140 79.160451, 2017/05/06-01:08:21        ">
   <rdf:RDF xmlns:rdf="http://www.w3.org/1999/02/22-rdf-syntax-ns#">
      <rdf:Description rdf:about=""/>
   </rdf:RDF>
</x:xmpmeta>
                                                                                                    
                                                                                                    
                                                                                                    
                                                                                                    
                                                                                                    
                                                                                                    
                                                                                                    
                                                                                                    
                                                                                                    
                                                                                                    
                                                                                                    
                                                                                                    
                                                                                                    
                                                                                                    
                                                                                                    
                                                                                                    
                                                                                                    
                                                                                                    
                                                                                                    
                                                                                                    
                           
<?xpacket end="w"?></metadata>
<defs>
    <style>
      .cls-1 {
        fill-rule: evenodd;
      }
    </style>
  </defs>
  <path id="Shape_12_copy" data-name="Shape 12 copy" class="cls-1" d="M880.8,609.939l0,0c0.116,0.1.224,0.2,0.322,0.278,1.459-1.235,5.133-4.684,5.133-8.089a5.178,5.178,0,0,0-5.1-5.131H881.1a5.178,5.178,0,0,0-5.1,5.131C876,605.306,879.189,608.516,880.8,609.939Zm-2.311-8.322a2.687,2.687,0,1,1,2.687,2.661A2.674,2.674,0,0,1,878.493,601.617Zm5.268,8.526c-0.385.385-.75,0.723-1.071,1.007,2.233,0.225,3.552.918,3.552,1.328,0,0.494-1.913,1.4-5.039,1.4s-5.038-.907-5.038-1.4c0-.4,1.266-1.078,3.42-1.316-0.318-.28-0.68-0.616-1.062-1-1.978.361-3.512,1.141-3.512,2.313,0,1.671,3.115,2.545,6.192,2.545s6.192-.874,6.192-2.545C887.4,611.281,885.8,610.494,883.761,610.143Z" transform="translate(-875 -597)"/>
</svg>
