<?xml version="1.0" encoding="utf-8"?>
<!-- Generator: Adobe Illustrator 21.1.0, SVG Export Plug-In . SVG Version: 6.00 Build 0)  -->
<svg version="1.1" id="Layer_1" xmlns="http://www.w3.org/2000/svg" xmlns:xlink="http://www.w3.org/1999/xlink" x="0px" y="0px"
	 viewBox="0 0 500 500" style="enable-background:new 0 0 500 500;" xml:space="preserve">
<path d="M460.5,226.8c6-5.9,9.3-13.6,9.3-21.9c0-8.3-3.3-16.1-9.3-21.9L311.8,38.5c-6-5.8-14-9.1-22.5-9.1c-8.5,0-16.5,3.2-22.5,9.1
	L159.9,142.4c-12.4,12.1-12.4,31.7,0,43.8l148.7,144.5c6,5.8,14,9.1,22.5,9.1c8.5,0,16.5-3.2,22.5-9.1L460.5,226.8L460.5,226.8z
	 M91,470.5l167.4-162.6l-74.6-72.5l-24.5,23.8l0.6,50.5c0,2.5-1,4.9-2.8,6.6c-1.8,1.8-4.4,2.6-6.8,2.7l-33.3-0.2l0.2,32.3
	c0,2.5-1,4.8-2.8,6.6c-1.8,1.7-4.1,2.7-6.8,2.7l-33.2-0.2l0.2,33c0,2.5-1,4.8-2.8,6.6c-1.8,1.7-4.1,2.5-6.8,2.7l-33.9-0.2l6.8,55.9
	l160.1-155.5c3.7-3.6,9.7-3.6,13.4,0c3.7,3.6,3.7,9.4,0,13L53.3,469.4L91,470.5L91,470.5z M474,170c19.8,19.3,19.8,50.6,0,69.9
	L367.1,343.7c-9.6,9.3-22.4,14.5-36,14.5c-13.6,0-26.3-5.1-35.9-14.5l-23.4-22.8L101.5,486.3c-1.8,1.7-4.2,2.7-6.7,2.7l-64-1.8
	c-4.7-0.1-8.6-3.6-9.1-8.1l-10.4-85.1c-0.3-2.6,0.5-5.3,2.3-7.2c1.8-2,4.2-3,7.1-3.1l35,0.2l-0.2-33c0-2.5,1-4.8,2.8-6.6
	c1.8-1.7,4.3-2.7,6.8-2.7l33.2,0.2l-0.2-32.3c0-2.5,1-4.8,2.8-6.6c1.8-1.7,4.3-2.7,6.8-2.7l33.2,0.2l-0.6-45c0-2.5,1-4.9,2.8-6.6
	l27.3-26.5l-23.9-23.2c-19.8-19.3-19.8-50.6,0-69.8L253.4,25.5C263,16.1,275.7,11,289.3,11c13.6,0,26.3,5.1,36,14.5L474,170L474,170
	z M340.8,112.1c11.9,0,23.1,4.5,31.5,12.7c8.4,8.2,13,19,13,30.6c0,11.5-4.6,22.4-13,30.6c-8.4,8.2-19.6,12.7-31.5,12.7
	c-11.9,0-23.1-4.5-31.5-12.7c-8.4-8.2-13-19-13-30.6c0-11.6,4.6-22.4,13-30.6C317.7,116.5,328.9,112.1,340.8,112.1L340.8,112.1z
	 M358.8,172.8c4.8-4.7,7.5-10.9,7.5-17.5c0-6.6-2.7-12.9-7.5-17.6c-4.8-4.7-11.2-7.3-18.1-7.3c-6.8,0-13.2,2.6-18.1,7.3
	c-4.8,4.7-7.5,10.9-7.5,17.6c0,6.6,2.7,12.8,7.5,17.5c4.8,4.7,11.2,7.3,18.1,7.3C347.6,180.1,354,177.5,358.8,172.8L358.8,172.8z"/>
</svg>
