<svg xmlns="http://www.w3.org/2000/svg" width="22" height="22" viewBox="0 0 22 22">
  <metadata><?xpacket begin="﻿" id="W5M0MpCehiHzreSzNTczkc9d"?>
<x:xmpmeta xmlns:x="adobe:ns:meta/" x:xmptk="Adobe XMP Core 5.6-c142 79.160924, 2017/07/13-01:06:39        ">
   <rdf:RDF xmlns:rdf="http://www.w3.org/1999/02/22-rdf-syntax-ns#">
      <rdf:Description rdf:about=""/>
   </rdf:RDF>
</x:xmpmeta>
                                                                                                    
                                                                                                    
                                                                                                    
                                                                                                    
                                                                                                    
                                                                                                    
                                                                                                    
                                                                                                    
                                                                                                    
                                                                                                    
                                                                                                    
                                                                                                    
                                                                                                    
                                                                                                    
                                                                                                    
                                                                                                    
                                                                                                    
                                                                                                    
                                                                                                    
                                                                                                    
                           
<?xpacket end="w"?></metadata>
<defs>
    <style>
      .cls-1 {
        fill-rule: evenodd;
      }
    </style>
  </defs>
  <path class="cls-1" d="M618.739,291.563a2.959,2.959,0,0,0-2.111-.858h-0.036a3.012,3.012,0,0,0-2.046,5.148,2.947,2.947,0,0,0,2.087.864h0.052a2.957,2.957,0,0,0,2.1-.9A3.023,3.023,0,0,0,618.739,291.563Zm-0.939,3.281a1.585,1.585,0,0,1-1.121.486h-0.027a1.619,1.619,0,0,1-.044-3.237h0.053a1.588,1.588,0,0,1,1.115.461A1.63,1.63,0,0,1,617.8,294.844ZM628,304.05c0-.012,0-0.024,0-0.036a2.433,2.433,0,0,0-.022-0.256c-0.007-.053-0.017-0.106-0.027-0.159q-0.011-.05-0.024-0.1c-0.343-1.41-1.951-2.6-4.509-3.357l-0.186-.055-0.278-.076c-0.178-.047-0.358-0.093-0.543-0.136l-0.074-.016q-0.273-.062-0.556-0.116l-0.106-.023v0c-0.208-.039-0.425-0.071-0.64-0.1,0.535-.816.977-1.5,1.192-1.854a6.991,6.991,0,0,0,1.086-4.116,6.688,6.688,0,0,0-6.655-6.644H616.59a6.691,6.691,0,0,0-6.6,6.768,7,7,0,0,0,1.163,4.1c0.228,0.36.705,1.068,1.278,1.908-0.063.012-.128,0.021-0.19,0.034v0c-0.022,0-.043.011-0.065,0.015q-0.311.066-.609,0.14l-0.149.038c-0.144.037-.285,0.075-0.424,0.115l-0.249.071-0.177.056c-2.575.8-4.184,2.03-4.507,3.454-0.008.036-.016,0.071-0.023,0.106-0.009.052-.018,0.1-0.024,0.157a2.4,2.4,0,0,0-.018.269c0,0.009,0,.018,0,0.027s0,0,0,0,0,0,0,.008,0,0.024,0,.036a2.433,2.433,0,0,0,.022.256c0.007,0.053.017,0.106,0.027,0.159q0.01,0.05.024,0.1c0.343,1.41,1.951,2.6,4.509,3.357l0.186,0.055c0.092,0.026.184,0.052,0.278,0.076,0.178,0.048.358,0.093,0.543,0.136l0.074,0.016q0.273,0.061.556,0.117l0.106,0.022v0a24.389,24.389,0,0,0,4.506.4h0.211a24.485,24.485,0,0,0,4.706-.487v0l0.065-.015q0.311-.066.609-0.14c0.051-.012.1-0.026,0.149-0.038,0.143-.037.285-0.075,0.424-0.115l0.249-.071,0.177-.056c2.575-.8,4.184-2.029,4.507-3.454,0.008-.035.016-0.071,0.023-0.106,0.01-.052.018-0.1,0.024-0.157A2.414,2.414,0,0,0,628,304.09c0-.009,0-0.018,0-0.027s0,0,0,0S628,304.053,628,304.05Zm-16.626-10.289a5.28,5.28,0,1,1,10.559-.1,5.6,5.6,0,0,1-.884,3.378c-0.6.994-3.158,4.83-4.3,6.545-1.177-1.693-3.8-5.481-4.424-6.463A5.592,5.592,0,0,1,611.372,293.761Zm15.208,10.592c0,0.015-.01.031-0.015,0.047a1.414,1.414,0,0,1-.106.247c-0.009.017-.017,0.034-0.027,0.051a2.067,2.067,0,0,1-.191.271c-0.03.036-.066,0.071-0.1,0.106s-0.09.094-.139,0.14-0.122.112-.191,0.168c-0.014.012-.031,0.024-0.046,0.036a8.026,8.026,0,0,1-2.2,1.146l-0.009,0c-0.145.052-.294,0.1-0.447,0.152-0.1.032-.2,0.063-0.309,0.094s-0.224.066-.34,0.1c-0.212.057-.428,0.113-0.653,0.164l-0.07.016a22.905,22.905,0,0,1-4.7.516,21.045,21.045,0,0,1-6.145-.79c-0.11-.033-0.218-0.068-0.323-0.1-0.061-.02-0.12-0.041-0.18-0.062a7.985,7.985,0,0,1-2.093-1.045c-0.033-.024-0.066-0.048-0.1-0.073-0.06-.047-0.115-0.1-0.169-0.142s-0.119-.112-0.172-0.168c-0.025-.026-0.053-0.052-0.076-0.079a2.024,2.024,0,0,1-.2-0.274c-0.009-.015-0.016-0.029-0.024-0.043a1.41,1.41,0,0,1-.114-0.253c0-.014-0.01-0.028-0.014-0.042a1.044,1.044,0,0,1-.045-0.284,1.066,1.066,0,0,1,.039-0.283c0-.015.01-0.031,0.015-0.047a1.373,1.373,0,0,1,.106-0.246c0.009-.018.017-0.035,0.027-0.052a2.067,2.067,0,0,1,.191-0.271c0.03-.035.066-0.071,0.1-0.106s0.09-.093.139-0.14,0.122-.112.191-0.168c0.014-.012.031-0.024,0.046-0.036a8,8,0,0,1,2.2-1.145l0.009,0c0.145-.052.294-0.1,0.447-0.152,0.1-.032.2-0.063,0.309-0.094s0.224-.066.34-0.1c0.212-.057.428-0.112,0.653-0.164l0.07-.016c0.329-.073.68-0.135,1.038-0.194,1.34,1.948,2.791,4.031,2.893,4.176l0.575,0.825,0.559-.836c0.1-.149,1.544-2.305,2.86-4.3a18.064,18.064,0,0,1,2.925.6c0.11,0.033.217,0.068,0.323,0.1,0.061,0.02.12,0.041,0.18,0.062a7.969,7.969,0,0,1,2.093,1.045c0.033,0.024.067,0.048,0.1,0.073,0.06,0.047.115,0.095,0.169,0.143s0.119,0.111.172,0.168c0.025,0.026.053,0.051,0.076,0.078a2.024,2.024,0,0,1,.2.274c0.009,0.015.016,0.029,0.024,0.043a1.419,1.419,0,0,1,.114.254c0.005,0.014.01,0.027,0.014,0.041a1.044,1.044,0,0,1,.045.284A1.066,1.066,0,0,1,626.58,304.353Z" transform="translate(-606 -287)"/>
</svg>
