<svg xmlns="http://www.w3.org/2000/svg" width="21" height="21" viewBox="0 0 21 21">
  <metadata><?xpacket begin="﻿" id="W5M0MpCehiHzreSzNTczkc9d"?>
<x:xmpmeta xmlns:x="adobe:ns:meta/" x:xmptk="Adobe XMP Core 5.6-c140 79.160451, 2017/05/06-01:08:21        ">
   <rdf:RDF xmlns:rdf="http://www.w3.org/1999/02/22-rdf-syntax-ns#">
      <rdf:Description rdf:about=""/>
   </rdf:RDF>
</x:xmpmeta>
                                                                                                    
                                                                                                    
                                                                                                    
                                                                                                    
                                                                                                    
                                                                                                    
                                                                                                    
                                                                                                    
                                                                                                    
                                                                                                    
                                                                                                    
                                                                                                    
                                                                                                    
                                                                                                    
                                                                                                    
                                                                                                    
                                                                                                    
                                                                                                    
                                                                                                    
                                                                                                    
                           
<?xpacket end="w"?></metadata>
<defs>
    <style>
      .cls-1 {
        fill-rule: evenodd;
      }
    </style>
  </defs>
  <path class="cls-1" d="M625.712,441.949l-2.474-1.736a0.678,0.678,0,0,0-1.068.551v3.472a0.678,0.678,0,0,0,1.068.551l2.474-1.736A0.673,0.673,0,0,0,625.712,441.949Zm-1.273,4.88a0.68,0.68,0,0,0-.926.246,9.152,9.152,0,1,1,0-9.15,0.677,0.677,0,0,0,1.173-.676,10.5,10.5,0,1,0,0,10.5A0.673,0.673,0,0,0,624.439,446.829Zm-12.024-5a0.674,0.674,0,1,0,0,1.348h10.523v-1.348H612.415Z" transform="translate(-605 -432)"/>
</svg>
