<svg xmlns="http://www.w3.org/2000/svg" width="21" height="21" viewBox="0 0 21 21">
  <metadata><?xpacket begin="﻿" id="W5M0MpCehiHzreSzNTczkc9d"?>
<x:xmpmeta xmlns:x="adobe:ns:meta/" x:xmptk="Adobe XMP Core 5.6-c140 79.160451, 2017/05/06-01:08:21        ">
   <rdf:RDF xmlns:rdf="http://www.w3.org/1999/02/22-rdf-syntax-ns#">
      <rdf:Description rdf:about=""/>
   </rdf:RDF>
</x:xmpmeta>
                                                                                                    
                                                                                                    
                                                                                                    
                                                                                                    
                                                                                                    
                                                                                                    
                                                                                                    
                                                                                                    
                                                                                                    
                                                                                                    
                                                                                                    
                                                                                                    
                                                                                                    
                                                                                                    
                                                                                                    
                                                                                                    
                                                                                                    
                                                                                                    
                                                                                                    
                                                                                                    
                           
<?xpacket end="w"?></metadata>
<defs>
    <style>
      .cls-1 {
        fill-rule: evenodd;
      }
    </style>
  </defs>
  <path id="Shape_51_copy" data-name="Shape 51 copy" class="cls-1" d="M606.375,300.044h3.287a1.378,1.378,0,0,0,1.375-1.378v-3.289A1.378,1.378,0,0,0,609.662,294h-3.287A1.378,1.378,0,0,0,605,295.377v3.289A1.378,1.378,0,0,0,606.375,300.044Zm-0.325-4.667a0.325,0.325,0,0,1,.325-0.326h3.287a0.326,0.326,0,0,1,.326.326v3.289a0.326,0.326,0,0,1-.326.327h-3.287a0.325,0.325,0,0,1-.325-0.327v-3.289ZM605,306.147a1.378,1.378,0,0,0,1.375,1.377h3.287a1.378,1.378,0,0,0,1.375-1.377v-3.29a1.378,1.378,0,0,0-1.375-1.377h-3.287A1.378,1.378,0,0,0,605,302.857v3.29Zm1.05-3.294a0.325,0.325,0,0,1,.325-0.326h3.287a0.326,0.326,0,0,1,.326.326v3.29a0.326,0.326,0,0,1-.326.326h-3.287a0.325,0.325,0,0,1-.325-0.326v-3.29ZM605,313.623A1.378,1.378,0,0,0,606.375,315h3.287a1.378,1.378,0,0,0,1.375-1.377v-3.29a1.378,1.378,0,0,0-1.375-1.377h-3.287A1.378,1.378,0,0,0,605,310.333v3.29Zm1.05-3.29a0.325,0.325,0,0,1,.325-0.326h3.287a0.326,0.326,0,0,1,.326.326v3.29a0.326,0.326,0,0,1-.326.326h-3.287a0.325,0.325,0,0,1-.325-0.326v-3.29Zm19.423-14.982h-11.8a0.528,0.528,0,0,0,0,1.055h11.8A0.528,0.528,0,0,0,625.473,295.351Zm0,2.29h-11.8a0.528,0.528,0,0,0,0,1.056h11.8A0.528,0.528,0,0,0,625.473,297.641Zm0,5.186h-11.8a0.528,0.528,0,0,0,0,1.055h11.8A0.528,0.528,0,0,0,625.473,302.827Zm0,2.3h-11.8a0.528,0.528,0,0,0,0,1.055h11.8A0.528,0.528,0,0,0,625.473,305.122Zm0,5.186h-11.8a0.528,0.528,0,0,0,0,1.055h11.8A0.528,0.528,0,0,0,625.473,310.308ZM626,313.125a0.527,0.527,0,0,0-.527-0.527h-11.8a0.528,0.528,0,0,0,0,1.055h11.8A0.529,0.529,0,0,0,626,313.125Z" transform="translate(-605 -294)"/>
</svg>
