<svg xmlns="http://www.w3.org/2000/svg" width="18.97" height="15.906" viewBox="0 0 18.97 15.906">
  <metadata><?xpacket begin="﻿" id="W5M0MpCehiHzreSzNTczkc9d"?>
<x:xmpmeta xmlns:x="adobe:ns:meta/" x:xmptk="Adobe XMP Core 5.6-c140 79.160451, 2017/05/06-01:08:21        ">
   <rdf:RDF xmlns:rdf="http://www.w3.org/1999/02/22-rdf-syntax-ns#">
      <rdf:Description rdf:about=""/>
   </rdf:RDF>
</x:xmpmeta>
                                                                                                    
                                                                                                    
                                                                                                    
                                                                                                    
                                                                                                    
                                                                                                    
                                                                                                    
                                                                                                    
                                                                                                    
                                                                                                    
                                                                                                    
                                                                                                    
                                                                                                    
                                                                                                    
                                                                                                    
                                                                                                    
                                                                                                    
                                                                                                    
                                                                                                    
                                                                                                    
                           
<?xpacket end="w"?></metadata>
<defs>
    <style>
      .cls-1 {
        fill-rule: evenodd;
      }
    </style>
  </defs>
  <path class="cls-1" d="M1914.02,837.484a5.918,5.918,0,0,1-5.64-3.765h-3.16v-1.076h2.9a4.6,4.6,0,0,1-.04-0.646,4.894,4.894,0,0,1,.07-0.86h-2.93v-1.076h3.24a5.319,5.319,0,0,1,.93-1.506h-4.17v-1.076h5.43a6.263,6.263,0,0,1,3.36-.968,6.382,6.382,0,0,1,2.16.374v-2.741h-14.21v13.772a2.254,2.254,0,0,0,2.33,2.152h9.55a2.254,2.254,0,0,0,2.33-2.152v-0.8A6.367,6.367,0,0,1,1914.02,837.484Zm3.97-3.041a4.2,4.2,0,0,0,.8-2.446,4.79,4.79,0,1,0-4.78,4.411,5.006,5.006,0,0,0,2.85-.875l2.92,2.7,1.15-1.065Zm-3.98.889a3.345,3.345,0,1,1,3.61-3.335A3.485,3.485,0,0,1,1914.01,835.332Z" transform="translate(-1901.97 -824.156)"/>
</svg>
