<?xml version="1.0" encoding="utf-8"?>
<!-- Generator: Adobe Illustrator 22.1.0, SVG Export Plug-In . SVG Version: 6.00 Build 0)  -->
<svg version="1.1" id="Layer_1" xmlns="http://www.w3.org/2000/svg" xmlns:xlink="http://www.w3.org/1999/xlink" x="0px" y="0px"
	 viewBox="0 0 512 512" style="enable-background:new 0 0 512 512;" xml:space="preserve">
<g>
	<g>
		<g>
			<path d="M489.8,399.8c-0.3-9.6-4.4-18.5-11.5-24.9l-148-132.8l4.8-4.8c5.1-5,7.8-11.8,7.8-19c0-2.7-0.4-5.3-1.2-7.9l13-12.9
				c2.7,1,5.6,1.6,8.5,1.6c6.2,0,12.5-2.4,17.2-7.1l1.8-1.8c4.6-4.6,7.1-10.7,7.1-17.2c0-6.5-2.5-12.6-7.1-17.2L325,98.7
				c-9.5-9.5-24.9-9.5-34.4,0l-1.8,1.8c-3,3-5.2,6.7-6.3,10.8c-20.8-48.1-68.8-81.7-124.7-81.7C82.9,29.5,22.2,90,22.2,164.6
				c0,74.6,60.7,135.2,135.7,135.2c7.5,0,14.8-0.6,22-1.8l30,30c4.7,4.7,11,7.1,17.2,7.1c6.2,0,12.5-2.4,17.2-7.1l1.8-1.8
				c4.6-4.6,7.1-10.7,7.1-17.2c0-3-0.5-5.8-1.5-8.5l13-12.9c2.6,0.8,5.2,1.2,7.9,1.2c6.9,0,13.7-2.6,19-7.8l4.8-4.8L429.1,424
				c6.4,7.2,15.3,11.3,25,11.5c0.3,0,0.6,0,1,0c9.3,0,18-3.6,24.6-10.2C486.5,418.5,490.1,409.5,489.8,399.8z M299.8,111.4l1.8-1.8
				c1.7-1.7,4-2.6,6.2-2.6s4.5,0.9,6.2,2.6l57.2,57.2c1.7,1.7,2.6,3.9,2.6,6.2s-0.9,4.6-2.6,6.2h0l-1.8,1.8c-3.4,3.4-9,3.4-12.5,0
				l-57.2-57.2c-1.7-1.7-2.6-3.9-2.6-6.2C297.2,115.3,298.1,113.1,299.8,111.4z M292.6,138.7l49.5,49.5l-9.2,9.2l-39.6-39.6
				c-0.3-6-1-11.9-2.1-17.7L292.6,138.7z M49.3,164.6C49.3,105,98,56.5,157.8,56.5c25,0,48.1,8.6,66.4,22.8L72.2,230.8
				C57.9,212.5,49.3,189.6,49.3,164.6z M235.1,315.3L235.1,315.3l-1.8,1.8c-3.4,3.4-9,3.4-12.5,0l-23.2-23.2
				c7-2.2,13.9-4.9,20.4-8.1l17,17c1.7,1.7,2.6,3.9,2.6,6.2S236.7,313.6,235.1,315.3z M242.2,288L232,277.8c3.7-2.4,7.2-5,10.7-7.7
				l8.7,8.7L242.2,288z M235,240.5c-3.6,3.7-7.6,7.1-11.7,10.3c-3.5,2.7-7.2,5.1-11,7.3c-4.7,2.7-9.7,5.1-14.8,7.2
				c-7.1,2.8-14.6,4.9-22.4,6.1c-5.6,0.9-11.4,1.4-17.3,1.4c-1.1,0-2.2,0-3.4-0.1c-23.7-0.7-45.5-9.1-63.1-22.8L243.5,98.4
				c9,11.6,15.8,24.9,19.5,39.5c1.4,5.2,2.3,10.6,2.8,16.1c0.4,3.5,0.5,7.1,0.5,10.6C266.4,194.2,254.4,221,235,240.5z M291,259.3
				l-10.6,10.6c-4.2,4.2-11.8,4.2-16,0l-10.2-10.2c21.1-21.2,35.2-49.3,38.5-80.6l31.3,31.3c2.1,2.1,3.3,5,3.3,8c0,3-1.2,5.9-3.3,8
				l-10.6,10.6c0,0,0,0,0,0L291,259.3z M468.6,414.4c-3.8,3.8-8.6,5.8-14.1,5.6c-5.3-0.1-10.2-2.4-13.8-6.4L307.2,265.1l6.4-6.4
				l5.6-5.6l148.7,133.3c4,3.6,6.2,8.5,6.4,13.8C474.4,405.6,472.4,410.6,468.6,414.4z M353.7,421.3h-18.3v-10.6
				c0-15.1-12.3-27.5-27.5-27.5H164.3c-15.2,0-27.5,12.3-27.5,27.5v10.6h-18.3c-15.1,0-27.5,12.3-27.5,27.5v26
				c0,4.3,3.5,7.8,7.8,7.8h274.6c4.3,0,7.8-3.5,7.8-7.8v-26C381.2,433.6,368.8,421.3,353.7,421.3z M152.3,410.6
				c0-6.6,5.4-11.9,11.9-11.9h143.7c6.6,0,11.9,5.4,11.9,11.9v10.6H152.3V410.6z M365.6,467H106.6v-18.3c0-6.6,5.4-11.9,11.9-11.9
				h235.2c6.6,0,11.9,5.3,11.9,11.9V467z"/>
		</g>
	</g>
</g>
</svg>
