<?xml version="1.0" encoding="utf-8"?>
<!-- Generator: Adobe Illustrator 22.1.0, SVG Export Plug-In . SVG Version: 6.00 Build 0)  -->
<svg version="1.1" id="Layer_1" xmlns="http://www.w3.org/2000/svg" xmlns:xlink="http://www.w3.org/1999/xlink" x="0px" y="0px"
	 viewBox="0 0 500 500" style="enable-background:new 0 0 500 500;" xml:space="preserve">
<style type="text/css">
	.st0{fill:#231F20;}
</style>
<path class="st0" d="M406.8,55.3v146.4c0,17.6-13.8,31.8-30.9,31.8h-75.6v73.3h-30.9v-73.3h-75.6c-17,0-30.9-14.3-30.9-31.8V55.3
	c0-17.6,13.8-31.8,30.9-31.8h182.1C393,23.5,406.8,37.7,406.8,55.3z M367.7,86.3l-21.8-22.5l-83.2,85.8l-32.3-33.3l-21.8,22.5
	l54.1,55.8L367.7,86.3z M124.7,343.2H93.2L109.9,457h14.8V343.2z M339.2,339.4c0-10.6-8.3-19.1-18.5-19.1c0,0-33.5,0-52.5,0
	c-19,0-23.9-13.4-18.3-13.4h6.3v-17.5l-14.1-5.6c-6.6-2.3-13.6-0.5-18.4,4.1l-58.5,61.4h-29v101.9h38.9c0,0,25.3,25.5,52.5,25.5
	c7.1,0,74.5,0,74.5,0c10.2,0,18.5-8.6,18.5-19.1c0-7.6-4.3-14.1-10.5-17.2c0,0,8.5-5.6,9.1-5.9c5.3-3.4,8.9-9.4,8.9-16.3
	c0-7.5-4.3-14-10.4-17.1l8.5-5.8c5.5-3.3,9.3-9.4,9.3-16.5c0-8.4-5.2-15.4-12.5-18l8.4-5.8C336.1,351.4,339.2,345.8,339.2,339.4z"/>
</svg>
