<svg xmlns="http://www.w3.org/2000/svg" width="25" height="24" viewBox="0 0 25 24">
  <metadata><?xpacket begin="﻿" id="W5M0MpCehiHzreSzNTczkc9d"?>
<x:xmpmeta xmlns:x="adobe:ns:meta/" x:xmptk="Adobe XMP Core 5.6-c140 79.160451, 2017/05/06-01:08:21        ">
   <rdf:RDF xmlns:rdf="http://www.w3.org/1999/02/22-rdf-syntax-ns#">
      <rdf:Description rdf:about=""/>
   </rdf:RDF>
</x:xmpmeta>
                                                                                                    
                                                                                                    
                                                                                                    
                                                                                                    
                                                                                                    
                                                                                                    
                                                                                                    
                                                                                                    
                                                                                                    
                                                                                                    
                                                                                                    
                                                                                                    
                                                                                                    
                                                                                                    
                                                                                                    
                                                                                                    
                                                                                                    
                                                                                                    
                                                                                                    
                                                                                                    
                           
<?xpacket end="w"?></metadata>
<defs>
    <style>
      .cls-1 {
        fill-rule: evenodd;
      }
    </style>
  </defs>
  <path class="cls-1" d="M2290.52,712.544a2,2,0,0,1,.27,1.049,2.208,2.208,0,0,1-.56,1.535,2.389,2.389,0,0,1-1.6.724V716.9h-0.88v-1.046a2.324,2.324,0,0,1-2.16-2.007l1.37-.355a1.2,1.2,0,0,0,1.27,1.151,0.954,0.954,0,0,0,.73-0.247,0.82,0.82,0,0,0,.24-0.594,0.645,0.645,0,0,0-.24-0.546,4.035,4.035,0,0,0-1.05-.472,5.842,5.842,0,0,1-1.14-.5,1.825,1.825,0,0,1-.67-0.686,2.044,2.044,0,0,1-.26-1.033,2.315,2.315,0,0,1,.46-1.39,2.076,2.076,0,0,1,1.45-.754v-0.812h0.88v0.812a2.136,2.136,0,0,1,1.93,1.669l-1.22.5a1.233,1.233,0,0,0-1.11-1.023,0.8,0.8,0,0,0-.6.228,0.768,0.768,0,0,0-.23.555,0.611,0.611,0,0,0,.22.51,3.805,3.805,0,0,0,.94.438,8.267,8.267,0,0,1,1.24.542A1.949,1.949,0,0,1,2290.52,712.544Zm5.48-.286a7.81,7.81,0,1,1-7.81-7.742A7.778,7.778,0,0,1,2296,712.258Zm-1.56,0a6.25,6.25,0,1,0-6.25,6.194A6.233,6.233,0,0,0,2294.44,712.258Zm-10.94-13.935h9.38a0.7,0.7,0,0,0,.78-0.581V696.58a0.7,0.7,0,0,0-.78-0.58h-9.38a0.7,0.7,0,0,0-.78.58v1.162A0.7,0.7,0,0,0,2283.5,698.323Zm0,3.1h9.38a0.7,0.7,0,0,0,.78-0.58v-1.161a0.7,0.7,0,0,0-.78-0.581h-9.38a0.7,0.7,0,0,0-.78.581v1.161A0.7,0.7,0,0,0,2283.5,701.419ZM2271.78,716.9h9.21a8.664,8.664,0,0,1-1.06-2.322h-8.15a0.7,0.7,0,0,0-.78.581v1.16A0.7,0.7,0,0,0,2271.78,716.9Zm9.38,0.774h-9.38a0.7,0.7,0,0,0-.78.581v1.161a0.7,0.7,0,0,0,.78.581h9.38a0.7,0.7,0,0,0,.78-0.581v-1.161A0.7,0.7,0,0,0,2281.16,717.677Zm-9.38-3.87h7.96a8.793,8.793,0,0,1-.15-1.549c0-.261.02-0.519,0.04-0.774h-7.85a0.7,0.7,0,0,0-.78.58v1.162A0.7,0.7,0,0,0,2271.78,713.807Zm11.72-9.291h1.13a8.574,8.574,0,0,1,7.12,0h1.13a0.7,0.7,0,0,0,.78-0.581v-1.161a0.7,0.7,0,0,0-.78-0.581h-9.38a0.7,0.7,0,0,0-.78.581v1.161A0.7,0.7,0,0,0,2283.5,704.516Zm-11.72,0h9.38a0.7,0.7,0,0,0,.78-0.581v-1.161a0.7,0.7,0,0,0-.78-0.581h-9.38a0.7,0.7,0,0,0-.78.581v1.161A0.7,0.7,0,0,0,2271.78,704.516Zm0,6.194h7.96a8.724,8.724,0,0,1,.8-2.323h-8.76a0.7,0.7,0,0,0-.78.58v1.162A0.7,0.7,0,0,0,2271.78,710.71Zm0-3.1h9.21a8.459,8.459,0,0,1,.95-1.183v-0.559a0.7,0.7,0,0,0-.78-0.581h-9.38a0.7,0.7,0,0,0-.78.581v1.161A0.7,0.7,0,0,0,2271.78,707.613Z" transform="translate(-2271 -696)"/>
</svg>
