<svg xmlns="http://www.w3.org/2000/svg" width="12.41" height="18.031" viewBox="0 0 12.41 18.031">
  <metadata><?xpacket begin="﻿" id="W5M0MpCehiHzreSzNTczkc9d"?>
<x:xmpmeta xmlns:x="adobe:ns:meta/" x:xmptk="Adobe XMP Core 5.6-c140 79.160451, 2017/05/06-01:08:21        ">
   <rdf:RDF xmlns:rdf="http://www.w3.org/1999/02/22-rdf-syntax-ns#">
      <rdf:Description rdf:about=""/>
   </rdf:RDF>
</x:xmpmeta>
                                                                                                    
                                                                                                    
                                                                                                    
                                                                                                    
                                                                                                    
                                                                                                    
                                                                                                    
                                                                                                    
                                                                                                    
                                                                                                    
                                                                                                    
                                                                                                    
                                                                                                    
                                                                                                    
                                                                                                    
                                                                                                    
                                                                                                    
                                                                                                    
                                                                                                    
                                                                                                    
                           
<?xpacket end="w"?></metadata>
<defs>
    <style>
      .cls-1 {
        fill-rule: evenodd;
      }
    </style>
  </defs>
  <path id="Shape_12_copy" data-name="Shape 12 copy" class="cls-1" d="M1411.8,171.938c0.01,0,.01,0,0.01.005,0.11,0.1.22,0.195,0.32,0.278,1.46-1.236,5.13-4.684,5.13-8.089a5.172,5.172,0,0,0-5.09-5.131h-0.07a5.174,5.174,0,0,0-5.1,5.131C1407,167.306,1410.19,170.516,1411.8,171.938Zm-2.31-8.321a2.69,2.69,0,1,1,2.69,2.661A2.68,2.68,0,0,1,1409.49,163.617Zm5.27,8.526c-0.38.385-.75,0.723-1.07,1.007,2.23,0.225,3.55.917,3.55,1.328,0,0.494-1.91,1.4-5.04,1.4s-5.03-.907-5.03-1.4c0-.4,1.26-1.078,3.41-1.316-0.31-.28-0.67-0.616-1.06-1-1.97.361-3.51,1.141-3.51,2.313,0,1.671,3.12,2.545,6.19,2.545s6.2-.874,6.2-2.545C1418.4,173.281,1416.8,172.494,1414.76,172.143Z" transform="translate(-1406 -159)"/>
</svg>
