<svg xmlns="http://www.w3.org/2000/svg" width="25" height="20" viewBox="0 0 25 20">
  <metadata><?xpacket begin="﻿" id="W5M0MpCehiHzreSzNTczkc9d"?>
<x:xmpmeta xmlns:x="adobe:ns:meta/" x:xmptk="Adobe XMP Core 5.6-c140 79.160451, 2017/05/06-01:08:21        ">
   <rdf:RDF xmlns:rdf="http://www.w3.org/1999/02/22-rdf-syntax-ns#">
      <rdf:Description rdf:about=""/>
   </rdf:RDF>
</x:xmpmeta>
                                                                                                    
                                                                                                    
                                                                                                    
                                                                                                    
                                                                                                    
                                                                                                    
                                                                                                    
                                                                                                    
                                                                                                    
                                                                                                    
                                                                                                    
                                                                                                    
                                                                                                    
                                                                                                    
                                                                                                    
                                                                                                    
                                                                                                    
                                                                                                    
                                                                                                    
                                                                                                    
                           
<?xpacket end="w"?></metadata>
<defs>
    <style>
      .cls-1 {
        fill-rule: evenodd;
      }
    </style>
  </defs>
  <path class="cls-1" d="M518.549,584H502.568a0.575,0.575,0,0,1-.568-0.581v-7.986a0.575,0.575,0,0,1,.568-0.58h0.718a0.581,0.581,0,0,1,0,1.161h-0.149v6.825h14.844V582.7a0.569,0.569,0,1,1,1.137,0v0.721A0.575,0.575,0,0,1,518.549,584Zm7.882-.965H521.46a0.581,0.581,0,0,1,0-1.161h4.4V565.161H512.412v4.982a0.569,0.569,0,1,1-1.138,0v-5.562a0.575,0.575,0,0,1,.569-0.581h14.588a0.575,0.575,0,0,1,.569.581v17.874A0.575,0.575,0,0,1,526.431,583.035Zm-4.971-1.974H505.479a0.574,0.574,0,0,1-.568-0.58V572.5a0.574,0.574,0,0,1,.568-0.581H521.46a0.575,0.575,0,0,1,.569.581v7.986A0.575,0.575,0,0,1,521.46,581.061ZM506.048,579.9h14.844v-6.825H506.048V579.9Zm17.768,0.721a0.569,0.569,0,0,1-.515-0.335,0.586,0.586,0,0,1,.274-0.772,0.854,0.854,0,0,0,0-1.339,0.586,0.586,0,0,1-.274-0.772,0.564,0.564,0,0,1,.757-0.279,2,2,0,0,1,0,3.442A0.569,0.569,0,0,1,523.816,580.621Zm-10.346-1.958a2.176,2.176,0,1,1,2.13-2.175A2.156,2.156,0,0,1,513.47,578.663Zm0-3.19a1.015,1.015,0,1,0,.993,1.015A1.006,1.006,0,0,0,513.47,575.473Zm5.477,1.6h-1.464a0.581,0.581,0,0,1,0-1.161h1.464A0.581,0.581,0,0,1,518.947,577.068Zm-9.49,0h-1.464a0.581,0.581,0,0,1,0-1.161h1.464A0.581,0.581,0,0,1,509.457,577.068Zm13.687-6.983h-8.013a0.581,0.581,0,0,1,0-1.161h8.013A0.581,0.581,0,0,1,523.144,570.085Zm-1.55-2.383h-4.95a0.581,0.581,0,0,1,0-1.161h4.95A0.581,0.581,0,0,1,521.594,567.7Z" transform="translate(-502 -564)"/>
</svg>
