<svg xmlns="http://www.w3.org/2000/svg" width="15" height="21" viewBox="0 0 15 21">
  <metadata><?xpacket begin="﻿" id="W5M0MpCehiHzreSzNTczkc9d"?>
<x:xmpmeta xmlns:x="adobe:ns:meta/" x:xmptk="Adobe XMP Core 5.6-c140 79.160451, 2017/05/06-01:08:21        ">
   <rdf:RDF xmlns:rdf="http://www.w3.org/1999/02/22-rdf-syntax-ns#">
      <rdf:Description rdf:about=""/>
   </rdf:RDF>
</x:xmpmeta>
                                                                                                    
                                                                                                    
                                                                                                    
                                                                                                    
                                                                                                    
                                                                                                    
                                                                                                    
                                                                                                    
                                                                                                    
                                                                                                    
                                                                                                    
                                                                                                    
                                                                                                    
                                                                                                    
                                                                                                    
                                                                                                    
                                                                                                    
                                                                                                    
                                                                                                    
                                                                                                    
                           
<?xpacket end="w"?></metadata>
<defs>
    <style>
      .cls-1 {
        fill-rule: evenodd;
      }
    </style>
  </defs>
  <path class="cls-1" d="M1832.57,956.912a2.619,2.619,0,1,0-2.67-2.619A2.641,2.641,0,0,0,1832.57,956.912Zm0-4.489a1.871,1.871,0,1,1-1.91,1.87A1.886,1.886,0,0,1,1832.57,952.423Zm0,4.676a2.806,2.806,0,1,1,2.85-2.806A2.835,2.835,0,0,1,1832.57,957.1Zm0-5.238a2.432,2.432,0,1,0,2.47,2.432A2.458,2.458,0,0,0,1832.57,951.861Zm0,4.49a2.058,2.058,0,1,1,2.09-2.058A2.08,2.08,0,0,1,1832.57,956.351Zm0-3.741a1.684,1.684,0,1,0,1.71,1.683A1.7,1.7,0,0,0,1832.57,952.61Zm-0.07,15.061,5.84-8.29a8.056,8.056,0,0,0-.67-10.1,7.411,7.411,0,0,0-10.34,0,8.055,8.055,0,0,0-.68,10.084Zm-4.63-17.856a6.636,6.636,0,0,1,9.26,0,7.29,7.29,0,0,1,.6,9.129l-5.23,7.412-5.24-7.424A7.288,7.288,0,0,1,1827.87,949.815ZM1832.5,968l-6.01-8.524a8.236,8.236,0,0,1,.71-10.322,7.592,7.592,0,0,1,10.6,0,8.258,8.258,0,0,1,.7,10.339Zm0-20.628a7.125,7.125,0,0,0-5.03,2.047,7.853,7.853,0,0,0-.67,9.839l5.7,8.084,5.69-8.067a7.875,7.875,0,0,0-.66-9.856A7.125,7.125,0,0,0,1832.5,947.372Zm0,19.313-5.39-7.646a7.47,7.47,0,0,1,.63-9.356h0a6.817,6.817,0,0,1,9.52,0,7.479,7.479,0,0,1,.62,9.373Zm-4.49-16.738a7.075,7.075,0,0,0-.59,8.874l5.08,7.207,5.07-7.191a7.083,7.083,0,0,0-.58-8.89,6.431,6.431,0,0,0-8.98,0h0Z" transform="translate(-1825 -947)"/>
</svg>
