<?xml version="1.0" encoding="utf-8"?>
<!-- Generator: Adobe Illustrator 22.0.1, SVG Export Plug-In . SVG Version: 6.00 Build 0)  -->
<svg version="1.1" id="Capa_1" xmlns="http://www.w3.org/2000/svg" xmlns:xlink="http://www.w3.org/1999/xlink" x="0px" y="0px"
	 viewBox="0 0 500 500" style="enable-background:new 0 0 500 500;" xml:space="preserve">
<g>
	<g>
		<path d="M250,135.7L78.2,277.3c0,0.2-0.1,0.5-0.2,0.9c-0.1,0.4-0.2,0.7-0.2,0.9v143.4c0,5.2,1.9,9.7,5.7,13.4
			c3.8,3.8,8.3,5.7,13.4,5.7h114.7V326.9h76.5v114.7H403c5.2,0,9.7-1.9,13.4-5.7c3.8-3.8,5.7-8.3,5.7-13.4V279.1
			c0-0.8-0.1-1.4-0.3-1.8L250,135.7z"/>
		<path d="M487.5,245.1l-65.4-54.4V68.8c0-2.8-0.9-5.1-2.7-6.9c-1.8-1.8-4.1-2.7-6.9-2.7h-57.4c-2.8,0-5.1,0.9-6.9,2.7
			c-1.8,1.8-2.7,4.1-2.7,6.9V127l-72.9-61c-6.4-5.2-13.9-7.8-22.7-7.8c-8.8,0-16.3,2.6-22.7,7.8l-214.8,179c-2,1.6-3.1,3.7-3.3,6.4
			c-0.2,2.7,0.5,5,2.1,7l18.5,22.1c1.6,1.8,3.7,2.9,6.3,3.3c2.4,0.2,4.8-0.5,7.2-2.1L250,109.4l206.8,172.4c1.6,1.4,3.7,2.1,6.3,2.1
			h0.9c2.6-0.4,4.7-1.5,6.3-3.3l18.5-22.1c1.6-2,2.3-4.3,2.1-7C490.6,248.8,489.5,246.7,487.5,245.1z"/>
	</g>
</g>
</svg>
