<svg xmlns="http://www.w3.org/2000/svg" width="31" height="31" viewBox="0 0 31 31">
  <metadata><?xpacket begin="﻿" id="W5M0MpCehiHzreSzNTczkc9d"?>
<x:xmpmeta xmlns:x="adobe:ns:meta/" x:xmptk="Adobe XMP Core 5.6-c140 79.160451, 2017/05/06-01:08:21        ">
   <rdf:RDF xmlns:rdf="http://www.w3.org/1999/02/22-rdf-syntax-ns#">
      <rdf:Description rdf:about=""/>
   </rdf:RDF>
</x:xmpmeta>
                                                                                                    
                                                                                                    
                                                                                                    
                                                                                                    
                                                                                                    
                                                                                                    
                                                                                                    
                                                                                                    
                                                                                                    
                                                                                                    
                                                                                                    
                                                                                                    
                                                                                                    
                                                                                                    
                                                                                                    
                                                                                                    
                                                                                                    
                                                                                                    
                                                                                                    
                                                                                                    
                           
<?xpacket end="w"?></metadata>
<defs>
    <style>
      .cls-1 {
        fill-rule: evenodd;
      }
    </style>
  </defs>
  <path class="cls-1" d="M1419.5,685a0.909,0.909,0,1,0,0,1.817,13.854,13.854,0,1,1-9.5,3.935v1.577a0.905,0.905,0,1,0,1.81,0V688.7a0.911,0.911,0,0,0-.91-0.909h-3.66a0.906,0.906,0,1,0,0,1.812h1.33A15.438,15.438,0,1,0,1419.5,685Zm0,5.512a10,10,0,1,0,9.99,10A10,10,0,0,0,1419.5,690.512Zm6.38,15.1-0.6-.6a0.907,0.907,0,1,0-1.28,1.284l0.6,0.6a8.159,8.159,0,0,1-4.19,1.741v-0.858a0.91,0.91,0,0,0-1.82,0v0.858a8.159,8.159,0,0,1-4.19-1.741l0.6-.6a0.907,0.907,0,1,0-1.28-1.284l-0.6.6a8.107,8.107,0,0,1-1.74-4.192h0.85a0.909,0.909,0,1,0,0-1.818h-0.85a8.107,8.107,0,0,1,1.74-4.192l0.6,0.6a0.907,0.907,0,1,0,1.28-1.285l-0.6-.6a8.159,8.159,0,0,1,4.19-1.741v0.858a0.91,0.91,0,0,0,1.82,0V692.38a8.159,8.159,0,0,1,4.19,1.741l-0.6.6a0.907,0.907,0,1,0,1.28,1.285l0.6-.6a8.107,8.107,0,0,1,1.74,4.192h-0.85a0.906,0.906,0,1,0,0,1.812h0.85A8.127,8.127,0,0,1,1425.88,705.608Zm-3.92-3.926-1.55-1.551v-3.258a0.91,0.91,0,0,0-1.82,0v3.634a0.916,0.916,0,0,0,.27.643l1.81,1.817A0.91,0.91,0,0,0,1421.96,701.682Z" transform="translate(-1404 -685)"/>
</svg>
