<?xml version="1.0" encoding="utf-8"?>
<!-- Generator: Adobe Illustrator 21.1.0, SVG Export Plug-In . SVG Version: 6.00 Build 0)  -->
<svg version="1.1" id="Layer_1" xmlns="http://www.w3.org/2000/svg" xmlns:xlink="http://www.w3.org/1999/xlink" x="0px" y="0px"
	 viewBox="0 0 500 500" style="enable-background:new 0 0 500 500;" xml:space="preserve">
<path d="M250,16.4C121.3,16.4,16.6,121.2,16.6,250c0,128.8,104.7,233.6,233.4,233.6c128.7,0,233.4-104.8,233.4-233.6
	C483.4,121.2,378.7,16.4,250,16.4z M308,258.2h-38c0,60.7,0,135.5,0,135.5h-56.3c0,0,0-74,0-135.5h-26.7v-47.9h26.7v-31
	c0-22.2,10.5-56.8,56.8-56.8l41.7,0.2v46.5c0,0-25.3,0-30.3,0c-4.9,0-11.9,2.5-11.9,13v28.1H313L308,258.2z"/>
</svg>
