<svg xmlns="http://www.w3.org/2000/svg" width="19" height="17" viewBox="0 0 19 17">
  <metadata><?xpacket begin="﻿" id="W5M0MpCehiHzreSzNTczkc9d"?>
<x:xmpmeta xmlns:x="adobe:ns:meta/" x:xmptk="Adobe XMP Core 5.6-c140 79.160451, 2017/05/06-01:08:21        ">
   <rdf:RDF xmlns:rdf="http://www.w3.org/1999/02/22-rdf-syntax-ns#">
      <rdf:Description rdf:about=""/>
   </rdf:RDF>
</x:xmpmeta>
                                                                                                    
                                                                                                    
                                                                                                    
                                                                                                    
                                                                                                    
                                                                                                    
                                                                                                    
                                                                                                    
                                                                                                    
                                                                                                    
                                                                                                    
                                                                                                    
                                                                                                    
                                                                                                    
                                                                                                    
                                                                                                    
                                                                                                    
                                                                                                    
                                                                                                    
                                                                                                    
                           
<?xpacket end="w"?></metadata>
<defs>
    <style>
      .cls-1 {
        fill-rule: evenodd;
      }
    </style>
  </defs>
  <path class="cls-1" d="M2270.98,354.467a0.34,0.34,0,0,0-.27-0.217l-6.15-.84-2.76-5.236a0.342,0.342,0,0,0-.6,0l-2.76,5.236-6.15.84a0.341,0.341,0,0,0-.27.218,0.306,0.306,0,0,0,.08.326l4.46,4.076-1.06,5.756a0.325,0.325,0,0,0,.14.312,0.356,0.356,0,0,0,.36.024l5.5-2.717,5.5,2.717a0.373,0.373,0,0,0,.16.037,0.354,0.354,0,0,0,.2-0.061,0.3,0.3,0,0,0,.13-0.312l-1.05-5.756,4.46-4.076A0.308,0.308,0,0,0,2270.98,354.467Z" transform="translate(-2252 -348)"/>
</svg>
