<svg xmlns="http://www.w3.org/2000/svg" width="21" height="21" viewBox="0 0 21 21">
  <metadata><?xpacket begin="﻿" id="W5M0MpCehiHzreSzNTczkc9d"?>
<x:xmpmeta xmlns:x="adobe:ns:meta/" x:xmptk="Adobe XMP Core 5.6-c140 79.160451, 2017/05/06-01:08:21        ">
   <rdf:RDF xmlns:rdf="http://www.w3.org/1999/02/22-rdf-syntax-ns#">
      <rdf:Description rdf:about=""/>
   </rdf:RDF>
</x:xmpmeta>
                                                                                                    
                                                                                                    
                                                                                                    
                                                                                                    
                                                                                                    
                                                                                                    
                                                                                                    
                                                                                                    
                                                                                                    
                                                                                                    
                                                                                                    
                                                                                                    
                                                                                                    
                                                                                                    
                                                                                                    
                                                                                                    
                                                                                                    
                                                                                                    
                                                                                                    
                                                                                                    
                           
<?xpacket end="w"?></metadata>
<defs>
    <style>
      .cls-1 {
        fill-rule: evenodd;
      }
    </style>
  </defs>
  <path class="cls-1" d="M2272.68,286.762c-0.03-.03-0.05-0.059-0.08-0.087l-4.23-4.226a1.533,1.533,0,0,0-2.17,0l-0.47.468a0.859,0.859,0,0,0-.26.62,0.892,0.892,0,0,0,.13.451l-0.73.731-1.01-.788a0.877,0.877,0,0,0-1.16.075l-5.8,5.851a3.05,3.05,0,0,0-.42.429,0.877,0.877,0,0,0,1.31,1.163l0.28-.287a2.956,2.956,0,0,1,1.8-.413,5.032,5.032,0,0,1,1.16.143l-5.24,5.137c-0.09-.008-0.19-0.029-0.29-0.029a3.5,3.5,0,1,0,3.5,3.5c0-.139-0.03-0.269-0.04-0.4l4.93-4.843a2.874,2.874,0,0,1,.04.419,4.925,4.925,0,0,1-.73,2.592,0.873,0.873,0,0,0,.18,1.162,0.853,0.853,0,0,0,.55.2,0.866,0.866,0,0,0,.62-0.259l6.44-6.5a0.832,0.832,0,0,0,.25-0.63,0.863,0.863,0,0,0-.27-0.622l-0.55-.521,0.64-.641a0.887,0.887,0,0,0,.45.125,0.875,0.875,0,0,0,.62-0.256l0.47-.469a0.526,0.526,0,0,0,.08-0.1A1.715,1.715,0,0,0,2272.68,286.762Zm-14.44,10.583c-0.01-.016-0.03-0.028-0.04-0.044a3.474,3.474,0,0,0-.55-0.541c-0.02-.015-0.03-0.036-0.05-0.05l4.97-4.874a3.2,3.2,0,0,1,.63.643Zm12.18-9.73-1.25,1.259-2.99-2.99,1.26-1.26a0.911,0.911,0,0,0,.23-0.408l3.16,3.168A0.917,0.917,0,0,0,2270.42,287.615Z" transform="translate(-2252 -282)"/>
</svg>
