<?xml version="1.0" encoding="utf-8"?>
<!-- Generator: Adobe Illustrator 21.1.0, SVG Export Plug-In . SVG Version: 6.00 Build 0)  -->
<svg version="1.1" id="Layer_1" xmlns="http://www.w3.org/2000/svg" xmlns:xlink="http://www.w3.org/1999/xlink" x="0px" y="0px"
	 viewBox="0 0 500 500" style="enable-background:new 0 0 500 500;" xml:space="preserve">
<path d="M483.4,250c0-128.7-104.7-233.4-233.4-233.4C121.3,16.6,16.6,121.3,16.6,250S121.3,483.4,250,483.4
	C378.7,483.4,483.4,378.7,483.4,250z M243.6,371.1L126.9,199.9c-0.9-1.3-1.4-2.8-1.4-4.4c0-1.2,0.3-2.5,0.9-3.6
	c1.4-2.6,4-4.1,6.9-4.1h233.4c2.9,0,5.5,1.6,6.9,4.1c1.4,2.6,1.2,5.6-0.5,8L256.4,371.1c-1.4,2.1-3.9,3.4-6.4,3.4
	C247.4,374.5,245,373.2,243.6,371.1z"/>
</svg>
