<svg xmlns="http://www.w3.org/2000/svg" width="19" height="17" viewBox="0 0 19 17">
  <metadata><?xpacket begin="﻿" id="W5M0MpCehiHzreSzNTczkc9d"?>
<x:xmpmeta xmlns:x="adobe:ns:meta/" x:xmptk="Adobe XMP Core 5.6-c140 79.160451, 2017/05/06-01:08:21        ">
   <rdf:RDF xmlns:rdf="http://www.w3.org/1999/02/22-rdf-syntax-ns#">
      <rdf:Description rdf:about=""/>
   </rdf:RDF>
</x:xmpmeta>
                                                                                                    
                                                                                                    
                                                                                                    
                                                                                                    
                                                                                                    
                                                                                                    
                                                                                                    
                                                                                                    
                                                                                                    
                                                                                                    
                                                                                                    
                                                                                                    
                                                                                                    
                                                                                                    
                                                                                                    
                                                                                                    
                                                                                                    
                                                                                                    
                                                                                                    
                                                                                                    
                           
<?xpacket end="w"?></metadata>
<defs>
    <style>
      .cls-1 {
        fill-rule: evenodd;
      }
    </style>
  </defs>
  <path class="cls-1" d="M1554.52,312.636a0.4,0.4,0,0,0,.28-0.113l0.79-.773a0.371,0.371,0,0,0,0-.546,0.4,0.4,0,0,0-.56,0l-0.79.773a0.387,0.387,0,0,0,0,.546A0.4,0.4,0,0,0,1554.52,312.636Zm2.1-1.432-2.38,2.318a0.389,0.389,0,0,0,0,.547,0.4,0.4,0,0,0,.56,0l2.38-2.319a0.387,0.387,0,0,0,0-.546A0.4,0.4,0,0,0,1556.62,311.2Zm9.12-1.872a2.466,2.466,0,0,0-2.21-1.332h-7.67a5.217,5.217,0,0,0-3.85,1.686l-3.71,4.081a4.972,4.972,0,0,0-1.3,3.387l0.66,4.986a3.317,3.317,0,0,0,.96,1.9A3.375,3.375,0,0,0,1551,325h13.42a1.565,1.565,0,0,0,1.58-1.545V310.409A2.379,2.379,0,0,0,1565.74,309.332Zm-15.67,5.975,3.72-4.081a2.81,2.81,0,0,1,2.07-.908h7.67a0.108,0.108,0,0,1,.1.091V316.5h-14.22A2.331,2.331,0,0,1,1550.07,315.307Zm13.95,6.6h-14.25a0.387,0.387,0,1,1,0-.773h14.25A0.387,0.387,0,1,1,1564.02,321.909Zm0-2.318h-2.37a0.387,0.387,0,1,1,0-.773h2.37A0.387,0.387,0,1,1,1564.02,319.591Z" transform="translate(-1547 -308)"/>
</svg>
