<svg xmlns="http://www.w3.org/2000/svg" width="21" height="21" viewBox="0 0 21 21">
  <metadata><?xpacket begin="﻿" id="W5M0MpCehiHzreSzNTczkc9d"?>
<x:xmpmeta xmlns:x="adobe:ns:meta/" x:xmptk="Adobe XMP Core 5.6-c140 79.160451, 2017/05/06-01:08:21        ">
   <rdf:RDF xmlns:rdf="http://www.w3.org/1999/02/22-rdf-syntax-ns#">
      <rdf:Description rdf:about=""/>
   </rdf:RDF>
</x:xmpmeta>
                                                                                                    
                                                                                                    
                                                                                                    
                                                                                                    
                                                                                                    
                                                                                                    
                                                                                                    
                                                                                                    
                                                                                                    
                                                                                                    
                                                                                                    
                                                                                                    
                                                                                                    
                                                                                                    
                                                                                                    
                                                                                                    
                                                                                                    
                                                                                                    
                                                                                                    
                                                                                                    
                           
<?xpacket end="w"?></metadata>
<defs>
    <style>
      .cls-1 {
        fill-rule: evenodd;
      }
    </style>
  </defs>
  <path id="Shape_34_copy" data-name="Shape 34 copy" class="cls-1" d="M1418.59,200.5a0.644,0.644,0,0,1,.64-0.643h0.31a6.977,6.977,0,0,0-1.61-3.88l-0.21.217a0.643,0.643,0,1,1-.91-0.909l0.21-.217a7.029,7.029,0,0,0-3.88-1.61v0.309a0.64,0.64,0,1,1-1.28,0v-0.309a7.029,7.029,0,0,0-3.88,1.61l0.21,0.217a0.643,0.643,0,1,1-.91.909l-0.21-.217a6.977,6.977,0,0,0-1.61,3.88h0.31a0.643,0.643,0,0,1,0,1.285h-0.31a7.015,7.015,0,0,0,1.02,3.067h12.04a7.015,7.015,0,0,0,1.02-3.067h-0.31A0.643,0.643,0,0,1,1418.59,200.5Zm-2.64-2.54-1.71,1.709a1.929,1.929,0,1,1-1.74-1.1,1.894,1.894,0,0,1,.83.188l1.71-1.709A0.643,0.643,0,0,1,1415.95,197.96Zm-8.45,7.535a7.059,7.059,0,0,0,10,0h-10Zm5-15.5a10.5,10.5,0,1,0,10.5,10.5A10.5,10.5,0,0,0,1412.5,190Zm0,18.857a8.357,8.357,0,1,1,8.36-8.357A8.368,8.368,0,0,1,1412.5,208.857Z" transform="translate(-1402 -190)"/>
</svg>
