<svg xmlns="http://www.w3.org/2000/svg" width="31" height="31" viewBox="0 0 31 31">
  <metadata><?xpacket begin="﻿" id="W5M0MpCehiHzreSzNTczkc9d"?>
<x:xmpmeta xmlns:x="adobe:ns:meta/" x:xmptk="Adobe XMP Core 5.6-c140 79.160451, 2017/05/06-01:08:21        ">
   <rdf:RDF xmlns:rdf="http://www.w3.org/1999/02/22-rdf-syntax-ns#">
      <rdf:Description rdf:about=""/>
   </rdf:RDF>
</x:xmpmeta>
                                                                                                    
                                                                                                    
                                                                                                    
                                                                                                    
                                                                                                    
                                                                                                    
                                                                                                    
                                                                                                    
                                                                                                    
                                                                                                    
                                                                                                    
                                                                                                    
                                                                                                    
                                                                                                    
                                                                                                    
                                                                                                    
                                                                                                    
                                                                                                    
                                                                                                    
                                                                                                    
                           
<?xpacket end="w"?></metadata>
<defs>
    <style>
      .cls-1 {
        fill-rule: evenodd;
      }
    </style>
  </defs>
  <path class="cls-1" d="M1466.78,706.539a15.547,15.547,0,1,0-3.32,4.926A15.389,15.389,0,0,0,1466.78,706.539Zm-14.28,7.6a13.639,13.639,0,1,1,13.64-13.639A13.656,13.656,0,0,1,1452.5,714.139Zm6.02-17.009a0.951,0.951,0,0,0-.67-0.276h0a1,1,0,0,0-.7.289l-6.54,6.54-2.69-3.976a0.878,0.878,0,0,0-.74-0.4,1,1,0,0,0-.55.167,0.879,0.879,0,0,0-.38.559,0.981,0.981,0,0,0,.15.722l3.3,4.92a0.913,0.913,0,0,0,.73.386,1.028,1.028,0,0,0,.68-0.262l0.03-.032,7.37-7.3A0.934,0.934,0,0,0,1458.52,697.13Z" transform="translate(-1437 -685)"/>
</svg>
