<svg xmlns="http://www.w3.org/2000/svg" width="20" height="20" viewBox="0 0 20 20">
  <metadata><?xpacket begin="﻿" id="W5M0MpCehiHzreSzNTczkc9d"?>
<x:xmpmeta xmlns:x="adobe:ns:meta/" x:xmptk="Adobe XMP Core 5.6-c140 79.160451, 2017/05/06-01:08:21        ">
   <rdf:RDF xmlns:rdf="http://www.w3.org/1999/02/22-rdf-syntax-ns#">
      <rdf:Description rdf:about=""/>
   </rdf:RDF>
</x:xmpmeta>
                                                                                                    
                                                                                                    
                                                                                                    
                                                                                                    
                                                                                                    
                                                                                                    
                                                                                                    
                                                                                                    
                                                                                                    
                                                                                                    
                                                                                                    
                                                                                                    
                                                                                                    
                                                                                                    
                                                                                                    
                                                                                                    
                                                                                                    
                                                                                                    
                                                                                                    
                                                                                                    
                           
<?xpacket end="w"?></metadata>
<defs>
    <style>
      .cls-1 {
        fill-rule: evenodd;
      }
    </style>
  </defs>
  <path class="cls-1" d="M2267.18,459a0.771,0.771,0,0,0-.7.363,0.829,0.829,0,0,0-.08.778l1.66,4.167a0.846,0.846,0,0,0,.78.523h0.83v7.5a1.67,1.67,0,0,1-3.34,0V466.5a3.321,3.321,0,0,0-2.5-3.214v-3.453A0.825,0.825,0,0,0,2263,459h-8.33a0.84,0.84,0,0,0-.84.832v15a0.839,0.839,0,0,0-.83.836v2.5a0.838,0.838,0,0,0,.83.832h10.01a0.832,0.832,0,0,0,.83-0.832v-2.5a0.835,0.835,0,0,0-.83-0.832v-9.768a1.67,1.67,0,0,1,.83,1.434v5.83a3.33,3.33,0,1,0,6.66,0v-7.5h0.84A0.832,0.832,0,0,0,2273,464C2273.01,462.285,2271.79,459.028,2267.18,459Zm-10.01,2.5h3.33a0.84,0.84,0,0,1,.84.832v3.331a0.838,0.838,0,0,1-.84.832h-3.33a0.832,0.832,0,0,1-.83-0.832v-3.331h-0.01A0.838,0.838,0,0,1,2257.17,461.5Zm3.33,7.5a0.829,0.829,0,0,1-.83.832H2258a0.832,0.832,0,0,1,0-1.664h1.67A0.829,0.829,0,0,1,2260.5,469Zm2.5,8.33h-8.33V476.5H2263v0.831Z" transform="translate(-2253 -459)"/>
</svg>
