<?xml version="1.0" encoding="utf-8"?>
<!-- Generator: Adobe Illustrator 21.1.0, SVG Export Plug-In . SVG Version: 6.00 Build 0)  -->
<svg version="1.1" id="Layer_1" xmlns="http://www.w3.org/2000/svg" xmlns:xlink="http://www.w3.org/1999/xlink" x="0px" y="0px"
	 viewBox="0 0 500 500" style="enable-background:new 0 0 500 500;" xml:space="preserve">
<path d="M76.6,136.6c-11.7,43.7-5.7,89.4,16.9,128.6C123.6,317.5,179.7,350,240,350c22.7,0,45.3-4.7,66.2-13.6L394.1,489l35.1-20.3
	L341.3,316c30.2-22.6,51.9-54.5,61.8-91.6c11.7-43.7,5.7-89.4-16.9-128.6C356.1,43.5,300,11,239.7,11c-29.5,0-58.7,7.9-84.4,22.7
	C116.3,56.4,88.3,92.9,76.6,136.6z M239.7,51.7c45.8,0,88.5,24.7,111.4,64.4c17.2,29.8,21.7,64.5,12.8,97.7
	c-8.9,33.2-30.1,61-59.8,78.2c-19.5,11.3-41.7,17.3-64.1,17.3c-45.8,0-88.5-24.7-111.4-64.4c-17.2-29.8-21.7-64.5-12.8-97.7
	c8.9-33.2,30.1-61,59.8-78.2C195.2,57.6,217.3,51.7,239.7,51.7z"/>
</svg>
