<svg xmlns="http://www.w3.org/2000/svg" width="15" height="15" viewBox="0 0 15 15">
  <metadata><?xpacket begin="﻿" id="W5M0MpCehiHzreSzNTczkc9d"?>
<x:xmpmeta xmlns:x="adobe:ns:meta/" x:xmptk="Adobe XMP Core 5.6-c140 79.160451, 2017/05/06-01:08:21        ">
   <rdf:RDF xmlns:rdf="http://www.w3.org/1999/02/22-rdf-syntax-ns#">
      <rdf:Description rdf:about=""/>
   </rdf:RDF>
</x:xmpmeta>
                                                                                                    
                                                                                                    
                                                                                                    
                                                                                                    
                                                                                                    
                                                                                                    
                                                                                                    
                                                                                                    
                                                                                                    
                                                                                                    
                                                                                                    
                                                                                                    
                                                                                                    
                                                                                                    
                                                                                                    
                                                                                                    
                                                                                                    
                                                                                                    
                                                                                                    
                                                                                                    
                           
<?xpacket end="w"?></metadata>
<defs>
    <style>
      .cls-1 {
        fill-rule: evenodd;
      }
    </style>
  </defs>
  <path id="Shape_53_copy_3" data-name="Shape 53 copy 3" class="cls-1" d="M2427.5,280a7.5,7.5,0,1,0,7.5,7.5A7.5,7.5,0,0,0,2427.5,280Zm0,1.875a5.621,5.621,0,0,1,5.28,3.75h-10.56A5.621,5.621,0,0,1,2427.5,281.875Zm0,6.562a0.938,0.938,0,1,1,.94-0.937A0.938,0.938,0,0,1,2427.5,288.437Zm-5.62-.937c2.56,0,4.63,2.468,4.68,5.53A5.616,5.616,0,0,1,2421.88,287.5Zm6.56,5.53c0.05-3.062,2.12-5.53,4.69-5.53A5.624,5.624,0,0,1,2428.44,293.03Z" transform="translate(-2420 -280)"/>
</svg>
