<svg xmlns="http://www.w3.org/2000/svg" width="17" height="21" viewBox="0 0 17 21">
  <metadata><?xpacket begin="﻿" id="W5M0MpCehiHzreSzNTczkc9d"?>
<x:xmpmeta xmlns:x="adobe:ns:meta/" x:xmptk="Adobe XMP Core 5.6-c140 79.160451, 2017/05/06-01:08:21        ">
   <rdf:RDF xmlns:rdf="http://www.w3.org/1999/02/22-rdf-syntax-ns#">
      <rdf:Description rdf:about=""/>
   </rdf:RDF>
</x:xmpmeta>
                                                                                                    
                                                                                                    
                                                                                                    
                                                                                                    
                                                                                                    
                                                                                                    
                                                                                                    
                                                                                                    
                                                                                                    
                                                                                                    
                                                                                                    
                                                                                                    
                                                                                                    
                                                                                                    
                                                                                                    
                                                                                                    
                                                                                                    
                                                                                                    
                                                                                                    
                                                                                                    
                           
<?xpacket end="w"?></metadata>
<defs>
    <style>
      .cls-1 {
        fill-rule: evenodd;
      }
    </style>
  </defs>
  <path class="cls-1" d="M623,367.25a0.475,0.475,0,0,0-.154-0.342l-4.064-3.764h0a0.551,0.551,0,0,0-.375-0.144H607.118A1.08,1.08,0,0,0,606,364.035v18.93A1.079,1.079,0,0,0,607.117,384h14.765A1.08,1.08,0,0,0,623,382.965v-15.71A0.043,0.043,0,0,1,623,367.25Zm-4.062-2.571,2.251,2.085h-2.2a0.054,0.054,0,0,1-.055-0.052v-2.033h0Zm3,18.286a0.055,0.055,0,0,1-.056.052H607.118a0.055,0.055,0,0,1-.056-0.052v-18.93a0.055,0.055,0,0,1,.056-0.052h10.757v2.729a1.079,1.079,0,0,0,1.117,1.035h2.946v15.218h0Zm-2.74-13.238h-9.4a0.493,0.493,0,1,0,0,.984H619.2A0.493,0.493,0,1,0,619.2,369.727Zm0,2.967h-9.4a0.493,0.493,0,1,0,0,.984H619.2A0.493,0.493,0,1,0,619.2,372.694Zm0,2.967h-9.4a0.493,0.493,0,1,0,0,.984H619.2A0.493,0.493,0,1,0,619.2,375.661Zm-4.7,2.967h-4.7a0.493,0.493,0,1,0,0,.984h4.7A0.493,0.493,0,1,0,614.5,378.628Z" transform="translate(-606 -363)"/>
</svg>
