<svg xmlns="http://www.w3.org/2000/svg" width="23" height="22" viewBox="0 0 23 22">
  <metadata><?xpacket begin="﻿" id="W5M0MpCehiHzreSzNTczkc9d"?>
<x:xmpmeta xmlns:x="adobe:ns:meta/" x:xmptk="Adobe XMP Core 5.6-c140 79.160451, 2017/05/06-01:08:21        ">
   <rdf:RDF xmlns:rdf="http://www.w3.org/1999/02/22-rdf-syntax-ns#">
      <rdf:Description rdf:about=""/>
   </rdf:RDF>
</x:xmpmeta>
                                                                                                    
                                                                                                    
                                                                                                    
                                                                                                    
                                                                                                    
                                                                                                    
                                                                                                    
                                                                                                    
                                                                                                    
                                                                                                    
                                                                                                    
                                                                                                    
                                                                                                    
                                                                                                    
                                                                                                    
                                                                                                    
                                                                                                    
                                                                                                    
                                                                                                    
                                                                                                    
                           
<?xpacket end="w"?></metadata>
<defs>
    <style>
      .cls-1 {
        fill-rule: evenodd;
      }
    </style>
  </defs>
  <path class="cls-1" d="M1996.85,142h-5.07a0.764,0.764,0,0,0-.78.746v4.85a0.764,0.764,0,0,0,.78.746h5.07a0.764,0.764,0,0,0,.78-0.746v-4.85A0.764,0.764,0,0,0,1996.85,142Zm8.06,0h-5.07a0.764,0.764,0,0,0-.78.746v4.85a0.764,0.764,0,0,0,.78.746h5.07a0.764,0.764,0,0,0,.78-0.746v-4.85A0.764,0.764,0,0,0,2004.91,142Zm8.31,0h-5.07a0.764,0.764,0,0,0-.78.746v4.85a0.764,0.764,0,0,0,.78.746h5.07a0.764,0.764,0,0,0,.78-0.746v-4.85A0.764,0.764,0,0,0,2013.22,142Zm-16.37,7.834h-5.07a0.764,0.764,0,0,0-.78.746v4.85a0.764,0.764,0,0,0,.78.746h5.07a0.764,0.764,0,0,0,.78-0.746v-4.85A0.764,0.764,0,0,0,1996.85,149.829Zm8.06,0h-5.07a0.764,0.764,0,0,0-.78.746v4.85a0.764,0.764,0,0,0,.78.746h5.07a0.764,0.764,0,0,0,.78-0.746v-4.85A0.764,0.764,0,0,0,2004.91,149.829Zm8.31,0h-5.07a0.764,0.764,0,0,0-.78.746v4.85a0.764,0.764,0,0,0,.78.746h5.07a0.764,0.764,0,0,0,.78-0.746v-4.85A0.764,0.764,0,0,0,2013.22,149.829Zm-16.37,7.834h-5.07a0.765,0.765,0,0,0-.78.747v4.849a0.763,0.763,0,0,0,.78.746h5.07a0.763,0.763,0,0,0,.78-0.746V158.41A0.765,0.765,0,0,0,1996.85,157.663Zm8.06,0h-5.07a0.765,0.765,0,0,0-.78.747v4.849a0.763,0.763,0,0,0,.78.746h5.07a0.763,0.763,0,0,0,.78-0.746V158.41A0.765,0.765,0,0,0,2004.91,157.663Zm8.31,0h-5.07a0.765,0.765,0,0,0-.78.747v4.849a0.763,0.763,0,0,0,.78.746h5.07a0.763,0.763,0,0,0,.78-0.746V158.41A0.765,0.765,0,0,0,2013.22,157.663Z" transform="translate(-1991 -142)"/>
</svg>
