<svg xmlns="http://www.w3.org/2000/svg" width="20" height="22" viewBox="0 0 20 22">
  <metadata><?xpacket begin="﻿" id="W5M0MpCehiHzreSzNTczkc9d"?>
<x:xmpmeta xmlns:x="adobe:ns:meta/" x:xmptk="Adobe XMP Core 5.6-c140 79.160451, 2017/05/06-01:08:21        ">
   <rdf:RDF xmlns:rdf="http://www.w3.org/1999/02/22-rdf-syntax-ns#">
      <rdf:Description rdf:about=""/>
   </rdf:RDF>
</x:xmpmeta>
                                                                                                    
                                                                                                    
                                                                                                    
                                                                                                    
                                                                                                    
                                                                                                    
                                                                                                    
                                                                                                    
                                                                                                    
                                                                                                    
                                                                                                    
                                                                                                    
                                                                                                    
                                                                                                    
                                                                                                    
                                                                                                    
                                                                                                    
                                                                                                    
                                                                                                    
                                                                                                    
                           
<?xpacket end="w"?></metadata>
<defs>
    <style>
      .cls-1 {
        fill-rule: evenodd;
      }
    </style>
  </defs>
  <path class="cls-1" d="M2268.36,573.45v-3.826l2.09,2.1a0.891,0.891,0,0,0,.64.268,0.917,0.917,0,0,0,.64-1.565l-3.37-3.4v-0.321a9.684,9.684,0,0,0-1-4.294,0.908,0.908,0,0,0-.48-0.441l-0.1-.042a12.706,12.706,0,0,0-9.56,0l-0.1.042a0.908,0.908,0,0,0-.48.441,9.684,9.684,0,0,0-1,4.294v0.321l-3.37,3.4a0.914,0.914,0,0,0,0,1.3,0.891,0.891,0,0,0,.64.268,0.908,0.908,0,0,0,.64-0.268l2.09-2.1v3.826l-3.37,3.4a0.914,0.914,0,0,0,0,1.3,0.888,0.888,0,0,0,.64.269,0.905,0.905,0,0,0,.64-0.269l2.09-2.1v5.123a1.823,1.823,0,0,0,1.81,1.834h9.09a1.825,1.825,0,0,0,1.82-1.834v-5.123l2.09,2.1a0.9,0.9,0,0,0,1.28,0,0.914,0.914,0,0,0,0-1.3Zm-9.38-7.827,1.45-.485a4.947,4.947,0,0,1,3.14,0l1.44,0.485a0.928,0.928,0,0,1,.6,1.093l-0.91,3.668a0.924,0.924,0,0,1-.5.611,0.9,0.9,0,0,1-.38.083,0.927,0.927,0,0,1-.41-0.1,3.133,3.133,0,0,0-2.82,0,0.912,0.912,0,0,1-.79.013,0.924,0.924,0,0,1-.5-0.611l-0.91-3.668A0.913,0.913,0,0,1,2258.98,565.623Zm6.66,12.792a0.918,0.918,0,0,1-.91.917,0.9,0.9,0,0,1-.29-0.047,7.7,7.7,0,0,0-4.88,0,0.915,0.915,0,0,1-1.2-.87v-2.752a1.832,1.832,0,0,1,1.82-1.834h3.64a1.832,1.832,0,0,1,1.82,1.834v2.752h0Z" transform="translate(-2252 -561)"/>
</svg>
