<?xml version="1.0" encoding="utf-8"?>
<!-- Generator: Adobe Illustrator 21.1.0, SVG Export Plug-In . SVG Version: 6.00 Build 0)  -->
<svg version="1.1" id="Layer_1" xmlns="http://www.w3.org/2000/svg" xmlns:xlink="http://www.w3.org/1999/xlink" x="0px" y="0px"
	 viewBox="0 0 500 500" style="enable-background:new 0 0 500 500;" xml:space="preserve">
<g>
	<g>
		<path d="M483.6,299.8c0,0,0-0.1,0-0.1l0-69.6c0-15.1-12.3-27.3-27.3-27.3h-14.2l-3.6-29.7h21.4c4.1,0,7.5-3.3,7.5-7.5V117
			c0-4.1-3.3-7.5-7.5-7.5c-4.1,0-7.5,3.3-7.5,7.5v41.1h-15.8L424.4,57.6c-1.5-12-12.1-21.4-24.1-21.4h-22.4V23.8
			c0-4.1-3.3-7.5-7.5-7.5c-4.1,0-7.5,3.3-7.5,7.5v12.4H137V23.8c0-4.1-3.3-7.5-7.5-7.5c-4.1,0-7.5,3.3-7.5,7.5v12.4H99.7
			c-12.1,0-22.7,9.4-24.1,21.4L63.3,158.1H48V117c0-4.1-3.3-7.5-7.5-7.5c-4.1,0-7.5,3.3-7.5,7.5v48.6c0,4.1,3.3,7.5,7.5,7.5h21
			l-3.6,29.7H43.7c-15.1,0-27.3,12.3-27.3,27.3V354c0,4.1,3.3,7.5,7.5,7.5h2.7v99.8c0,12.3,10,22.4,22.4,22.4h59.2
			c12.3,0,22.4-10,22.4-22.4v-77.4c0-4.1-3.3-7.5-7.5-7.5c-4.1,0-7.5,3.3-7.5,7.5v77.4c0,4.1-3.3,7.5-7.5,7.5H48.9
			c-4.1,0-7.5-3.3-7.5-7.5v-99.8h417.1v99.8c0,4.1-3.3,7.5-7.5,7.5h-59.2c-4.1,0-7.5-3.3-7.5-7.5v-77.4c0-4.1-3.3-7.5-7.5-7.5
			c-4.1,0-7.5,3.3-7.5,7.5v77.4c0,12.3,10,22.4,22.4,22.4h59.2c12.3,0,22.4-10,22.4-22.4v-99.8h2.7c2,0,3.9-0.8,5.3-2.2
			c1.4-1.4,2.2-3.3,2.2-5.3l0-54C483.6,299.9,483.6,299.9,483.6,299.8z M31.3,230.1c0-6.9,5.6-12.4,12.4-12.4h32.4
			c7.6,0,16,6.4,18.1,13.7l11.5,40.7c1.1,4,5.2,6.3,9.2,5.2c4-1.1,6.3-5.2,5.1-9.2l-11.5-40.7c-3.9-13.8-18.2-24.6-32.5-24.6h-3.2
			L90.4,59.5c0.5-4.4,4.9-8.3,9.3-8.3h300.5c4.4,0,8.8,3.9,9.3,8.3l17.5,143.3h-3.2c-14.3,0-28.6,10.8-32.5,24.6L379.9,268
			c-1.1,4,1.2,8.1,5.1,9.2c4,1.1,8.1-1.2,9.2-5.2l11.5-40.7c2.1-7.3,10.5-13.7,18.1-13.7h11.6c0,0,20.8,0,20.8,0
			c6.9,0,12.4,5.6,12.4,12.4l0,62.3H31.3V230.1z M31.3,346.5v-39.2h437.4l0,39.2H31.3z M347.1,386.3H152.9c-4.1,0-7.5,3.3-7.5,7.5
			c0,4.1,3.3,7.5,7.5,7.5h194.2c4.1,0,7.5-3.3,7.5-7.5C354.6,389.6,351.2,386.3,347.1,386.3z M163.6,199.8
			c-18.1,0-32.9,14.8-32.9,32.9c0,18.1,14.7,32.9,32.9,32.9c18.1,0,32.9-14.8,32.9-32.9C196.5,214.6,181.7,199.8,163.6,199.8z
			 M163.6,250.7c-9.9,0-18-8.1-18-18c0-9.9,8.1-18,18-18c9.9,0,18,8.1,18,18C181.6,242.6,173.5,250.7,163.6,250.7z M336.4,199.8
			c-18.1,0-32.9,14.8-32.9,32.9c0,18.1,14.7,32.9,32.9,32.9c18.1,0,32.9-14.8,32.9-32.9C369.3,214.6,354.5,199.8,336.4,199.8z
			 M336.4,250.7c-9.9,0-18-8.1-18-18c0-9.9,8.1-18,18-18c9.9,0,18,8.1,18,18C354.3,242.6,346.3,250.7,336.4,250.7z M219.5,199.8
			c-4.1,0-7.5,3.3-7.5,7.5v50.8c0,4.1,3.3,7.5,7.5,7.5c4.1,0,7.5-3.3,7.5-7.5v-50.8C227,203.2,223.6,199.8,219.5,199.8z M250,199.8
			c-4.1,0-7.5,3.3-7.5,7.5v50.8c0,4.1,3.3,7.5,7.5,7.5c4.1,0,7.5-3.3,7.5-7.5v-50.8C257.5,203.2,254.1,199.8,250,199.8z
			 M280.5,199.8c-4.1,0-7.5,3.3-7.5,7.5v50.8c0,4.1,3.3,7.5,7.5,7.5c4.1,0,7.5-3.3,7.5-7.5v-50.8
			C287.9,203.2,284.6,199.8,280.5,199.8z M407.7,165.6c0-4.1-3.3-7.5-7.5-7.5H99.8c-4.1,0-7.5,3.3-7.5,7.5c0,4.1,3.3,7.5,7.5,7.5
			h300.4C404.3,173.1,407.7,169.7,407.7,165.6z"/>
	</g>
</g>
</svg>
