<?xml version='1.0' encoding='iso-8859-1'?>
<svg version="1.1" xmlns="http://www.w3.org/2000/svg" viewBox="0 0 470 470" xmlns:xlink="http://www.w3.org/1999/xlink" enable-background="new 0 0 470 470">
  <g>
    <path d="m470,285.105c0-0.046-0.006-0.09-0.007-0.136l-.009-70.009c0-15.164-12.336-27.5-27.5-27.5h-14.259l-3.643-29.815h21.527c4.142,0 7.5-3.358 7.5-7.5v-48.859c0-4.142-3.358-7.5-7.5-7.5s-7.5,3.358-7.5,7.5v41.359h-15.86l-12.349-101.053c-1.472-12.044-12.13-21.479-24.265-21.479h-22.5v-12.5c0-4.142-3.358-7.5-7.5-7.5s-7.5,3.358-7.5,7.5v12.5h-227.287v-12.5c-1.42109e-14-4.142-3.358-7.5-7.5-7.5s-7.5,3.358-7.5,7.5v12.5h-22.5c-12.134,0-22.792,9.435-24.264,21.48l-12.348,101.053h-15.433v-41.359c0-4.142-3.358-7.5-7.5-7.5s-7.5,3.358-7.5,7.5v48.859c0,4.142 3.358,7.5 7.5,7.5h21.1l-3.643,29.815h-14.26c-15.164,0-27.5,12.336-27.5,27.5v124.591c0,4.142 3.358,7.5 7.5,7.5h2.725v100.336c0,12.407 10.093,22.5 22.5,22.5h59.583c12.407,0 22.5-10.093 22.5-22.5v-77.836c0-4.142-3.358-7.5-7.5-7.5s-7.5,3.358-7.5,7.5v77.836c0,4.135-3.364,7.5-7.5,7.5h-59.583c-4.136,0-7.5-3.365-7.5-7.5v-100.336h419.535v100.336c0,4.135-3.364,7.5-7.5,7.5h-59.583c-4.136,0-7.5-3.365-7.5-7.5v-77.836c0-4.142-3.358-7.5-7.5-7.5s-7.5,3.358-7.5,7.5v77.836c0,12.407 10.093,22.5 22.5,22.5h59.583c12.407,0 22.5-10.093 22.5-22.5v-100.336h2.74c1.989,0 3.897-0.79 5.304-2.197 1.406-1.406 2.196-3.314 2.196-5.304l-.007-54.311c0.001-0.045 0.007-0.089 0.007-0.135zm-442.5-82.645h32.596c7.631,0 16.145,6.442 18.218,13.786l11.552,40.897c1.126,3.986 5.274,6.307 9.256,5.179 3.986-1.126 6.305-5.271 5.179-9.256l-11.551-40.897c-3.913-13.855-18.256-24.708-32.654-24.708h-3.224l17.601-144.049c0.541-4.421 4.921-8.3 9.375-8.3h302.288c4.454,0 8.835,3.878 9.375,8.299l17.602,144.049h-3.224c-14.397,0-28.74,10.853-32.654,24.708l-11.551,40.897c-1.125,3.986 1.193,8.13 5.179,9.256 3.985,1.125 8.13-1.192 9.256-5.179l11.551-40.897c2.074-7.344 10.588-13.786 18.219-13.786h11.666c0.037,0 20.929,0 20.929,0 6.893,0 12.5,5.607 12.5,12.501l.008,62.644h-439.992v-62.644c0-6.892 5.607-12.5 12.5-12.5zm427.499,129.592h-439.999v-39.447h439.994l.005,39.447z"/>
    <path d="m332.676,372.052h-195.368c-4.142,0-7.5,3.358-7.5,7.5s3.358,7.5 7.5,7.5h195.368c4.142,0 7.5-3.358 7.5-7.5s-3.358-7.5-7.5-7.5z"/>
    <path d="m148.082,184.563c-18.23,0-33.062,14.832-33.062,33.062 0,18.23 14.832,33.062 33.062,33.062s33.062-14.832 33.062-33.062c0-18.23-14.831-33.062-33.062-33.062zm0,51.124c-9.959,0-18.062-8.103-18.062-18.062 0-9.959 8.103-18.062 18.062-18.062s18.062,8.103 18.062,18.062c0,9.959-8.102,18.062-18.062,18.062z"/>
    <path d="m321.902,184.563c-18.23,0-33.062,14.832-33.062,33.062 0,18.23 14.832,33.062 33.062,33.062 18.23,0 33.062-14.832 33.062-33.062 0-18.23-14.832-33.062-33.062-33.062zm0,51.124c-9.959,0-18.062-8.103-18.062-18.062 0-9.959 8.103-18.062 18.062-18.062 9.959,0 18.062,8.103 18.062,18.062 0,9.959-8.103,18.062-18.062,18.062z"/>
    <path d="m204.318,184.563c-4.142,0-7.5,3.358-7.5,7.5v51.124c0,4.142 3.358,7.5 7.5,7.5s7.5-3.358 7.5-7.5v-51.124c0-4.142-3.358-7.5-7.5-7.5z"/>
    <path d="m234.992,184.563c-4.142,0-7.5,3.358-7.5,7.5v51.124c0,4.142 3.358,7.5 7.5,7.5s7.5-3.358 7.5-7.5v-51.124c0-4.142-3.358-7.5-7.5-7.5z"/>
    <path d="m265.667,184.563c-4.142,0-7.5,3.358-7.5,7.5v51.124c0,4.142 3.358,7.5 7.5,7.5s7.5-3.358 7.5-7.5v-51.124c0-4.142-3.358-7.5-7.5-7.5z"/>
    <path d="m393.609,150.146c0-4.142-3.358-7.5-7.5-7.5h-302.233c-4.142,0-7.5,3.358-7.5,7.5s3.358,7.5 7.5,7.5h302.233c4.142,0 7.5-3.358 7.5-7.5z"/>
  </g>
</svg>
