<?xml version="1.0" encoding="utf-8"?>
<!-- Generator: Adobe Illustrator 21.1.0, SVG Export Plug-In . SVG Version: 6.00 Build 0)  -->
<svg version="1.1" id="Logos" xmlns="http://www.w3.org/2000/svg" xmlns:xlink="http://www.w3.org/1999/xlink" x="0px" y="0px"
	 viewBox="0 0 1162.6 276.5" style="enable-background:new 0 0 1162.6 276.5;" xml:space="preserve">
<style type="text/css">
	.st0{fill:#0650CB;}
	.st1{fill:none;}
	.st2{fill:#161616;}
</style>
<g>
	<g>
		<g>
			<path class="st0" d="M193.7,134.3c21.2-9.4,29.6-26.4,29.6-44c0-45.9-33.6-66.1-78.5-66.1c-36.2,0-72.3,0-108.2,0v39.1H79h3.2
				h62.6c27.4,0,35.8,17.6,35.8,28c0,13-8.8,24.4-35.8,24.4"/>
		</g>
		<g>
			<path class="st1" d="M172.2,161.3c-8.4-4-18.9-5.5-27.6-5.5H78.8v56.4h65.8c8.7,0,19.2-1.4,27.6-5.5c8.4-5.1,14.7-12.7,15-22.7
				C186.9,174,180.6,166.4,172.2,161.3z"/>
			<path class="st2" d="M230,182.9c0-50.8-38.1-67.1-85.4-67.1c-20.9,0-41.8,0-62.6,0c-15.2,0-30.3,0-45.6,0v0v136.5v0
				c15.2,0,30.4,0,45.6,0h62.6c47.2,0,85.4-16.3,85.4-67.1c0-0.4,0-0.8,0-1.1C229.9,183.6,230,183.2,230,182.9z M172.2,206.7
				c-8.4,4-18.9,5.5-27.6,5.5H78.8v-56.4h65.8c8.7,0,19.2,1.4,27.6,5.5c8.4,5.1,14.7,12.7,15,22.7
				C186.9,194,180.6,201.6,172.2,206.7z"/>
		</g>
	</g>
	<g>
		<g>
			<path class="st2" d="M316.6,114.8c-3.3-2.6-8.1-3.8-15.8-3.8c-5.4,0-10.8,0.4-14.3,1l-8.4,50.9c2.5,0.3,6.5,0.6,11.9,0.6
				c9.7,0,16.7-1.5,21.4-4.8c3.4-2.5,6-5.9,6.8-10.4c1.3-7.7-4.7-11.8-10.2-13l0-0.2c6.6-2,11.2-6.3,12-11.3
				C320.8,119.9,319.4,116.8,316.6,114.8z M310.1,148.4c-1.2,7.5-9,10-17,10c-2.7,0-4.9-0.1-6.4-0.3l3.3-19.7l6.4,0
				C304.8,138.4,311.3,141.3,310.1,148.4z M312.2,124.6c-0.8,5-6.2,8.7-14.4,8.6l-7,0l2.7-16.7c1.3-0.2,3.4-0.4,6.9-0.4
				C308.3,116.2,313.2,118.6,312.2,124.6z M370.8,163.4l7.7,0l8.5-51.8l-7.7,0L370.8,163.4z M484.6,118c-4.5-4.2-12.1-6.5-23.1-6.5
				c-6.1,0-11.8,0.4-16.6,1l-8.4,50.9c3.8,0.4,8.4,0.6,13.9,0.7c11.6,0,21.3-2.6,27.6-7.4c6.4-4.7,10.5-11.7,11.9-20.1
				C491.4,128.2,489.3,122.2,484.6,118z M481.9,136.8c-2.3,14-12.6,21.9-29,21.9c-3,0-5.8-0.1-7.7-0.4l6.7-40.9
				c2.1-0.4,5.2-0.7,9.2-0.7C477.3,116.8,484,124.6,481.9,136.8z M538.7,117.7l18.2,0.1l-7.6,46.1l7.8,0l7.6-46.1l18.3,0.1l0.9-5.7
				l-44.2-0.1L538.7,117.7z M657,111.5c-15.9,0-29.5,10.7-32.2,27.1c-2.6,15.7,6.8,26.3,22.5,26.3c15.2,0,29.3-9.4,32.2-27.2
				C682,122.5,673.3,111.6,657,111.5z M671.3,138.1c-1.9,11.8-10.5,21.5-22.7,21.5c-12.1,0-17.4-10-15.6-21
				c1.9-11.4,9.9-21.6,22.7-21.5C668.6,117,673,127.8,671.3,138.1z M777.9,118.8c-4.5-4.2-12.1-6.5-23.1-6.5c-6.1,0-11.8,0.4-16.6,1
				l-8.4,50.9c3.8,0.4,8.4,0.6,13.9,0.7c11.6,0,21.3-2.6,27.6-7.4c6.4-4.7,10.5-11.7,11.9-20.1C784.6,129,782.5,123,777.9,118.8z
				 M775.1,137.6c-2.3,14-12.6,21.9-29,21.9c-3,0-5.8-0.1-7.7-0.4l6.7-40.9c2.1-0.4,5.2-0.7,9.2-0.7
				C770.5,117.6,777.2,125.4,775.1,137.6z M856.7,112.6c-5.3,0-11,0.4-15,1l-8.4,51.1l7.7,0l3.7-22.4l7.3,0c7,0.3,9.7,2.9,10.3,10.1
				c0.6,6.5,1.2,10.9,1.9,12.4l8,0c-0.9-2-1.5-7-2.3-14.2c-0.5-5.4-2.7-9.1-7.1-10.5l0-0.2c6.6-1.8,12.3-6.3,13.4-13.2
				c0.7-4-0.4-7.5-3.1-9.8C870.1,113.9,865,112.6,856.7,112.6z M868.5,127.4c-1,5.9-6.8,9.8-15.1,9.8l-7.9,0l3.1-18.9
				c1.3-0.3,4-0.6,7.7-0.6C864.5,117.8,869.6,120.7,868.5,127.4z M925.6,164.9l7.7,0l8.5-51.8l-7.7,0L925.6,164.9z M1020.3,139
				c-3.8,6.8-7.3,13.3-10,19.3l-0.2,0c-0.6-6.1-1.8-12.4-3.2-19.4l-5.1-25.5l-8.3,0l11,51.8l8.5,0l29.9-51.7l-8.2,0L1020.3,139z
				 M1125.2,119.3l0.9-5.6l-32.3-0.1l-8.5,51.8l33.6,0.1l0.9-5.6l-25.9-0.1l3.1-18.7l23.2,0.1l0.9-5.5l-23.2-0.1l2.7-16.4
				L1125.2,119.3z"/>
		</g>
	</g>
</g>
</svg>
