<?xml version="1.0" encoding="utf-8"?>
<!-- Generator: Adobe Illustrator 21.1.0, SVG Export Plug-In . SVG Version: 6.00 Build 0)  -->
<svg version="1.1" id="Logos" xmlns="http://www.w3.org/2000/svg" xmlns:xlink="http://www.w3.org/1999/xlink" x="0px" y="0px"
	 viewBox="0 0 220 230" style="enable-background:new 0 0 220 230;" xml:space="preserve">
<style type="text/css">
	.st0{fill:#0650CB;}
	.st1{fill:none;}
	.st2{fill:#161616;}
</style>
<g>
	<g>
		<path class="st0" d="M160.9,113.9c17.1-7.6,24-21.3,24-35.6c0-37.1-27.1-53.5-63.5-53.5c-29.2,0-58.5,0-87.4,0v31.6h34.2h2.6h50.6
			c22.1,0,29,14.2,29,22.6c0,10.5-7.1,19.8-29,19.8"/>
	</g>
	<g>
		<path class="st1" d="M143.5,135.7c-6.8-3.3-15.3-4.4-22.3-4.4H68v45.6h53.2c7,0,15.5-1.2,22.3-4.4c6.8-4.1,11.9-10.3,12.2-18.4
			C155.4,146,150.3,139.8,143.5,135.7z"/>
		<path class="st2" d="M190.2,153.1c0-41.1-30.8-54.3-69-54.3c-16.9,0-33.8,0-50.6,0c-12.3,0-24.5,0-36.8,0v0v110.3v0
			c12.3,0,24.6,0,36.8,0h50.6c38.2,0,69-13.2,69-54.3c0-0.3,0-0.6,0-0.9C190.2,153.7,190.2,153.4,190.2,153.1z M143.5,172.4
			c-6.8,3.3-15.3,4.4-22.3,4.4H68v-45.6h53.2c7,0,15.5,1.2,22.3,4.4c6.8,4.1,11.9,10.3,12.2,18.4
			C155.4,162.1,150.3,168.3,143.5,172.4z"/>
	</g>
</g>
</svg>
