<?xml version="1.0" encoding="utf-8"?>
<!-- Generator: Adobe Illustrator 21.1.0, SVG Export Plug-In . SVG Version: 6.00 Build 0)  -->
<svg version="1.1" id="Layer_1" xmlns="http://www.w3.org/2000/svg" xmlns:xlink="http://www.w3.org/1999/xlink" x="0px" y="0px"
	 viewBox="0 0 19 19" style="enable-background:new 0 0 19 19;" xml:space="preserve">
<path fill="#fff" d="M18.4,15.2l-5.7-5.7l5.7-5.7c0.9-0.9,0.9-2.3,0-3.2c-0.9-0.9-2.3-0.9-3.2,0L9.5,6.3L3.9,0.6C3-0.2,1.5-0.2,0.7,0.6
	c-0.9,0.9-0.9,2.3,0,3.2l5.7,5.7l-5.7,5.7c-0.9,0.9-0.9,2.3,0,3.2c0.9,0.9,2.3,0.9,3.2,0l5.7-5.7l5.7,5.7c0.9,0.9,2.3,0.9,3.2,0
	C19.3,17.5,19.3,16,18.4,15.2z"/>
</svg>
