<svg xmlns="http://www.w3.org/2000/svg" xmlns:xlink="http://www.w3.org/1999/xlink" version="1.1" id="Layer_1" x="0px" y="0px" viewBox="0 0 512 512" style="enable-background:new 0 0 512 512;width:  17px;height:  17px;" xml:space="preserve" width="512px" height="512px">
<g>
	<g>
		<path d="M153.229,289.391H92.392c-1.266-6.245-2.187-12.582-2.731-18.93c-0.524-6.123-5.906-10.65-12.04-10.139    c-6.125,0.525-10.664,5.916-10.139,12.041c0.894,10.427,2.665,20.835,5.264,30.934c0.002,0.008,0.004,0.014,0.007,0.022    c17.173,66.686,69.265,118.772,135.953,135.936c0.916,0.236,1.848,0.351,2.774,0.351c2.443,0,4.847-0.806,6.82-2.334    c2.719-2.109,4.311-5.356,4.311-8.796v-69.704C222.609,320.515,191.486,289.391,153.229,289.391z M200.348,413.467    c-47.573-16.769-85.044-54.241-101.813-101.815h54.695c25.981,0,47.118,21.138,47.118,47.12V413.467z" style="&#10; &#10;"/>
	</g>
</g>
<g>
	<g>
		<path d="M437.02,74.98C388.667,26.628,324.381,0,256,0C187.62,0,123.333,26.628,74.981,74.98C26.628,123.333,0,187.619,0,256    c0,68.38,26.628,132.667,74.981,181.02C123.334,485.373,187.62,512,256,512c68.381,0,132.667-26.628,181.02-74.981    C485.372,388.667,512,324.38,512,256C512,187.619,485.372,123.333,437.02,74.98z M256,489.739    C127.116,489.739,22.261,384.884,22.261,256S127.116,22.261,256,22.261S489.739,127.116,489.739,256S384.884,489.739,256,489.739z    " />
	</g>
</g>
<g>
	<g>
		<path d="M437.272,293.703c-2.108-2.719-5.355-4.312-8.796-4.312h-69.706c-38.255,0-69.379,31.124-69.379,69.38v69.704    c0,3.442,1.592,6.688,4.311,8.796c1.971,1.529,4.378,2.334,6.821,2.334c0.926,0,1.858-0.116,2.773-0.351    c66.697-17.167,118.794-69.264,135.959-135.959C440.113,299.965,439.381,296.422,437.272,293.703z M311.652,413.467v-54.695    c0-25.982,21.137-47.12,47.118-47.12h54.696C396.696,359.225,359.225,396.696,311.652,413.467z" />
	</g>
</g>
<g>
	<g>
		<path d="M256,211.478c-24.549,0-44.522,19.972-44.522,44.522c0,24.549,19.972,44.522,44.522,44.522    c24.549,0,44.522-19.972,44.522-44.522C300.522,231.451,280.549,211.478,256,211.478z M256,278.261    c-12.275,0-22.261-9.986-22.261-22.261c0-12.275,9.986-22.261,22.261-22.261c12.275,0,22.261,9.986,22.261,22.261    C278.261,268.275,268.275,278.261,256,278.261z" />
	</g>
</g>
<g>
	<g>
		<path d="M80.67,222.694c-6.103-0.766-11.662,3.564-12.425,9.665l-0.131,1.075c-0.722,6.104,3.641,11.639,9.745,12.363    c0.444,0.052,0.886,0.078,1.323,0.078c5.562,0,10.368-4.162,11.039-9.821l0.114-0.934C91.097,229.02,86.771,223.457,80.67,222.694    z" />
	</g>
</g>
<g>
	<g>
		<path d="M436.6,199.391c-0.009-0.028-0.021-0.055-0.03-0.082c-11.795-37.601-35.764-71.349-67.5-95.037    C336.211,79.745,297.114,66.783,256,66.783s-80.213,12.963-113.07,37.488c-31.756,23.703-55.737,57.481-67.524,95.111    c-1.143,3.652-0.332,7.634,2.15,10.547c2.482,2.913,6.288,4.35,10.073,3.794c41.957-6.102,105.226-13.375,168.37-13.375    c59.688,0,119.476,6.499,161.281,12.364c3.762,14.053,5.675,28.582,5.675,43.288c0,6.146,4.984,11.13,11.13,11.13    c6.146,0,11.13-4.984,11.13-11.13C445.217,236.695,442.319,217.65,436.6,199.391z M256,178.087    c-55.727,0-111.407,5.527-153.051,11.036C129.248,128.588,188.689,89.044,256,89.044c67.311,0,126.752,39.544,153.051,100.079    C367.407,183.614,311.727,178.087,256,178.087z" />
	</g>
</g>
<g>
</g>
<g>
</g>
<g>
</g>
<g>
</g>
<g>
</g>
<g>
</g>
<g>
</g>
<g>
</g>
<g>
</g>
<g>
</g>
<g>
</g>
<g>
</g>
<g>
</g>
<g>
</g>
<g>
</g>
</svg>