<?xml version="1.0" encoding="utf-8"?>
<!-- Generator: Adobe Illustrator 21.0.2, SVG Export Plug-In . SVG Version: 6.00 Build 0)  -->
<svg version="1.1" id="Layer_1" xmlns="http://www.w3.org/2000/svg" xmlns:xlink="http://www.w3.org/1999/xlink" x="0px" y="0px"
	 viewBox="0 0 500 500" style="enable-background:new 0 0 500 500;" xml:space="preserve">
<style type="text/css">
	.st0{fill:#ffffff;}
</style>
<g>
	<path class="st0" d="M317.9,398.9c5.1,0.5,10.2,0.8,15.4,0.8c1.6,0,3.2-0.1,4.8-0.1c-1.7,0.1-3.4,0.1-5.1,0.1
		C327.9,399.7,322.9,399.4,317.9,398.9L317.9,398.9z M339.1,399.5L339.1,399.5L339.1,399.5z M339.1,399.5c-0.3,0-0.7,0-1,0
		C338.4,399.5,338.8,399.5,339.1,399.5L339.1,399.5z"/>
	<path class="st0" d="M159.1,102.1L159.1,102.1L159.1,102.1z M159.1,102.1c-1,0.1-2.1,0.1-3.1,0.2C157,102.2,158,102.2,159.1,102.1
		L159.1,102.1z M155.9,102.3c-1,0.1-2.1,0.2-3.1,0.3C153.9,102.5,154.9,102.4,155.9,102.3L155.9,102.3z"/>
	<path class="st0" d="M151.1,102.7L151.1,102.7L151.1,102.7z M151.1,102.7c-1,0.1-2.1,0.2-3.1,0.4
		C149.1,103,150.1,102.8,151.1,102.7L151.1,102.7z M148.1,103.1c-1.1,0.1-2.3,0.3-3.4,0.5C145.8,103.4,146.9,103.2,148.1,103.1
		L148.1,103.1z"/>
	<path class="st0" d="M347.2,399c-2.1,0.2-4.1,0.4-6.2,0.5C343,399.3,345.1,399.2,347.2,399L347.2,399z"/>
	<path class="st0" d="M355.4,398c-2.2,0.3-4.3,0.6-6.5,0.8C351.1,398.6,353.2,398.3,355.4,398L355.4,398z"/>
	<path class="st0" d="M166.7,101.9c-1.8,0-3.6,0.1-5.4,0.2c1.9-0.1,3.7-0.1,5.6-0.1c5.1,0,10.2,0.3,15.2,0.8
		C177,102.1,171.9,101.9,166.7,101.9L166.7,101.9z M161.3,102c-0.1,0-0.3,0-0.4,0C161,102,161.2,102,161.3,102L161.3,102z"/>
	<path class="st0" d="M333.1,107c79.3,0,143.8,64.5,143.8,143.8c0,34.5-12.4,67.8-34.9,93.9c-22.3,25.8-53,42.9-86.6,48.1l-0.3,0.1
		l-0.4,0.1c-1.9,0.3-4,0.5-6.3,0.8c-0.5,0.1-1,0.1-1.6,0.2c-2.1,0.2-4.1,0.4-5.9,0.5c-0.6,0-1.1,0-1.7,0c0,0-0.1,0-0.2,0
		c-2.3,0.1-4.1,0.1-5.8,0.1c-4.9,0-9.9-0.2-14.6-0.7c-35.2-3.6-67.8-20.2-91.8-46.6c-23.2-25.6-36.4-58.3-37.4-92.8h43.7
		c2.1,0,4-1.3,4.8-3.2c0.8-1.9,0.4-4.1-1.1-5.6L159,168.4c-1-1-2.3-1.5-3.6-1.5c-1.3,0-2.6,0.5-3.6,1.5l-77.4,77.2
		c-1.5,1.5-1.9,3.7-1.1,5.6c0.8,1.9,2.7,3.2,4.8,3.2h43.5c1,52.3,20.8,101.4,56.2,139.7c-3.6,0.3-7.2,0.4-10.8,0.4
		c-79.3,0-143.8-64.5-143.8-143.8c0-34.5,12.4-67.8,34.9-93.9c22.3-25.8,53-42.9,86.5-48.1l0.8-0.1c1.9-0.3,3.9-0.5,6.3-0.8
		c0.3,0,0.6-0.1,0.9-0.1l0.7-0.1c2.2-0.2,4.1-0.4,6-0.5c0.4,0,0.7,0,1.1,0l0.7,0c1.9-0.1,3.8-0.1,5.8-0.1c4.9,0,9.9,0.2,14.6,0.7
		c35.2,3.6,67.8,20.2,91.8,46.6c23.2,25.6,36.4,58.3,37.4,92.8h-43.7c-2.1,0-4,1.3-4.8,3.2c-0.8,1.9-0.4,4.1,1.1,5.6l77.5,77.2
		c1,1,2.3,1.5,3.6,1.5s2.6-0.5,3.6-1.5l77.4-77.2c1.5-1.5,1.9-3.7,1.1-5.6c-0.8-1.9-2.7-3.2-4.7-3.2h-43.5
		c-1-52.3-20.8-101.4-56.2-139.7C325.9,107.1,329.5,107,333.1,107 M333.1,101.9c-7.4,0-14.7,0.6-21.8,1.6
		c38.3,37.5,62.1,89.8,62.1,147.7l0,1.1H422l-77.4,77.2l-77.5-77.2H316l0-1.1c0-77.1-58.8-140.8-133.9-148.5c-5-0.5-10-0.8-15.2-0.8
		c-2,0-4,0.1-6,0.2c-0.6,0-1.2,0-1.8,0.1c-2.1,0.1-4.2,0.3-6.2,0.5c-0.6,0.1-1.1,0.1-1.7,0.2c-2.2,0.2-4.4,0.5-6.5,0.8
		c-0.3,0-0.6,0.1-0.8,0.1C72.5,114.8,18,176.4,18,250.8c0,82.2,66.7,148.9,148.9,148.9c7.4,0,14.7-0.6,21.8-1.6
		c-38.3-37.5-62.1-89.8-62.1-147.7l0-1.1H78l77.4-77.2l77.5,77.2H184l0,1.1c0,77.1,58.8,140.8,133.9,148.5c5,0.5,10,0.8,15.2,0.8
		c2,0,4-0.1,6-0.2c0.6,0,1.2,0,1.8-0.1c2.1-0.1,4.2-0.3,6.2-0.5c0.6-0.1,1.1-0.1,1.7-0.2c2.2-0.2,4.4-0.5,6.5-0.8
		c0.3-0.1,0.6-0.1,0.8-0.1C427.5,386.7,482,325.1,482,250.8C482,168.5,415.3,101.9,333.1,101.9L333.1,101.9z"/>
</g>
</svg>
