<svg xmlns="http://www.w3.org/2000/svg" width="143" height="71" viewBox="0 0 143 71">
  <metadata><?xpacket begin="﻿" id="W5M0MpCehiHzreSzNTczkc9d"?>
<x:xmpmeta xmlns:x="adobe:ns:meta/" x:xmptk="Adobe XMP Core 5.6-c140 79.160451, 2017/05/06-01:08:21        ">
   <rdf:RDF xmlns:rdf="http://www.w3.org/1999/02/22-rdf-syntax-ns#">
      <rdf:Description rdf:about=""/>
   </rdf:RDF>
</x:xmpmeta>
                                                                                                    
                                                                                                    
                                                                                                    
                                                                                                    
                                                                                                    
                                                                                                    
                                                                                                    
                                                                                                    
                                                                                                    
                                                                                                    
                                                                                                    
                                                                                                    
                                                                                                    
                                                                                                    
                                                                                                    
                                                                                                    
                                                                                                    
                                                                                                    
                                                                                                    
                                                                                                    
                           
<?xpacket end="w"?></metadata>
<defs>
    <style>
      .cls-1 {
        fill: #fff;
        fill-rule: evenodd;
      }
    </style>
  </defs>
  <path class="cls-1" d="M1440.79,283.926c-9.61-8.97-21.17-17.926-34.47-17.926h-23.36c-10.34,0-17.32,5.492-25.41,11.853-2.44,1.922-4.96,3.9-7.76,5.9h-8.54a2.979,2.979,0,0,0-2.78,1.895c-3.11,8.046-4.41,21.5-2.72,28.214,1.84,7.292,6.97,11.308,14.44,11.308h0.64a16.391,16.391,0,0,0,31.49,0c6.88,0,14.71.01,22.62,0.031,7.03,0.014,14.07.028,20.42,0.028h2.93a16.4,16.4,0,0,0,31.49-.056h15.24a2.966,2.966,0,0,0,2.98-2.959v-17.75C1478,294.613,1454.63,286.162,1440.79,283.926Zm-74.22,47.157A10.354,10.354,0,1,1,1377,320.729,10.4,10.4,0,0,1,1366.57,331.083Zm77.46,0a10.354,10.354,0,1,1,10.42-10.354c0,0.1-.02.2-0.03,0.3a2.9,2.9,0,0,0-.25,1.178,3.094,3.094,0,0,0,.09.432A10.412,10.412,0,0,1,1444.03,331.083Zm28.02-11.833h-11.71a16.385,16.385,0,0,0-32.62.056c-6.96,0-14.84-.012-22.77-0.027-7.69-.02-15.31-0.039-22.07-0.032a16.383,16.383,0,0,0-32.61,0h-0.08c-4.73,0-7.49-2.17-8.66-6.824-1.15-4.6-.54-15.213,1.84-22.759h7.38a2.969,2.969,0,0,0,1.71-.541c3.25-2.273,6.07-4.492,8.79-6.636,7.81-6.139,13.44-10.573,21.71-10.573h23.36c9.16,0,18.45,5.064,31.05,16.938a2.96,2.96,0,0,0,1.62.78c16.72,2.432,33.06,11.146,33.06,14.823V319.25Zm-42.53-31.73-5.43,2.147h-45.86l-8.06-8.009a2.991,2.991,0,0,0-4.21,0,2.931,2.931,0,0,0,0,4.183l8.93,8.876a3,3,0,0,0,2.11.866h47.66a3.06,3.06,0,0,0,1.11-.211l5.95-2.357a2.951,2.951,0,0,0,1.67-3.842A2.984,2.984,0,0,0,1429.52,287.52Z" transform="translate(-1335 -266)"/>
</svg>
