<svg xmlns="http://www.w3.org/2000/svg" width="96" height="97" viewBox="0 0 96 97">
  <metadata><?xpacket begin="﻿" id="W5M0MpCehiHzreSzNTczkc9d"?>
<x:xmpmeta xmlns:x="adobe:ns:meta/" x:xmptk="Adobe XMP Core 5.6-c140 79.160451, 2017/05/06-01:08:21        ">
   <rdf:RDF xmlns:rdf="http://www.w3.org/1999/02/22-rdf-syntax-ns#">
      <rdf:Description rdf:about=""/>
   </rdf:RDF>
</x:xmpmeta>
                                                                                                    
                                                                                                    
                                                                                                    
                                                                                                    
                                                                                                    
                                                                                                    
                                                                                                    
                                                                                                    
                                                                                                    
                                                                                                    
                                                                                                    
                                                                                                    
                                                                                                    
                                                                                                    
                                                                                                    
                                                                                                    
                                                                                                    
                                                                                                    
                                                                                                    
                                                                                                    
                           
<?xpacket end="w"?></metadata>
<defs>
    <style>
      .cls-1 {
        fill: #fff;
        fill-rule: evenodd;
      }
    </style>
  </defs>
  <path class="cls-1" d="M1306.04,164.63h8.3a2.02,2.02,0,0,0,2.02-2.031v-8.36a2.017,2.017,0,0,0-2.01-2.035h-8.31a2.017,2.017,0,0,0-2.01,2.03v8.36a2.018,2.018,0,0,0,2.01,2.036h0Zm2.02-8.354h4.26v4.282h-4.26v-4.282Zm-41.67,48.88h4.25v2.51a6.484,6.484,0,0,1,.83-0.063h2.61c0.21-.159.4-0.317,0.61-0.476v-4.006a2.031,2.031,0,0,0-2.02-2.035h0v0h-8.3a2.035,2.035,0,0,0-2.03,2.036v8.354a2.037,2.037,0,0,0,2.03,2.037h0.45c0.18-.607.37-1.193,0.58-1.74a6.605,6.605,0,0,1,1.55-2.333h-0.56v-4.282Zm73.16-4.07h-0.01v0h-8.3a2.025,2.025,0,0,0-2.02,2.03V209.6a40.014,40.014,0,0,1,8.88,3.914h1.44a2.027,2.027,0,0,0,2.02-2.033v-8.357A2.023,2.023,0,0,0,1339.55,201.086Zm-2.03,8.352h-4.26v-4.282h4.26v4.282Zm2.02-24.646h0v0h-8.3a2.026,2.026,0,0,0-2.02,2.031v8.36a2.033,2.033,0,0,0,2.02,2.036h8.3a2.025,2.025,0,0,0,2.02-2.03v-8.36A2.031,2.031,0,0,0,1339.54,184.792Zm-2.02,8.353h-4.26v-4.283h4.26v4.283Zm-47.95-28.515h8.3a2.033,2.033,0,0,0,2.02-2.031v-8.36a2.032,2.032,0,0,0-2.02-2.035h-8.3a2.028,2.028,0,0,0-2.03,2.035v8.355A2.03,2.03,0,0,0,1289.57,164.63Zm2.02-8.354h4.25v4.282h-4.25v-4.282Zm-4.05,38.905a2.029,2.029,0,0,0,2.03,2.036h8.3a2.032,2.032,0,0,0,2.02-2.03v-8.36a2.031,2.031,0,0,0-2.02-2.035h0v0h-8.3a2.03,2.03,0,0,0-2.03,2.037v8.354Zm4.05-6.319h4.25v4.283h-4.25v-4.283Zm-18.92,8.355a2.025,2.025,0,0,0,2.02-2.03v-8.36a2.031,2.031,0,0,0-2.02-2.035h0v0h-8.3a2.036,2.036,0,0,0-2.03,2.037h0v8.354a2.035,2.035,0,0,0,2.03,2.036h8.3Zm-6.28-8.355h4.25v4.283h-4.25v-4.283Zm81.58-13.267h-22.75V145.037A2.026,2.026,0,0,0,1323.2,143h-42.07a2.033,2.033,0,0,0-2.02,2.036v30.558h-23.09a2.032,2.032,0,0,0-2.02,2.035v43.355a2.025,2.025,0,1,0,4.05,0V179.67h21.06v24.02a32.9,32.9,0,0,1,4.05-2.635V147.074h38.01v58.978c0.8,0.663,1.58,1.343,2.34,2.031,0.5,0.108,1.08.24,1.71,0.4V179.671h20.73v41.314a2.025,2.025,0,1,0,4.05,0V177.63A2.035,2.035,0,0,0,1347.97,175.6Zm-60.43,3.293a2.03,2.03,0,0,0,2.03,2.036h8.3a2.033,2.033,0,0,0,2.02-2.031v-8.36a2.03,2.03,0,0,0-2.02-2.034h0v0h-8.3a2.03,2.03,0,0,0-2.03,2.036v8.355Zm4.05-6.318h4.25v4.281h-4.25V172.57Zm12.44,14.257v8.354a2.018,2.018,0,0,0,2.01,2.036h8.3a2.019,2.019,0,0,0,2.02-2.03v-8.36a2.016,2.016,0,0,0-2.01-2.035h-0.01v0h-8.3a2.018,2.018,0,0,0-2.01,2.031v0.006Zm4.03,2.035h4.26v4.283h-4.26v-4.283Zm-4.03-18.329v8.355a2.018,2.018,0,0,0,2.01,2.036h8.3a2.02,2.02,0,0,0,2.02-2.031v-8.36a2.022,2.022,0,0,0-2.01-2.034h-0.01v0h-8.3a2.018,2.018,0,0,0-2.01,2.031v0Zm4.03,2.037h4.26v4.281h-4.26V172.57Zm25.02,43.207a46.375,46.375,0,0,0-11.67-3.653c-4.85-4.548-10.7-9.046-17.48-9.046h-11.65c-5.38,0-8.94,2.823-13.06,6.092-1.17.923-2.37,1.873-3.69,2.828h-4.06a2.1,2.1,0,0,0-1.96,1.351c-1.59,4.138-2.25,11.074-1.38,14.552a7.5,7.5,0,0,0,7.66,6.142,8.776,8.776,0,0,0,16.62.007c3.34,0,7.11.008,10.89,0.016,3.52,0.008,7.04.017,10.22,0.017h0.92a8.779,8.779,0,0,0,16.61-.03h7.15a2.112,2.112,0,0,0,2.11-2.107v-8.92C1340.31,220.493,1337.87,218.055,1333.08,215.777Zm-48.98,20.008a4.583,4.583,0,1,1,4.58-4.583A4.59,4.59,0,0,1,1284.1,235.785Zm43.22-4.578a2.022,2.022,0,0,0-.14.738,2.073,2.073,0,0,0,.03.251,4.579,4.579,0,1,1,.11-0.994v0Zm8.78-1.369h-4.68a8.782,8.782,0,0,0-17.36.032c-3.32,0-7.04-.008-10.76-0.017-3.64-.008-7.28-0.016-10.52-0.016a8.781,8.781,0,0,0-17.35-.027c-1.76-.139-2.74-1.032-3.22-2.931-0.53-2.128-.24-7.069.78-10.667h3.22a2.09,2.09,0,0,0,1.21-.386c1.63-1.151,3.05-2.271,4.41-3.353,0.43-.336.83-0.658,1.24-0.971a2.1,2.1,0,0,0,.29,2.606l4.46,4.461a2.1,2.1,0,0,0,1.48.617h23.78a2.1,2.1,0,0,0,.78-0.15l2.97-1.185a2.107,2.107,0,1,0-1.56-3.914l-2.59,1.035h-22.5l-3.84-3.843a2.1,2.1,0,0,0-2.11-.514c2.67-2,5.01-3.323,8.05-3.323h11.65c4.4,0,8.9,2.494,15.06,8.342a2.145,2.145,0,0,0,1.15.556c8.18,1.2,15.62,5.293,15.96,6.835v6.813Z" transform="translate(-1254 -143)"/>
</svg>
