<?xml version="1.0" encoding="utf-8"?>
<!-- Generator: Adobe Illustrator 22.1.0, SVG Export Plug-In . SVG Version: 6.00 Build 0)  -->
<svg version="1.1" id="Layer_1" xmlns="http://www.w3.org/2000/svg" xmlns:xlink="http://www.w3.org/1999/xlink" x="0px" y="0px"
	 viewBox="0 0 24 24" style="enable-background:new 0 0 24 24;" xml:space="preserve">
<path d="M12,0.8C5.8,0.8,0.8,5.8,0.8,12c0,6.2,5,11.2,11.2,11.2c6.2,0,11.2-5,11.2-11.2C23.2,5.8,18.2,0.8,12,0.8z
	 M17.8,12.3l-8.2,5.6C9.5,18,9.5,18,9.4,18c-0.1,0-0.1,0-0.2,0C9.1,17.9,9,17.8,9,17.6V6.4C9,6.2,9.1,6.1,9.2,6C9.3,6,9.5,6,9.6,6.1
	l8.2,5.6c0.1,0.1,0.2,0.2,0.2,0.3C18,12.1,17.9,12.2,17.8,12.3z"/>
</svg>
