<?xml version="1.0" encoding="utf-8"?>
<!-- Generator: Adobe Illustrator 21.1.0, SVG Export Plug-In . SVG Version: 6.00 Build 0)  -->
<svg version="1.1" id="Layer_1" xmlns="http://www.w3.org/2000/svg" xmlns:xlink="http://www.w3.org/1999/xlink" x="0px" y="0px"
	 viewBox="0 0 58 58" style="enable-background:new 0 0 58 58;" xml:space="preserve">
<style type="text/css">
	.st0{fill:#AAAAAA;}
</style>
<path class="st0" d="M37.5,35.4l-3.9-3.9c0,0-0.1,0-0.1-0.1c2.2-3.4,1.3-8-2.1-10.2c-3.4-2.2-8-1.3-10.2,2.1
	c-2.2,3.4-1.3,8,2.1,10.2c2.5,1.6,5.6,1.6,8.1,0c0,0,0,0,0.1,0.1l3.9,3.9c0.6,0.6,1.5,0.6,2.1,0C38.1,37,38.1,36,37.5,35.4
	L37.5,35.4z M27.4,32.2c-2.7,0-4.8-2.2-4.8-4.8c0-2.7,2.2-4.8,4.8-4.8c2.7,0,4.8,2.2,4.8,4.8c0,0,0,0,0,0
	C32.2,30,30.1,32.2,27.4,32.2C27.4,32.2,27.4,32.2,27.4,32.2L27.4,32.2z"/>
</svg>
